<svg xmlns="http://www.w3.org/2000/svg" xml:space="preserve" width="745.78436" height="700" viewBox="0 0 745.78436 699.99997"><path d="m0 0-9.442-10.155c-.593-.64-.658-.858-.341-1.155.336-.313.533-.251 1.154.399L.815-.753l1.932-1.8-9.043-9.725-.504-.542a5.145 5.145 0 0 0-.89-.752c-1.111-.787-2.438-.604-3.679.552-.808.75-1.223 1.624-1.196 2.441.022.399.155.806.375 1.192.188.316.413.636.691.933l.506.548 9.044 9.724z" style="fill:#798086;fill-opacity:1;fill-rule:nonzero;stroke:none" transform="matrix(3.92947 0 0 -3.92947 138.336 540.638)"/><path d="m0 0 2.362-1.491-3.391-8.137L3.61-2.28l2.038-1.288-9.131-14.456-2.338 1.477 3.376 8.113-4.626-7.324-2.061 1.302z" style="fill:#798086;fill-opacity:1;fill-rule:nonzero;stroke:none" transform="matrix(3.92947 0 0 -3.92947 175.114 575.092)"/><path d="m0 0 2.315-1.218-7.954-15.142-2.322 1.227z" style="fill:#798086;fill-opacity:1;fill-rule:nonzero;stroke:none" transform="matrix(3.92947 0 0 -3.92947 229.23 607.804)"/><path d="m0 0 2.505-.656L.729-11.457 4.331-1.134l2.503-.658L.658-17.851l-3.072.806Z" style="fill:#798086;fill-opacity:1;fill-rule:nonzero;stroke:none" transform="matrix(3.92947 0 0 -3.92947 266.589 624.769)"/><path d="m0 0 4.95-.022-.004-2.334-2.334.011-.025-4.924 2.335-.01-.014-2.304-2.336.011-.015-5.208 2.327-.006-.005-2.338-4.95.025z" style="fill:#798086;fill-opacity:1;fill-rule:nonzero;stroke:none" transform="matrix(3.92947 0 0 -3.92947 328.413 632.712)"/><path d="m0 0 2.567.515-1.44 7.164c.858.172 1.065.057 1.215-.723l.933-4.652c.165-.803.31-1.14.594-1.526l2.517.501c-.306.487-.388.759-.554 1.57l-.838 4.194c-.207 1.053-.54 1.643-1.116 1.895-.228.109-.337.139-.744.215.704.535.918.89.947 1.552a9.143 9.143 0 0 1-.183 1.797l-.386 1.955c-.329 1.612-.679 2.325-1.279 2.725-.66.394-1.248.458-2.55.196l-3.04-.608zm-.339 15c.86.163 1.068.022 1.225-.752l.635-3.167c.152-.782.011-.992-.84-1.164Z" style="fill:#798086;fill-opacity:1;fill-rule:nonzero;stroke:none" transform="matrix(3.92947 0 0 -3.92947 403.387 696.552)"/><path d="m0 0 1.773-.542c1.474-.426 1.969-.9 2.65-2.369l.828-1.813.317-.682c.171-.372.286-.74.368-1.097.305-1.293-.387-2.484-1.87-3.174-.932-.433-1.928-.489-2.648-.147-.371.136-.705.432-.984.793-.222.295-.405.632-.597.992l-.311.672-1.028 2.24L.875-4.038l1.278-2.771c.117-.254.192-.417.267-.522.15-.269.388-.356.667-.225.416.191.425.419.064 1.212L2.29-4.479c-.426.927-.624 1.116-1.564 1.37l-1.776.56c-1.536.448-2.035.862-2.663 2.219l-.719 1.561-.311.674c-.146.384-.283.746-.361 1.102-.295 1.309.409 2.478 1.856 3.14.93.431 1.914.49 2.632.165.359-.171.704-.433.955-.796.358-.46.404-.555.911-1.672l.874-1.888L-.186.901l-1.115 2.421c-.362.788-.54.93-.957.738-.395-.181-.403-.413-.042-1.201l.727-1.585C-1.186.438-1.016.317 0 0" style="fill:#798086;fill-opacity:1;fill-rule:nonzero;stroke:none" transform="matrix(3.92947 0 0 -3.92947 480.097 631.369)"/><path d="m0 0 2.129 1.523 9.974-13.887-2.123-1.527Z" style="fill:#798086;fill-opacity:1;fill-rule:nonzero;stroke:none" transform="matrix(3.92947 0 0 -3.92947 515.349 582.101)"/><path d="m0 0-1.213-1.319L-2.93.262 1.28 4.82l1.718-1.579-1.263-1.355L12.597-8.126l-1.739-1.884Z" style="fill:#798086;fill-opacity:1;fill-rule:nonzero;stroke:none" transform="matrix(3.92947 0 0 -3.92947 565.296 558.327)"/><path d="m0 0 5.066-2.018-3.995 3.701 1.408 2.21 7.866-7.663 5.356-3.41-1.433-2.247-5.42 3.451-10.297 3.702z" style="fill:#798086;fill-opacity:1;fill-rule:nonzero;stroke:none" transform="matrix(3.92947 0 0 -3.92947 593.38 502.023)"/><path d="m0 0 .005 2.69c0 .28 0 .435-.025.588-.024.305-.23.487-.515.487-.46-.001-.561-.203-.562-1.073l-.011-10.64c-.002-.875.099-1.076.558-1.077.44-.002.541.175.542 1.081l.004 3.353-.509.002-.003 2.334 3.13-.007-.012-8.924-1.409.001-.176.675c-.362-.596-.902-.85-1.75-.848-.919 0-1.867.384-2.357.974-.282.282-.457.701-.558 1.134-.078.358-.107.742-.133 1.15l.004.749.011 9.455.004.748c.025.407.052.79.129 1.148.285 1.312 1.412 2.074 3.052 2.071 1.077.002 2-.336 2.509-.949.281-.305.467-.69.567-1.122.1-.567.126-.672.123-1.901L2.615-.003Z" style="fill:#798086;fill-opacity:1;fill-rule:nonzero;stroke:none" transform="matrix(3.92947 0 0 -3.92947 352.14 23.856)"/><path d="m0 0-2.127-1.527-4.251 5.883-.872-.632 4.252-5.885-2.126-1.528-10.007 13.862 2.116 1.535L-8.6 5.595l.874.629-4.41 6.104 2.113 1.536z" style="fill:#798086;fill-opacity:1;fill-rule:nonzero;stroke:none" transform="matrix(3.92947 0 0 -3.92947 193.78 114.256)"/><path d="m0 0-2.746-.532-3.108 8.257 1.648-8.537-2.366-.459-3.241 16.791 2.723.523 3.1-8.219-1.642 8.501 2.391.462z" style="fill:#798086;fill-opacity:1;fill-rule:nonzero;stroke:none" transform="matrix(3.92947 0 0 -3.92947 297.704 71.382)"/><path d="m0 0-2.388 1.456L.86 9.652l-4.514-7.421-2.059 1.251L3.18 18.084l2.366-1.441L2.311 8.47l4.512 7.402 2.072-1.268Z" style="fill:#798086;fill-opacity:1;fill-rule:nonzero;stroke:none" transform="matrix(3.92947 0 0 -3.92947 506.406 110.899)"/><path d="m0 0 .533-.513c.274-.306.532-.591.735-.893.773-1.132.544-2.477-.621-3.675-.761-.794-1.654-1.208-2.462-1.15-.415.011-.816.149-1.198.376-.31.192-.608.44-.927.708l-.531.517-6.81 6.568-.531.514c-.275.304-.541.591-.751.895-.758 1.129-.51 2.456.651 3.655.764.795 1.64 1.225 2.444 1.166.418-.01.818-.147 1.2-.375.309-.191.603-.439.916-.706l.542-.52 1.958-1.882-1.854-1.922-2.38 2.298c-.201.196-.311.301-.439.389-.244.195-.522.172-.715-.032-.32-.329-.243-.55.386-1.153l7.658-7.387c.626-.603.841-.671 1.169-.341.306.311.249.513-.408 1.136L-3.978.131l1.854 1.919z" style="fill:#798086;fill-opacity:1;fill-rule:nonzero;stroke:none" transform="matrix(3.92947 0 0 -3.92947 139.584 139.092)"/><path d="m0 0 5.572-12.705c.347-.796.523-.94.919-.767.426.188.447.392.089 1.21L1.01.443l2.422 1.056 5.327-12.161.299-.679a5.51 5.51 0 0 0 .352-1.111c.271-1.332-.428-2.481-1.978-3.156-1.009-.443-1.976-.478-2.712-.133-.359.182-.68.465-.949.823a5.541 5.541 0 0 0-.577.999l-.304.687-5.328 12.16z" style="fill:#798086;fill-opacity:1;fill-rule:nonzero;stroke:none" transform="matrix(3.92947 0 0 -3.92947 200.74 32.192)"/><path d="m0 0 2.442-.871L4.04 2.694l1.404-.5-.955-3.801 2.466-.876 3.835 16.792-3.356 1.195Zm4.947 4.765 2.555 5.699-1.52-6.071z" style="fill:#798086;fill-opacity:1;fill-rule:nonzero;stroke:none" transform="matrix(3.92947 0 0 -3.92947 431.358 75.08)"/><path d="m0 0 1.784 2.011c.186.211.288.327.371.461.185.246.151.516-.059.702-.341.306-.553.222-1.132-.425L-6.118-5.2c-.578-.648-.638-.871-.295-1.178.321-.289.521-.224 1.124.448l2.231 2.506-.386.34 1.559 1.744L.447-3.422l-5.934-6.662-1.059.94.309.616c-.657-.202-1.228-.037-1.855.529-.697.613-1.147 1.532-1.118 2.296-.023.4.116.823.328 1.218.182.319.417.622.67.945l.501.556 6.294 7.065.492.552c.293.287.564.563.86.779 1.087.788 2.433.613 3.665-.48.798-.719 1.265-1.577 1.241-2.38.009-.416-.115-.825-.334-1.217-.298-.489-.346-.586-1.16-1.503L1.949-1.737Z" style="fill:#798086;fill-opacity:1;fill-rule:nonzero;stroke:none" transform="matrix(3.92947 0 0 -3.92947 569.23 105.386)"/><path d="M0 0a1.832 1.832 0 1 0-3.663 0A1.832 1.832 0 0 0 0 0" style="fill:#798086;fill-opacity:1;fill-rule:nonzero;stroke:none" transform="matrix(3.92947 0 0 -3.92947 86.06 185.862)"/><path d="M0 0a1.832 1.832 0 1 0-3.663 0A1.832 1.832 0 0 0 0 0" style="fill:#798086;fill-opacity:1;fill-rule:nonzero;stroke:none" transform="matrix(3.92947 0 0 -3.92947 86.06 517.046)"/><path d="m0 0-2.526.427.351 2.122 6.048-1.066-.354-2.126Z" style="fill:#798086;fill-opacity:1;fill-rule:nonzero;stroke:none" transform="matrix(3.92947 0 0 -3.92947 402.54 39.493)"/><path d="m0 0 .405-1.107-1.782-.652c-.584.845-1.292 1.077-2.534.866l-.722 1.974 16.038 5.914.911-2.454z" style="fill:#798086;fill-opacity:1;fill-rule:nonzero;stroke:none" transform="matrix(3.92947 0 0 -3.92947 32.55 462.173)"/><path d="m0 0 1.636.054c1.261.034 1.338.035 1.895.181.43.115.838.309 1.135.599.572.532.908 1.438.876 2.51-.054 1.669-.874 2.773-2.195 2.992a5.39 5.39 0 0 1-1.152.093l-.746-.023-9.462-.277-.739-.022A5.268 5.268 0 0 1-9.9 5.941a2.716 2.716 0 0 1-1.11-.571c-.603-.549-.903-1.463-.873-2.564.045-1.687.827-2.77 2.159-3.011A5.181 5.181 0 0 1-8.559-.3l.74.022 4.276.127c1.646.047 2.464.893 2.423 2.452-.016.543-.111.928-.379 1.354l3.613.11c.571.007.722.014.854-.061.155-.098.235-.247.243-.451.011-.433-.19-.567-1.059-.598l-2.23-.063zm-8.517 3.443 3.967.12c.925.029 1.113-.047 1.126-.505.006-.312-.167-.495-.472-.556-.152-.004-.305-.033-.619-.037l-3.971-.12c-.539-.018-.717.002-.848.074a.625.625 0 0 0-.242.453c-.013.441.192.545 1.059.571" style="fill:#798086;fill-opacity:1;fill-rule:nonzero;stroke:none" transform="matrix(3.92947 0 0 -3.92947 46.702 399)"/><path d="m0 0-.175-1.164-1.882.289C-2.155.148-2.668.691-3.854 1.108l.319 2.072L13.366.624l-.388-2.586Z" style="fill:#798086;fill-opacity:1;fill-rule:nonzero;stroke:none" transform="matrix(3.92947 0 0 -3.92947 15.24 319.673)"/><path d="m0 0-.969.31C-2.168.704-2.24.729-2.814.781-3.258.817-3.706.771-4.085.6-4.803.293-5.424-.448-5.757-1.466c-.512-1.591-.115-2.906 1.057-3.559.315-.183.66-.35 1.052-.476l.71-.231 8.999-2.935.703-.229a5.276 5.276 0 0 1 1.137-.23c.443-.039.862.013 1.238.161.752.313 1.344 1.072 1.687 2.12.528 1.601.157 2.885-1.016 3.561-.319.19-.674.362-1.065.484l-.703.23-4.066 1.324c-1.565.512-2.621-.008-3.11-1.489-.168-.516-.209-.911-.1-1.403l-3.438 1.117c-.54.186-.685.231-.783.347-.113.142-.138.311-.077.506.136.41.371.469 1.199.206l1.532-.504zm7.443-6.309L3.669-5.083c-.88.286-1.032.421-.889.857.098.295.324.409.631.363.145-.048.299-.071.595-.174l3.778-1.228c.513-.165.674-.244.773-.355a.619.619 0 0 0 .075-.509c-.135-.419-.364-.448-1.189-.18" style="fill:#798086;fill-opacity:1;fill-rule:nonzero;stroke:none" transform="matrix(3.92947 0 0 -3.92947 37.669 231.42)"/><path d="M0 0c.006.013 3.875 5.118 4.323 5.663-.426-.105-.198.333-.156.678.354.073 3.027 4.055 3.957 4.861l.032.243c.043.009.728-2.17 1.151-2.614C8.706 7.19 8.1 5.534 7.496 3.902c-.272-1.371-.017-2.722-.435-4.036-.425-1.348-2.067-3.005-3.529-3.419-.742-.225-1.323-.212-2.026-.556a477.884 477.884 0 0 1-4.205-2.634C-4.594-5.869-.235-1.727 0 0m17.337 4.052-.024-.179c.259.017.202.067.166-.176l-.166.176c-.194-.013-.123.045.024.179m-48.968-33.279c.416.201.839.397 1.254.603 1.492.099 2.374.738 3.663 1.212.375.139.764.265 1.143.391l.19.009c-.412-2.989-2.534-5.952-1.262-8.752.26-.391.531-.793.785-1.196.413-.146.82-.298 1.246-.445.462-.224.812-.676 1.298-.861.298.019.315-.176.509-.297.857-.565 1.516-.221 2.382.482l.026.189c.768.048 1.11-.235 1.931.125.078.607-.133.988.041 1.658-.291-.017.631.532.869.787.351.019-.004.671-.059.919-.258-.017-.206-.076-.175.174l.262.092c.598 1.033 1.206 2.079 1.8 3.109.665.819 1.336 1.625 2.012 2.432.18.406.206.713.112 1.07 1.191.074 1.565 2.809 1.448 3.579.43.025 2.435 2.124 3.07 2.539.63.286 1.277.571 1.915.867l.08.05c.312.02.223.484.301.753.042.299-.086.174-.364.161l.026.178c.374-.025.742-.056 1.111-.091.819.291 1.63.579 2.436.872.033.251.434.519.309.65.558.049 1.13.089 1.692.132 1.038.231 3.964 1.618 4.751 2.425.125.007.257.015.379.024-.029-.255-.082-.192.168-.176.042.291.417.314.632.409.036.241-.029.18.221.195l-.029-.185c.426.033.223-3.935.874-4.718l.19.012c-.099-.243-.19-.499-.292-.754-.042-.001-.006-.736-.157-1.116l.197.009c-.089-.625 1.846.223 2.146.324l.029.19a9.17 9.17 0 0 1-.012-.405c-.122-.576-.496-1.007-.967-1.384-2.198-1.761-1.204-4.175-.944-6.082.039-.632.07-1.281.105-1.934.168-.386.332-.782.497-1.175-.063-.399-.122-.82-.177-1.233-.067-.95.09-1.783.399-2.554l-.029-.183c.198.013.625 1.184 1.366 1.564l-.053-.128c-.232-.492-.465-.978-.69-1.46-.352-1.258-.166-3.472.709-4.119-.128-.93-.314-1.663.679-1.967.027.186.052.368.08.553.06.462.501.934.718 1.341.215.574.437 1.126.658 1.688.414.025-.308.663-.449.881-.272-.019-.051.624-.064.922.25.017.513.033.775.047.173 1.265-.124 2.2-.723 3.075-.273-.018.08.126.215.198l.026.186c.282.014.06-.04.168-.179l-.024-.179c.248.016.222.013.291.231.595 1.712 1.235 3.41 1.974 5.056.314.02.192.166.182.396.081.62.166 1.226.249 1.83.134 1.488.128 3.234.715 4.646-.236-.013-.328 1.586-.677 1.977.039.285.252.394.462.579.078.553.154 1.121.23 1.672.059.416.593.868.925 1.157.083.627-.03 1.152.063 1.845-.317-.018-.381.134-.522.328-.254-.013-.199-.072-.165.171.381.028.734.569.865.864.139.542.286 1.077.426 1.609 1.136 2.341 2.557 2.737 4.676 3.926.315.228.621.447.926.666.052.344-.422.283-.713.314l.028.2c.571.039 3.355 2.465 3.788 3.044.147.378.302.756.452 1.128.462.181.957-.045 1.278-.147l.027.185c.42.211.829.417 1.236.641.039.277.15.191.416.21.043.298-.285.271-.528.333.047.329.364.31.629.403l.027.185c-.173-.011-.321.004-.357.16.15 1.1.789 1.187 1.668 1.035.018.128 1.089 1.737 1.222 1.905.27.019.313.552.485.773-.046-.325.38-.039.586.04-.052-.357.478.391.648.592-.294-.02-.328.184-.522.33l.025.187c.324.084.662.162.99.242l.027.183c1.804.121 2.758 1.4 4.445 1.763.054.398.352.553.677.78.029.181.057.38.082.561-.137-.006-.263-.015-.387-.021-.044-.34-.614-.585-.87-.801-.237-.012-.632.402-.893.49l.029.197c.723.047.851.955 1.621.65l.19.017c.026.205-.025.239-.141.356.069.46-.072.223-.113.539.041.271-1.978-.589-2.388-.703.042.297.293-.158.065-.023l.022.182c.602.04.933.897 1.23 1.298.035.266-.202.26-.42.31-1.192.27-5.377-1.421-6.671-1.892-.989-.347-1.977-.703-2.964-1.066-.662-.359-1.325-.727-1.981-1.097-2.186-.993-4.456-1.608-6.6-2.695l.026.185c-.215-.015-.221.032-.355.158.101.735.231 1.281-.128 1.835.114.313.24.627.35.942.209 1.606.429 3.198.639 4.81-.329-.02.132.346.272.568.34.022.069.323-.003.517-.607 1.526.16 3.405.042 5.188-.064 1.041-.531 1.578-.012 2.749-.285-.02-.211.107-.265.291-.469 1.494-1.114.96-2.37 1.383.019.117.04.25.052.367.275.02.611.3.822.417.11.764-1.211 1.272-1.697 1.544-.026-.202-1.272-.4-1.574-.526-.745-.331-1.54-.615-2.374-.564-.546.032-1.026.319-1.68.17-1.744-.422-5.528-4-7.098-5.42l.2.013c-.046-.319.442-.295.714-.319a12.7 12.7 0 0 0-.052-.371c-.251-.016-.183.046-.215-.194-.519-.035-1.773-.557-2.196-.926-.855-.775-1.177-2.063-1.878-2.965-.402-.514-1.222-.646-1.49-1.332-.004-.157-.004-.313-.008-.475l-.023-.184c-1.888-.12-5.48-8.893-7.312-10.024-.027-.125-.038-.245-.056-.369l-.191-.01c-.085-1.229-.817-1.732-1.325-2.73-.299-.618-.398-1.097-.813-1.641.328.023.086-.17-.049-.364.273.014-.181-.447-.259-.759-.251-.997-1.1-1.674-1.562-2.564-1.009-1.94-2.097-3.612-2.696-5.79-1.14-.074-.687-1.384-.232-1.676l-.027-.182c-1.256-.082-1.395-1.395-1.463-2.3l-.189-.011c.037.277-.085.167-.28.107-1.64-.558-3.038-1.001-4.411-2.252-.355-.024.003-.238.138-.352l-.024-.188c-1.197-.079-1.831-.21-2.985-.942-.996-.651-2.268-2.22-3.539-2.048l-.2-.017-.029-.18c-.311-.023-.2-.334-.267-.569-.043-.305-.75-.75-.953-1.051-.304-.465-.779-.746-1.139-1.191-.627-.82-1.2-1.734-1.373-2.74-.125-.763 2.436-1.389 3.149-1.262" style="fill:#2c71bc;fill-opacity:1;fill-rule:nonzero;stroke:none" transform="matrix(3.92947 0 0 -3.92947 373.024 335.485)"/><path d="M0 0c-1.07.064-2.028-.666-2.876-1.311l-.816-.606-3.541-2.082-3.382-1.976c-1.948-.913-3.594-1.537-5.178-1.973l-1.064-.388c-.271-.13-.523-.264-1.004-.375l-.066-.017-.023-.04-.185.126-.183.145c-.544.332-.691 1.163-.691 2.134 0 .613.055 1.267.112 1.888.052.629.107 1.248.107 1.786a4.6 4.6 0 0 1-.061.713c.679.236.78 1.732.863 3.081.035.583.071 1.132.148 1.346.13.328.498.638.825.91l.079.068.028.134-.037.952c.557.636 1.357 3.322 1.365 3.353.039.15.056.292.056.442 0 .174-.032.331-.06.488.186.095.262.312.305.448l.041.117.024.112.044.017.385.168-.104.16c.02.046.353.762.424.925l.188.117.043.14-.049.141c.243.136.452.441.644.72l.253.334.822.803c.53.504 1.026.971 1.461 1.573l.418 1.064.199.516.27.352c.343.432.73.922.73 1.561l-.018.232c-.14.982-1.001 1.346-1.697 1.641l-.147.063.025.188-.219.003-.14.012a4.82 4.82 0 0 0-.527.04c.215.256.326.672.392.969a.62.62 0 0 1 .322.186l.263.279-.44.071-.029.1-.068.246-.146.003-.633.039-.229-.632c-.179.051-.314.15-.437.396l-.05.099-.197.022-.014.019.01.021.03.161-.311.129.096.168-.281.039.011.068.029.213-.071.223-.159.073a.593.593 0 0 1-.285.369l-.045.027.049.198-.226.07c-.212.014-.527.132-.862.257-.7.261-1.489.555-2.06.213-.266-.161-.424-.479-.519-.885-.094.037-.191.062-.291.133l-.173.113-.041.168-.303.089h-.297l-.034-.18c-.083-.688-.211-.835-.718-1.181l-.47-.309.429-.046-.043-.067-.269-.507c-.769-1.423-1.497-2.851-1.497-3.646 0-.092.027-.161.047-.24-.226.012-.791.049-.791.049l-.024-.192c-.16-1.339-.537-1.827-1.15-2.646l-.518-.689-.651-1.237-.211-.404c-.499-.637-.856-1.404-1.201-2.155-.349-.74-.675-1.44-1.143-2.051l-.972-1.04c-.367-.493-.694-1.163-1.032-1.883-.399-.826-.814-1.683-1.272-2.198l-.066-.05-.647-.488c-1.09-1.03-2.548-2.563-3.046-4.173l-.185-.04-.03-.019c-1.806-1.162-3.432-3.058-4.871-4.731l-.551-.633-.744-.923-.201-.251-.829-.594c-.371-.225-.745-.46-1.101-.823l-.889-1.153-.116-.149c-.218-.211-.619-.162-1.041-.12-.393.037-.82.051-1.163-.159.341 2.636.966 4.77 2.121 7.254l.185.118.051.155-.044.189-.028.089a1.092 1.092 0 0 0-.022.244c0 .999.833 3.321 1.324 4.375l.066.14-.127.076.043.072.138.262.151.837.175 1.02c.235 1.239.744 3.547 1.574 5.218l.252-.017-.019.248-.014.135a4.937 4.937 0 0 0-.045.655c0 .785.197 1.565.566 2.352l.275-.018-.081.397c-.448 1.655-2.047 4.24-4.47 4.255-3.009.016-6.064-7.571-6.617-10.293-.16-.03-.536-.104-.536-.104l-.143-.032-.018-.144c-.074-.629-.31-1.145-.556-1.692l-.345-.832-.999-2.585-.563-1.42.223-.06s.262-.07.49-.135l-.843.044-.02-.187c-.059-.495-.269-.984-.473-1.442l-.294-.737-.049-.279-.222-1.338-.411-.775-.21-.418c-.353-.924-.507-1.816-.67-2.764l-.177-.991-.147-.734c-.149-.723-.293-1.437-.293-2.117 0-.701.177-1.387.647-2.026l-.004-.043-.781.214-.078-.54.149-.074s.194-.085.326-.139a8.653 8.653 0 0 1-.06-.936c0-1.701.539-3.17 1.651-4.537l.336-.396c.337-.395.6-.697.792-1.243l.044-.129 2.229-.132.007.095c.238-.091 1.347-.522 1.347-.522l.076.009 1.107.108c.909.05 1.918.12 2.437.528.04-.003.105-.008.211-.013l-.019-.141-.033-.377h.21c.992-.06 1.621.494 2.234 1.027l.728.597.023.086.009.163c0 .192-.064.331-.118.472.144.026.32.109.551.242l.37.2-.018.087-.088.295-.145.082c.366.032.688.115.953.217.341.128.529.327.709.519l.409.373.938.526c.842.442 1.787.948 2.317 1.803.143.039.395.2.918.819l.04.047.014.131a.688.688 0 0 1 .277.301l.091.152.009.001c1.173.314 1.926 1.527 2.656 2.688.48.783.981 1.58 1.562 2.062l.061.053.006.056.164-.012.021.205.031.245-.117.118-.107.052a1.104 1.104 0 0 0-.296.196c.586.157 1.116.552 1.327 1.059.07.16.103.331.103.497 0 .182-.058.362-.14.539l.941.086c.078-.14.151-.337.211-.542.173-.567.411-1.289 1.022-1.713l-.399.026-.023-.168-.161.01-.024-.19-.016-.239c0-.992.731-1.901 1.473-2.273l.021-.01-.015-.108-.07-.03-.046-.173c0-.224.189-.505.429-.862.248-.374.571-.876.571-1.203l-.014-.082-.094-.102-.018-.092c0-.208.329-.565 2.404-2.075l.231-.168.449-.533c.156-.221.329-.431.556-.608a1.133 1.133 0 0 0-.203-.314l-.368-.479.394-.017c.211-.015.707-.362 1.104-.642.411-.289.802-.564 1.109-.673l.241-.086.129 1.081c.237-.013 1.254-.076 1.254-.076l.312.082.098.297c.181-.092.351-.214.519-.366l.847-.636.013.36.006.028c.397.074.747.376.925.566l.565-.018c1.634-.095 2.211.741 2.931 1.779l.284.405.046.453-.219.001-.16.01-.088.099c-.125.072-.251-.004-.381-.085l-.17.025-.002.016c0 .082.057.313.407.881l.707-.236.029.25.035.077c.113.051.452-.088.712-.257l.078-.2c.113-.107.262-.104.404-.086.048-.15.126-.275.209-.367v-.008c0-.092.017-.188.081-.258.094-.093.214-.083.303-.074l.282.011.047.186.027.187-.055.135-.145.057-.026.131.043.041.047.117.367-.025v.007c.133-.02.26.066.358.138l.026.017.777.114-.015.372.046-.049.011-.054-.011-.058c.048.077.323.306 1.645.983l.103.062.314-.017.014.191.051.434-.255-.029s-.778-.087-.894-.102l.034.271.004.056a.347.347 0 0 1-.101.256c-.119.128-.309.151-.505.151l.015.01.004.075.045.364c.769.085 1.629.854 2.024 1.383l.247-.018.093.749-.173.007.043.184.077.026.224.089.776.356c.969.423 1.614.736 1.749 1.011l.926 2.171-.024.029c.255.343 1.726 1.534 2.171 1.635l.14.03.015.144.002.054c0 .301-.251.673-.48.997 0 0-.081.12-.139.211.054.089.128.199.239.379.294.479.985 1.617 1.204 1.749l.084.052.073.643z" style="fill:#2c71bc;fill-opacity:1;fill-rule:nonzero;stroke:none" transform="matrix(3.92947 0 0 -3.92947 737.264 298.66)"/><path d="M591.895 492.579h-64.824v64.838h64.824zm2.587 70.017h-72.587v-75.179h75.176v75.179z" style="fill:#eb222c;fill-opacity:1;fill-rule:nonzero;stroke:none;stroke-width:2.10507" transform="matrix(1.86667 0 0 -1.86667 -368.749 1189.542)"/><path d="M0 0a35.85 35.85 0 0 1-3.622.69l-.066-.046-.406-.302-.011-.04a1.3 1.3 0 0 1-.47-.05l.008.027-.162.032-.727.125c-.172.03-.363-.122-.548-.267l-.112-.081-.254.341-.071-.287-.027-.091-.055.009c-.019.062-.129.089-.536-.326-.098.046-.344.174-.344.174l-.095-.119c-.05-.057-.342-.166-.453-.205L-7.96-.42l-.018.027c-.039.013-.095.023-.178-.079l-.172.069-.135.014-.059-.073-.373-.531-.036.006.006.225-.43.072-.097-.315-.077.011-.029-.068-.351.187-.038-.176c-.009-.036-.085-.164-.607-.342l-.071-.024-.021-.07c-.021-.072-.127-.143-.221-.206l-.18-.136-.008-.031c-.465.024-.918-.168-1.358-.351l-.615-.243-.028-.069c-.12-.394-.305-.956-.581-1.206l-.11.131.055.188-.161.022c-.226.041-.399-.295-.527-.654l-.002.087-.116.011-.023.003.019.06-.149.073c-.145.026-.245-.051-.318-.162l-.021.207-.109.034c-.164.027-.537-.13-1.287-.47l-.8-.34-.033-.069c-.09-.3-.328-.515-.58-.753-.205-.179-.407-.373-.557-.615-.487.072-.817-.008-1.204-.495l-.088-.034c-.063-.063-.084-.154-.084-.263l.017-.193-.154.026.097-.247.022-.052c-.029-.05-.084-.07-.228-.083l-.082-.013.102.226-.004.002.011.016-.269.102-.012-.022c-.034-.101-.215-.239-.361-.354l-.689-.627.536.124.1.018a14.013 14.013 0 0 1-.061-.387c-.545-.306-1.967-2.006-1.982-2.027l-.176-.334-.13-.26c-.105-.016-.283-.099-.676-.397l-.009.011-.025.086-.106.075c-.247.041-.305-.152-.333-.253l-.158-.529c-.152-.54-.193-.657-.85-.995l-.04.513-.231-.468s-.473-.847-.533-.951l-.528.4c-.128-.079-.168-.21-.197-.381l-.143.024-.032-.105-.067.012-.047-.091-.431-.73-.411-.832-.471-.596c-.462-.547-.93-1.121-1.063-1.876-.54-.159-1.066-2.127-2.692-5.017l-.968-1.651-.063-.388v-.029c0-.12-.013-.163-.204-.264l-.052-.028-.018-.058c-.171-.554-.301-.854-.667-1.28l-.048-.11-.057-.181.057-.02a59.98 59.98 0 0 0-.316-.557l-.024-.15c0-.149.071-.277.13-.386l.11-.23.129-.046.067-.012c-.213-.464-.424-.947-.424-1.317a.72.72 0 0 1 .06-.301c.06-.131.188-.202.331-.261-.14-.331-.364-.891-.369-1.302l.096.026-.069-.237.149-.067.302-.055c-.014-.11-.087-.635-.087-.635l.061-.013-.07-.171c0-.126.04-.314.103-.572l-.109.06-.24-1.027-.081-.318-.007-1.239c-.021-.275-.175-.563-.325-.822l-.022-.032-.005-.15.076-.104.038-.128.035-.139-.035-.015-.073-.24.33.072c.262.062.68-.569.905-.909l.151-.222-.005-.011-.215-.158.021-.046-.002-.022.09-.148-.008-.131.064-.023-.064-.499-.002-.004h.002l-.009-.054.29-.02-.06-.037-.07.012.171-.313.054-.026-.009-.067.067-.174c.369-.388.516-.644.516-1.018 0-.291-.08-.627-.206-1.133l-.026-.112-.063-.071-.07-.097-.005.003-.005-.014c-.106-.135-.36-.468-.36-.468l-.017-.057-.019-.215.128-.05c.249-.043.357.216.437.43l.179-.129.051-.139.064.044s.124.049.238.09l-.119-.386-.023-.078.115-.056a.609.609 0 0 0 .062-.282.68.68 0 0 0-.098-.357l-.015-.111c0-.188.13-.414.309-.701l.107-.178-.042.003-.048-.158.444-.079.051.092.169.308.122-.031s.364-.046.479-.058l.036-.259.123.007.778-.006.031.104c.089.292.174.357.379.489l.177.002c.126.017.154.014.196-.042l.036-.044.024-.004.001-.004c0-.139-.16-.491-.214-.616l-.142-.329.183-.026.212-.036.04.102.067-.016.048.091.349.564.039.075.006.02.092-.049h.02l-.011-.106-.116-.641-.102-.579.153-.448.193-.493-.009-.013-.057-.171.094-.031-.065-.208.188.056.353.082c.171.015.554.01.622-.175l.028-.079.34-.058.089.111c.047.148.329.114.415.1l.238-.084-.043-.139.163-.026c.139-.025.22.054.272.156a.852.852 0 0 1 .402-.325l.16-.147.193-.18c.478-.195.963-.083 1.384.012l.509.108.23-.386.091.32c.08.278.391.399.957.387.217-.037.402.26.639.677l.074.125.406.08-.024-.07.172-.024-.189-.456c-.143-.293-.29-.596-.334-1.004l-.014-.137.356-.06.037.122c.076.244.278.512.471.7l.029-.012.046-.005.168-.336.077-.17.263-.039.439.714.022.069.435.076.462.079.931-.055.447.158c.231.113.381.179.486.102l.166-.119.073.241c.128.043.281.126.428.23l-.072-.134.503-.087.024.072.147-.06.284-.132.038.165.071.23-.144.054-.008.116.007.013.074-.043.268-.166.044.186c.048.164.206.298.433.375.258.087.526.07.622.001l.165-.118.061.194c.085.282.638.449.927.506l.117.022 1.453.336.237.028.036.095.07.239-.02.006.06.065c.235.017 1.172.109 1.418.208l.066.025.076.244c.126.023.275.05.411.069.273-.053.748.33.903.663l.013.003c.122-.085.212.046.375.295l.064.091-.004-.038 2.679 1.386.158.115h.169l.024.118c.076.386.259.662.529.801.255.142.572.137.874-.017l.226-.106-.025.252c-.011.137.044 1.092.108 1.228.116.13.259.152.444.179.187.03.402.06.586.248l.176.248.163.231.427.178c.233.072.491.148.672.356.208.252.285.581.357.9l.205.627c.208.388 1.852 1.32 2.146 1.21l.168-.057.011.088c.342.199 1.559 3.25 1.578 3.284l.735-.096.022.084v.024c.736.125 1.278.706 1.806 1.298.479.535.771 1.727 1.336 1.836l.108.033.009.115.005.088c0 .203-.057.342-.173.427-.219.16-.544.033-.806-.073l-.213-.083-.011-.097a4.305 4.305 0 0 1-1.403-.477l.003.034-.171-.014c-.176-.016-.342-.151-.482-.27l-.193-.146-.497-.198-.021.04c-.117.052-.204-.041-.267-.11l-.045-.042c-.744-.63-2.493-1.959-3.121-1.993l-.119-.008-.013-.103h-.129l-.064-.105c-.062-.071-.465-.13-.73-.123H.515l-.051-.106c-.124-.246-1.877-1.322-2.17-1.265-.217.002-.261-.09-.276-.175l-.307.089-.076-.149c-.019-.166-.362-.492-2.332-.961l.006.029-.224.035-.125-.008-.06-.107c-.043-.075-.358-.2-.495-.253l-.31-.132.002-.035c-.108-.01-.253-.094-.514-.265-.219-.139-.549-.352-.674-.365l-.102-.009-.019-.073c-.088 0-.228-.041-.525-.134l-.595-.166-.039-.086c-.581.047-1.408-.212-1.921-.51l-.01.034-.199.08-.047.005-.16.027-.094-.109-.268-.033-.169-.004-.194.278-.125-.221c-.057-.086-.496-.2-.734-.262l-.533-.177-.145.026-.05.086c-.118.059-.221-.038-.362-.211-.096.048-.222.114-.222.114l-.126.028-.126.02-.044-.118c-.024-.078-.187-.101-.307-.12l-.228-.037-.014-.059c-.122.032-.42.105-.42.105l-.992-.218-.545.041-.688.048c-1.287.283-2.862 1.549-3.123 3.079a3.95 3.95 0 0 0-.054.694c0 .369.037.748.081 1.162l.008.073.028.502c.01.335.021.662.125 1.038l.433 1.06.271.591.295.967.412.801.061.596.013.132.102.42.065.247.007-.106c0-.112-.008-.271-.038-.506l-.021-.141.342-.056.043.096.235.491.436.417.85 1.06.545.841c.337.553.722 1.178 1.085 1.404l.036.024.005.01.072-.042.27-.155.042.18c.033.106.045.212.045.318 0 .17-.033.338-.065.508l-.012.071c.081-.111.189-.236.386-.225.454.029 1.866 1.323 2.266 1.848l.156-.109.204-.214.125.183.273.35c.191.191.411.439.527.772l.613.146a.68.68 0 0 1 .204-.257l-.046-.15.206-.062.169-.036.06.196-.011-.004a.48.48 0 0 1 .183.281l.048.147.307.284.034.027.13-.046.043-.006c.103-.027.477-.433.55-.59l.16-.351.11.371a.47.47 0 0 0 .28.322c.211.086.505.04.67-.05l.082-.042.095.076c.117.091 1.179.409 1.381.428l.869-.056c.348-.052.71-.104 1.095-.033.495.092.98.381 1.441.664l.77.43 1.066.351 1.087.37c.713.34 1.435.706 1.991 1.111L4.212-14.8l.431.269c.299.17.599.343.876.653.337.385.484.878.624 1.357l.285.848.361.589c.281.768.424 1.53.424 2.297 0 .599-.087 1.222-.254 1.86l-.186.607-.559.73c-.489.581-.947 1.121-.947 1.934 0 .123.011.256.033.394l.028.166-.947.004-.033-.112-.037.066c-.372.325-.384.511-.406.878l-.05.496.102.342-.357.061-.062-.121-.027-.087-.236.042.127-.286-.029-.008c-.221-.011-.574.202-.617.312l-.029.075-.294.053-.044-.123-.051-.091-.03.01-.126.02-.013-.037c-.161.269-.289.475-.4.546l-.037.009-.05.094c-.115.074-.411-.194-.411-.194C.264-.39 0 0 0 0" style="fill:#2c71bc;fill-opacity:1;fill-rule:nonzero;stroke:none" transform="matrix(3.92947 0 0 -3.92947 246.94 254.925)"/></svg>