<svg xmlns="http://www.w3.org/2000/svg" viewBox="0 0 221.7 167.59"><path d="M87.13 123.54v1.31a.86.86 0 0 0 .07.34.35.35 0 0 0 .17.17h.99a.36.36 0 0 1 .19 0s.08-.08.08-.23a2.93 2.93 0 0 0 0-.41 1.42 1.42 0 0 0-.08-.38.84.84 0 0 0-.32-.48l-.54-.39a13.54 13.54 0 0 1-1.91-1.55 1.78 1.78 0 0 1-.44-1.21v-.83a1.65 1.65 0 0 1 .6-1.39 2.57 2.57 0 0 1 1.5-.46h1a2.17 2.17 0 0 1 1.46.52 1.75 1.75 0 0 1 .58 1.39v1.63h-1.81v-1a1.91 1.91 0 0 0-.07-.66.47.47 0 0 0-.19-.24h-.74a.45.45 0 0 0-.29 0l-.19.11s-.08.14-.08.33a.77.77 0 0 1 0 .21v.16a1 1 0 0 0 .53.75c.33.2.89.56 1.66 1.08a3.24 3.24 0 0 1 .79.84 1.84 1.84 0 0 1 .41 1v.7a2.11 2.11 0 0 1-.61 1.53 2.2 2.2 0 0 1-1.53.66h-1a2.39 2.39 0 0 1-1.48-.55 1.68 1.68 0 0 1-.61-1.37v-1.53ZM92.29 116.1v-2h1.87v2Zm0 10.77v-8.79h1.87v8.79ZM99.34 126.87v-6.72a.71.71 0 0 0-.07-.31.25.25 0 0 0-.18-.15.77.77 0 0 0-.25 0h-.52a1 1 0 0 0-.27 0 .41.41 0 0 0-.16.16.67.67 0 0 0-.06.28v6.74H96v-8.77h1.87v.34a1.11 1.11 0 0 1 .44-.28 2 2 0 0 1 .59-.13h1.1a1.41 1.41 0 0 1 .84.42 1.45 1.45 0 0 1 .36 1v7.38ZM106.31 121.75v-1.65a.71.71 0 0 0-.06-.31.32.32 0 0 0-.16-.18h-1.06a.27.27 0 0 0-.16.17.66.66 0 0 0-.07.32v4.73a.76.76 0 0 0 .06.32.38.38 0 0 0 .15.19h1.04a.33.33 0 0 0 .18-.17.68.68 0 0 0 .08-.34v-1.61h1.86v1.66a2 2 0 0 1-.59 1.45 2 2 0 0 1-1.44.64h-1.09a2.23 2.23 0 0 1-1.51-.67 2.08 2.08 0 0 1-.61-1.52v-4.63A2.15 2.15 0 0 1 105 118h1.16a2.24 2.24 0 0 1 1.45.65 2 2 0 0 1 .57 1.44v1.7ZM111.77 123.14v1.69a.67.67 0 0 0 .07.33c0 .1.1.16.18.18h1.02a.31.31 0 0 0 .18-.18.81.81 0 0 0 .07-.33v-1.19h1.84v1.24a2 2 0 0 1-.59 1.45 2.1 2.1 0 0 1-1.48.64H112a2.2 2.2 0 0 1-1.48-.67 2.15 2.15 0 0 1-.59-1.52v-4.63a2.17 2.17 0 0 1 .57-1.52 2.08 2.08 0 0 1 1.43-.67h1.18a2.15 2.15 0 0 1 1.45.65 2 2 0 0 1 .58 1.44v3.09Zm1.52-3a.59.59 0 0 0-.07-.31.36.36 0 0 0-.16-.18h-1.04a.3.3 0 0 0-.18.17.66.66 0 0 0-.07.32v1.49h1.52ZM119.52 126.85v-6.45h-.79v-1.28h.38a.84.84 0 0 0 .44-.42 1.42 1.42 0 0 0 .17-.62h1.22v8.78ZM123.53 123.55v1.86a.34.34 0 0 0 0 .17.26.26 0 0 0 .13.1h.74a.2.2 0 0 0 .11-.11.32.32 0 0 0 0-.16v-2.61a.4.4 0 0 1-.17.13.89.89 0 0 1-.28.07h-.81a1.18 1.18 0 0 1-.86-.39 1.48 1.48 0 0 1-.32-1v-2a1.54 1.54 0 0 1 .41-1.14 1.61 1.61 0 0 1 1.09-.44h.79a1.46 1.46 0 0 1 1.52 1.57v5.59a1.68 1.68 0 0 1-.43 1.18 1.52 1.52 0 0 1-1.1.51h-.78a1.49 1.49 0 0 1-1.07-.51 1.63 1.63 0 0 1-.43-1.16v-1.7Zm1.07-4a.36.36 0 0 0 0-.19.18.18 0 0 0-.14-.08s-.06 0-.17 0h-.55a.18.18 0 0 0-.12.09.34.34 0 0 0 0 .17v2a.42.42 0 0 0 0 .16.21.21 0 0 0 .11.1H124.31a.51.51 0 0 0 .19 0 .19.19 0 0 0 .11-.09.33.33 0 0 0 0-.17ZM130.68 125.74v1.11h-1.38v-1.11h-2.22v-1.24l1.7-6.43h1.9v6.35h.95v1.32Zm-1.38-5.21-1 3.89h1ZM134.36 126.85h-1.53l2.09-7.56h-2.25v-1.22h3.77v1.24Z" style="fill:#004898"/><path d="m117.72 80.7 5.9-27.46H114l-4.55 23.63V53.24H99.21v39.38c6.08-2.12 12.68-4.55 19.41-7.24ZM134 78.37a5 5 0 0 1 3.39-4.73V53.16h-10.28v28.68q3.46-1.49 6.9-3.06c-.01-.14-.01-.27-.01-.41Zm42.55-18.27c-1.05-2.87-10.85-2.43-25.6.79v-7.73h-10.34v20.48a4.81 4.81 0 0 1 1.8 1.09q3.19-1.62 6.27-3.3a4.18 4.18 0 0 0 2.32-3.62v-5.58c11.13-2.38 18.49-2.87 19.21-1 .65 1.72-4.31 5.3-12.9 9.79-3.8 2-8.3 4.15-13.35 6.4a4.91 4.91 0 0 1 .09.94 5 5 0 0 1-3.39 4.73v21.08c0 1.23-.49 2-1.65 2s-1.58-.82-1.58-2V83.1a5 5 0 0 1-2.44-1.79c-7 2.93-14.73 5.94-22.82 8.87-6.45 2.34-12.72 4.47-18.64 6.37h-.13c-3.58 1.14-7 2.19-10.31 3.15v4.3c0 2.93-1 2.93-3 2.93v-46.6c2 0 3 0 3 2.94v34.67c3.08-1 6.55-2.07 10.31-3.33V62.5c0-9.46-8.81-9.2-8.81-9.2H69.8v36.46c-16.12 8-25.8 15-24.64 18.15 1 2.81 10.42 2.54 24.64-.39v6.58h14.81s8.74.36 8.74-9.54v-3.12c1.92-.58 3.88-1.18 5.86-1.82v14.44h10.24V96.2l1.24-.43 2.9 18.29h10.55L120 92.38q3.65-1.39 7.14-2.79V105c0 8 6.75 9.45 11.94 9.45s11.9-1.48 11.9-9.54V79c16.67-8.33 26.75-15.66 25.57-18.9ZM69.8 103.27c-11.09 2.63-18.33 3.34-19 1.45-.73-2.11 6.73-7.29 19-13.49ZM17.08 69.41l1.75-4.92a3.65 3.65 0 0 1 1.47-1.88 2.73 2.73 0 0 1 2.54-.16l9 3.21a2.85 2.85 0 0 1 1.83 1.64 3.37 3.37 0 0 1 0 2.44l-1.77 5Zm4.46-4.07a.8.8 0 0 0-.55 0 .91.91 0 0 0-.45.37s-.1.26-.26.7l-.24.71 11.05 3.93.25-.69a5.31 5.31 0 0 0 .22-.7 1 1 0 0 0-.09-.58.79.79 0 0 0-.43-.37ZM37.74 61.73 36 64.3 24.72 52.82l2.22-3.22 14.72 6.45-1.78 2.58-10.22-4.77ZM34.45 59l-1.79-1.24L34.53 55l1.78 1.23ZM48.15 49.75l-8.82-4.52 6.3 6.84-1.93 1.78L33 42.24l2.63-2.42 8.73 4.92-6.46-7L39.83 36l10.69 11.57ZM57.77 42.66l-5.12-3.72 3.17 5-2.63 1.68-8.5-13.32 2.63-1.69 2.84 4.44-.79-5.75L52 27.61l1.15 7.8 7.66 5.29ZM58.46 27.57a2.76 2.76 0 0 1 0-2.3 3.75 3.75 0 0 1 1.77-1.84l.43-.19.41-.19.4-.18.39-.18a3.76 3.76 0 0 1 2.57-.14 2.67 2.67 0 0 1 1.74 1.52l4.12 9.13a2.46 2.46 0 0 1 0 2.27 4.07 4.07 0 0 1-1.89 1.7l-.41.18-.4.18-.4.19-.41.18a3.89 3.89 0 0 1-2.52.19 2.53 2.53 0 0 1-1.67-1.39ZM63.2 25a.46.46 0 0 0-.21-.24.41.41 0 0 0-.31 0 1.89 1.89 0 0 0-.37.13l-.37.16-.37.17a1.46 1.46 0 0 0-.37.19.33.33 0 0 0-.17.24.4.4 0 0 0 0 .3l4.35 9.64a.45.45 0 0 0 .2.21.59.59 0 0 0 .29.05 2.39 2.39 0 0 0 .4-.13l.39-.16.37-.19a2.54 2.54 0 0 0 .35-.2.44.44 0 0 0 .16-.26.41.41 0 0 0 0-.29ZM71.08 22.25a2.76 2.76 0 0 1 .28-2.25 3.68 3.68 0 0 1 2-1.59l.44-.14.44-.13.41-.13.42-.13a3.72 3.72 0 0 1 2.56.18 2.75 2.75 0 0 1 1.54 1.73l2.94 9.57a2.46 2.46 0 0 1-.29 2.25 4 4 0 0 1-2.1 1.39l-.42.14-.43.13-.42.13-.42.12a3.81 3.81 0 0 1-2.53-.13 2.47 2.47 0 0 1-1.5-1.56Zm5-2a.55.55 0 0 0-.18-.26.44.44 0 0 0-.3 0 1.26 1.26 0 0 0-.39.08l-.39.11-.39.12a1.76 1.76 0 0 0-.39.14.43.43 0 0 0-.2.22.44.44 0 0 0 0 .3L77 31.07a.42.42 0 0 0 .17.23.49.49 0 0 0 .28.09 1.82 1.82 0 0 0 .41-.08l.41-.1.39-.15a2 2 0 0 0 .37-.15.52.52 0 0 0 .2-.24.48.48 0 0 0 0-.29ZM91.85 30.12l-3.33-5.38 1.06 5.8-3.07.56-2.84-15.52 3.07-.58 1 5.18 1.45-5.62 3.04-.56-1.89 7.65 5.1 7.8ZM108.39 12.72l.18 13.28a.42.42 0 0 0 .11.29.62.62 0 0 0 .29.15 1.7 1.7 0 0 0 .4 0h.79a1.81 1.81 0 0 0 .39 0 .63.63 0 0 0 .26-.16.37.37 0 0 0 .1-.29l-.18-13.26h3.13L114 25.7a2.48 2.48 0 0 1-.92 2.07 4.06 4.06 0 0 1-2.47.82h-1.71a4.7 4.7 0 0 1-2.45-.67 2.35 2.35 0 0 1-1.07-2.1l-.18-13.08ZM123.89 29.13l-2.53-9.59-.88 9.26-2.62-.25 1.5-15.7 3.55.33 2.17 9.82.91-9.48 2.6.25-1.5 15.7ZM131 30.1l2.92-15.48 3.07.58-2.92 15.48ZM144.47 33.37l-4.25-1.23 1.92-15.87 2.91.84-1.21 10.5 4.56-9.53 2.95.85ZM150.2 35.28l6.19-14.48 6.8 2.9-.79 1.85-3.92-1.68-1.68 3.92 3.66 1.56-.75 1.75-3.65-1.56-2.2 5.13 3.95 1.69-.81 1.84ZM164.8 42.56a5.47 5.47 0 0 1 .45-.78c.18-.28.51-.8 1-1.57l.25-.41.25-.41 1-1.69.58-1a.71.71 0 0 0 .07-.59 1 1 0 0 0-.39-.53 7 7 0 0 1-.61-.36l-.63-.37-3.88 6.52-2.69-1.6 8.08-13.56 4.44 2.65a4.23 4.23 0 0 1 1.66 1.7 2.27 2.27 0 0 1-.21 2.28l-1 1.74a2.33 2.33 0 0 1-1.22 1 3.09 3.09 0 0 1-1.7.15 2.49 2.49 0 0 1 .71 1.52 2.62 2.62 0 0 1-.36 1.7l-1.44 2.43q-.82 1.38-1.17 1.92a3.37 3.37 0 0 0-.42.88Zm6.63-11.13a.78.78 0 0 0 .07-.62.88.88 0 0 0-.38-.54l-.61-.36-.62-.38-2.2 3.68.63.38.61.36a1.09 1.09 0 0 0 .66.08.77.77 0 0 0 .5-.36ZM176.25 43.32l-2 2.44a.49.49 0 0 0-.14.33.52.52 0 0 0 .13.34 2.47 2.47 0 0 0 .28.29l.3.28.34.26a1.7 1.7 0 0 0 .33.22.46.46 0 0 0 .34.05.59.59 0 0 0 .29-.2l.78-.93a1.78 1.78 0 0 0 .23-1.46c-.11-.66-.18-1.21-.21-1.63-.09-2-.13-3.28-.12-4a2.65 2.65 0 0 1 .58-1.73l1.1-1.31a2.75 2.75 0 0 1 2.13-1 3.74 3.74 0 0 1 2.46.88l.32.27a3.36 3.36 0 0 1 .3.26l.31.25.29.25a3.3 3.3 0 0 1 1.19 2.08 2.52 2.52 0 0 1-.57 2.07L183 43.61l-2.2-1.85 1.94-2.3a.81.81 0 0 0 .15-.31.34.34 0 0 0 0-.3 1.68 1.68 0 0 0-.28-.29l-.32-.27-.32-.27a1.47 1.47 0 0 0-.31-.24.58.58 0 0 0-.72.27L180 39.2a1.51 1.51 0 0 0-.31 1.14c0 .45.08.89.11 1.34.11 1.89.21 3.31.31 4.25a2.81 2.81 0 0 1-.52 2.2l-.86 1a2.81 2.81 0 0 1-2.16 1 3.75 3.75 0 0 1-2.51-.9l-.32-.27-.3-.25-.32-.27-.32-.27a3.69 3.69 0 0 1-1.27-2.17 2.54 2.54 0 0 1 .57-2.13l2-2.45ZM179.11 54.08 191 43.69l2 2.31-11.83 10.43ZM197.93 56.52l-11.7 7.19L184.6 61l11.7-7.18-1.22-2 1.73-1.07 4.07 6.63-1.73 1.07ZM199.65 72.58l-3.79-.13-5.4 1.61-.9-3 5.31-1.58a8.38 8.38 0 0 0 1.34-.77l1.9-1.23c.51-.32 1.31-.91 2.4-1.75a39.38 39.38 0 0 1 3.25-2.28l.85 2.86-5.38 3.69 6.61.4.8 2.7ZM189.66 123.78l-7.19-8.93c-1.14-1.43-2.33-1.64-3.91-.37l-11.56 9.3 1.42 1.76 11-8.82 7.48 9.3-1.81 1.46-5.87-7.3-2.64 2.12 5.88 7.3-2.06 1.65-5.87-7.3-2.73 2.2 5.87 7.3-2.29 1.85 1.45 1.81 15.25-12.28-1.48-1.83Z" style="fill:#004898"/><path d="M114.59 138.8H118v17.1h-3.43v-8.54H113v8.54h-3.24V154l-7.92.28a2.34 2.34 0 0 1-2.45-2.33V138.8h8.36v2.39h-4.79v10.74l6.75-.23v-12.9H113v6h1.61v-6ZM68.47 130.86l-.7 2.28 14 4.33-1.17 3.8-14.6-4.53-.66 2.1 7.19 2.23-.82 2.64-6.76-2.1-.66 2.13 14.27 4.44-1.14 3.66 3.55 1.1 1.27-4.08a1.66 1.66 0 0 0-1.14-2.23l-5.52-1.72.82-2.63 8 2.49.65-2.09-1.1-.34L85 139a2.56 2.56 0 0 0-1.69-3.52l-14.86-4.62ZM153.22 136.11l-1.14-4.06-3.47 1 2.8 10.06 3.48-1-1-3.76 2.53-.7-.63-2.24Zm-.1 7.41-15.23 4.25.62 2.23 13.88-3.87.93 3.33 3.49-1-1-3.53a2 2 0 0 0-2.69-1.41Zm-17.47-.52c.65 2.31 4.1 3.37 7.72 2.36s6-3.7 5.39-6c-.39-1.38-1.78-2.31-3.61-2.63l2.84-.79-.61-2.12-4.56 1.27-.33-1.17-3.78 1.08.32 1.16-4.92 1.38.62 2.12 2.65-.74c-1.38 1.2-2.11 2.72-1.73 4.08Zm5.89-4.22c1.71-.48 3.37.16 3.72 1.42s-.75 2.65-2.45 3.13-3.38-.16-3.72-1.41.74-2.65 2.45-3.13Z" style="fill:#004898;fill-rule:evenodd"/><path d="m41.88 131.73-6.1-5.35 2.42-2.76-2.85-2.49-2.35 2.7c-1.18 1.35-1 2.32-.23 3l12 10.47 1.53-1.76-4.35-3.81Zm10.46-3.16 3.66-4.14-2.69-2.36-4.4 5-8.94-7.19 3.14-3.59 6.26 5.49 1.57-1.8-8.94-7.81-4.91 5.59a1.94 1.94 0 0 0 .16 2.86l10.12 8.22-2.19 2.5 2.69 2.36 2.92-3.34 2.06 1.82 1.58-1.8Z" style="fill:#004898"/><path d="M0 83.8c0 46.2 49.73 83.79 110.85 83.79S221.7 130 221.7 83.8 172 0 110.85 0 0 37.59 0 83.8Zm1.31 0c0-45.49 49.14-82.49 109.54-82.49s109.55 37 109.55 82.49-49.14 82.49-109.55 82.49S1.31 129.28 1.31 83.8Z" style="fill:#004898"/><path d="M3.93 83.8c0 44 48 79.86 106.92 79.86s106.92-35.82 106.92-79.86-48-79.87-106.92-79.87S3.93 39.76 3.93 83.8Zm2.73 0c0-42.54 46.74-77.14 104.19-77.14s104.2 34.6 104.2 77.14-46.74 77.14-104.2 77.14S6.66 126.33 6.66 83.8Z" style="fill:#004898"/><path d="M3.93 83.8c0 44 48 79.86 106.92 79.86s106.92-35.82 106.92-79.86-48-79.87-106.92-79.87S3.93 39.76 3.93 83.8Zm2.73 0c0-42.54 46.74-77.14 104.19-77.14s104.2 34.6 104.2 77.14-46.74 77.14-104.2 77.14S6.66 126.33 6.66 83.8Z" style="fill:#004898"/><path d="M202.88 99.09a2.57 2.57 0 1 1-2.57-2.56 2.57 2.57 0 0 1 2.57 2.56ZM18.83 99.09a2.57 2.57 0 1 0 2.56-2.56 2.57 2.57 0 0 0-2.56 2.56Z" style="fill:#004898"/></svg>