<svg xmlns="http://www.w3.org/2000/svg" width="607.54761pt" height="600pt" fill-rule="evenodd" viewBox="0 0 607.5476 600"><path d="M593.37 209.987c-10.995-33.756-44.092-102.4-84.948-120.127-21.131-9.147-37.057-4.432-53.662 7.26l-1.056-.848c6.054-18.953 5.309-35.36-9.881-52.615C414.403 10.277 338.913 0 303.319 0c-35.595 0-111.085 10.278-140.504 43.657-15.219 17.255-15.756 33.85-9.712 53.275l-.981.66c-16.143-11.598-31.861-16.03-52.982-6.978-40.848 17.727-73.963 86.277-84.948 120.222-11.004 33.85-24.563 108.812-1.904 147.095 11.73 19.801 27.344 25.459 47.664 25.647l.33 1.226c-16.02 11.786-25.204 25.459-23.026 48.372 4.158 44.317 59.187 97.026 87.993 117.864 28.806 20.933 95.885 57.046 139.335 47.334 22.45-5.091 32.653-18.198 39.15-37.433l1.272.094c6.252 18.858 16.417 31.776 38.84 36.774 43.44 9.712 110.566-26.308 139.353-47.24 28.806-20.933 83.825-73.548 88.002-117.865 2.16-22.913-7.166-36.68-23.45-48.749l.471-1.226c19.886-.094 35.294-5.846 47.014-25.553 22.696-38.282 9.118-113.338-1.867-147.189" style="fill:#006b3d;stroke:none;stroke-width:9.42916"/><path d="M588.202 353.31c-12.513 26.12-31.343 26.025-51.342 24.233l-1.49 4.338c17.256 10.278 33.116 21.31 27.882 49.786-7.119 38.66-79.176 59.592-108.001 80.525-28.778 20.933-70.926 82.977-109.925 77.696-28.684-3.771-34.445-21.687-38.915-41.205l-4.563-.095c-4.48 19.519-10.07 38.094-38.735 41.866-39 5.186-81.148-56.858-109.935-77.79-28.787-20.933-100.854-41.866-107.973-80.526-5.243-28.476 10.042-39.508 27.278-49.786l-1.348-4.431c-20 1.885-39.3 2.263-51.804-23.856C2.368 318.61 48.288 259.302 59.282 225.45c11.004-33.85 8.722-108.812 43.29-127.577 25.44-13.766 40.583-2.64 55.707 10.561l3.621-2.64c-7.864-18.481-14.21-36.68 6.732-56.67 28.505-27.061 99.092-1.602 134.668-1.602 35.614 0 106.2-25.459 134.695 1.603 20.943 19.99 15.19 37.905 7.29 56.386l3.733 2.735c15.134-13.201 30.503-24.893 55.962-11.127 34.586 18.764 32.22 93.726 43.223 127.577 10.995 33.85 56.98 93.16 39.999 128.614" style="fill:#fff;stroke:none;stroke-width:9.42916"/><path d="M303.979 60.252c-134.734 0-243.98 109.19-243.98 243.933C60 439.022 169.245 548.21 303.98 548.21c134.742 0 243.96-109.19 243.96-244.026 0-134.743-109.218-243.933-243.96-243.933m0 482.868c-131.943 0-238.888-106.927-238.888-238.935 0-131.914 106.945-238.841 238.888-238.841 131.942 0 238.916 106.927 238.916 238.84 0 132.009-106.974 238.936-238.916 238.936" style="fill:#006b3d;stroke:none;stroke-width:9.42916"/><path d="M303.903 66.004c-20.244 0-36.641 16.407-36.641 36.68 0 20.178 16.397 36.584 36.641 36.584 20.254 0 36.633-16.406 36.633-36.585 0-20.272-16.379-36.68-36.633-36.68m0 70.248c-18.575 0-33.615-14.992-33.615-33.568 0-18.575 15.04-33.662 33.615-33.662 18.566 0 33.643 15.087 33.643 33.662 0 18.576-15.077 33.568-33.643 33.568" style="fill:#006b3d;stroke:none;stroke-width:9.42916"/><path d="M331.342 105.324c.952-1.415 1.386-2.924 3.102-2.924l-.075-.094c-1.688 0-2.14-1.509-3.046-2.829-1.056-2.074-3.187-3.488-5.62-3.488-1.744 0-3.337.943-4.497 2.074h-13.314V84.579c1.094-1.225 1.97-2.734 1.97-4.431 0-2.452-1.395-4.526-3.413-5.564-1.339-.942-2.857-1.414-2.857-3.111l-.094-.094c0 1.791-1.594 2.168-2.961 3.111-2.018 1.132-3.423 3.206-3.423 5.658 0 1.791.896 3.394 2.065 4.526v13.39h-13.455c-1.141-1.038-2.697-1.887-4.375-1.887-2.48 0-4.573 1.32-5.639 3.3-.886 1.415-1.367 2.923-3.046 2.923l-.075.095c1.716 0 2.16 1.603 3.102 2.923 1.066 2.074 3.178 3.489 5.658 3.489 1.735 0 3.319-.943 4.479-2.075h13.351v13.295c-1.094 1.132-1.942 2.64-1.942 4.432 0 2.357 1.367 4.526 3.404 5.658 1.386.942 2.951 1.32 2.951 3.017h.094c0-1.697 1.528-2.169 2.848-3.112 2.027-1.037 3.404-3.206 3.404-5.563 0-1.792-.886-3.394-2.046-4.526v-13.2H321.3c1.16 1.036 2.706 1.885 4.403 1.885 2.47 0 4.583-1.32 5.64-3.394M304.318 469.29c-20.263 0-36.66 16.406-36.66 36.584 0 20.273 16.397 36.68 36.66 36.68 20.216 0 36.632-16.407 36.632-36.68 0-20.178-16.416-36.585-36.632-36.585m16.765 19.801c-9.288 0-16.765 7.544-16.765 16.784 0 9.335-7.505 16.879-16.784 16.879-9.288 0-16.85-7.544-16.85-16.879 0-18.575 15.05-33.567 33.634-33.567 18.557 0 33.625 14.992 33.625 33.567 0-9.24-7.591-16.784-16.86-16.784M146.653 140.966c.51-.566 1.518-1.32 2.96-2.358 1.453-1.037 2.311-1.414 2.584-1.131l.359 1.037.679 1.415 13.068 12.635-3.743 3.866zm8.354-8.958c.613-.66 1.66-1.414 3.13-2.452 1.51-.942 2.386-1.414 2.679-1.037l.358.849.915 2.074 13.964 13.578c1.056.943 1.5 2.263 1.349 3.96-.151 1.604-.972 3.206-2.49 4.81l-6.242-.943.934-.943 1.753-2.64-1.188-2.452zm-16.095 15.275 6.393.377-2.508 3.866c-.887 1.226-2.037 2.64-3.376 4.338l3.008 2.923 7.91-8.203 3.565 3.583-6.751 6.883c2.121-.472 4.3-.754 6.544-.943 1.763-.189 3.46-.189 5.082-.094l.415 4.243 3.281-2.169 1.65-.471.311.848.698 1.886 1.952 1.886 16.737-17.161 3.583 3.394-13.427 13.861c2.725-.188 6.044-.943 10.004-2.357 3.574-1.414 6.742-3.017 9.495-4.715l.047 6.13c-3.177 1.602-6.477 2.828-9.881 3.96-4.357 1.32-8.119 1.98-11.296 1.98l8.476 8.297-3.752 3.866-8.355-8.109a32.97 32.97 0 0 1-.98 10.655c-1.01 4.149-2.735 7.826-5.177 11.315h-6.28c2.716-3.489 4.705-7.166 6.007-10.75 1.3-3.676 1.744-6.788 1.254-9.523l-13.644 14.05-3.574-3.489 17.03-17.538-4.395-4.243c-3.489-.377-6.497-.283-9.061.188l7.336 7.166-3.753 3.866-6.968-6.789c.207 1.792.235 3.772.094 5.94-.151 2.547-.547 4.81-1.141 6.696l-5.526-.095a27.521 27.521 0 0 0 1.66-7.92c.207-2.923 0-5.375-.566-7.544l-7.486 7.732-3.574-3.488 8.675-8.958-2.546-2.452c-.142.095-.849.943-2.122 2.546-1.273 1.603-2.121 2.546-2.508 3.017l-5.77-1.32.593-.66a77.219 77.219 0 0 0 6.884-8.109c2.31-3.111 4.224-5.846 5.733-8.392M206.32 116.544l.783-.377c.255-.094 1.462-.471 3.593-1.131 1.47-.566 2.32-.566 2.555-.095l-.037 1.509.66 3.017 2.725 5.186c.716-.377 1.885-1.32 3.479-2.923a47.116 47.116 0 0 0 4.677-5.092l1.424-2.168.867-1.132c.189-.094 1.17.283 2.942 1.132 1.763.848 2.697 1.414 2.791 1.603l-.924 1.603-1.565 1.414c-2.546 2.829-4.78 5.092-6.714 6.695-2.772 2.357-4.224 3.583-4.394 3.771l5.62 10.75 1.792.66 1.263-.283 6.45-3.395c2.65-1.414 4.016-2.734 4.13-4.054a80.218 80.218 0 0 1-1.141-5.658c1.433.189 2.97.189 4.563.189l1.801-.094c1.48 3.488 1.424 6.506-.15 8.957-1.15 1.792-3.395 3.583-6.724 5.28l-5.43 2.924c-2.5 1.225-4.527 1.98-6.007 2.263-1.933.188-3.29-.472-4.083-1.98zm-11.616 5.186c.538-.188 1.952-.283 4.243-.094l2.244.754c-.386 1.415-.679 2.358-.82 3.018-.5 2.168-.603 3.394-.358 3.866l.631.377.736.471v.66l.264 1.226 11.654 22.253-5.252 2.734-9.74-18.575-.51 1.791a37.844 37.844 0 0 1-1.187 3.206l-.406 1.32-.961 1.886-5.083-1.131c1.198-2.735 2.254-6.035 3.15-9.712 1.075-4.338 1.518-7.732 1.367-10.278l-.245-2.357.273-1.415m-6.299-14.898c1.896-1.037 3.414-1.791 4.574-2.263l2.197.094-.114.755.227 1.697 1.395 2.735 8.826-4.62-2.923-5.564 1.386-.754c1.367-.66 2.395-1.226 3.102-1.509h1.273l.311 1.226.255 1.131 1.5 2.923 14.822-7.826 2.593 4.998-9.533 4.62-5.431 2.829 1.98 3.771-4.903 2.64-2.009-3.865-8.825 4.62 2.187 4.149-5.026 2.64-2.178-4.149-14.342 7.543-2.432-4.714 14.115-7.355zM395.885 122.013c1.763-1.414 3.083-2.546 3.95-3.394l10.986 5.94a48.226 48.226 0 0 1-5.913 5.658c-2.451 2.074-4.601 3.583-6.44 4.526a48.632 48.632 0 0 0-3.507-5.092c-1.245-1.697-2.442-3.018-3.536-4.15 1.226-.942 2.715-2.073 4.46-3.488m8.486-16.124c-1.999 2.169-3.96 4.055-5.912 5.846l-16.02-8.674-2.556 4.62 14.512 7.92c-1.64 1.792-4.036 3.866-7.166 6.035-3.168 2.074-5.997 3.772-8.515 4.997l4.008 4.81 2.046-1.038 2.055-1.226c1.028 1.038 2.188 2.358 3.508 4.055 1.31 1.697 2.235 3.111 2.838 4.337-3.225 1.415-6.902 1.886-11.05 1.32-3.688-.565-7.384-1.791-11.061-3.866l1.414 7.355c4.31 1.603 8.684 2.452 13.135 2.357 3.941 0 7.619-.754 11.07-2.074 1.339 1.886 2.65 4.337 3.941 7.26 1.301 2.924 2.33 5.658 3.14 8.392l6.214-1.697c-2.527-6.412-5.262-11.975-8.222-16.69 2.574-1.508 4.912-3.111 6.996-4.808 2.951-2.452 5.422-4.998 7.402-7.732l11.136 6.129 2.574-4.715-25.968-14.144c3.8-3.111 7.044-6.317 9.722-9.806l-4.206-5.092c-1.386 1.98-3.074 3.96-5.035 6.13M470.8 147l.848.849 2.461 3.206.16 2.263-2.168 1.226-1.98 1.037-6.27 5.752 15.84 17.255-3.96 3.677-15.86-17.255c-3.885 4.243-6.148 10.56-6.817 18.67-.613 7.355.15 13.295 2.31 17.727l-7.289-.472c-1.075-4.054-1.509-9.052-1.301-14.992.198-6.412 1.179-11.598 2.914-15.275-3.96 1.697-9.062 2.357-15.38 1.98-5.912-.377-11.116-1.509-15.567-3.395l.377-7.449c5.11 3.206 11.174 4.903 18.227 4.998 7.826.094 14.011-1.886 18.575-6.13l-15.897-17.349 3.97-3.583 15.906 17.255z" style="fill:#006b3d;stroke:none;stroke-width:9.42916"/><path d="M108.22 416.392 93.614 385.37l41.988-19.707 14.417 30.55-5.025 2.358-11.759-24.893-12.842 6.034 10.815 23.008-5.026 2.357-10.824-23.007-14.022 6.6 11.928 25.365zM126.248 442.416l-4.29-4.997 27.345-39.414 4.431 5.092-23.007 31.21.085.094 35.416-16.69 4.45 5.186-21.866 32.53.104.094 34.284-18.104 4.489 5.28-43.167 20.933-4.3-4.997 22.3-33.096-.094-.094zM215.561 459.766l5.224 3.394-25.657 38.66-5.233-3.489 11.975-18.01-20.178-13.389-11.994 18.01-5.214-3.489 25.656-38.565 5.234 3.394-10.618 16.03 20.198 13.39zM219.616 492.108l14.587-16.124.132.093-1.349 21.499zm13.37 11.41-.858 14.237 6.356 2.64 1.923-49.314-6.581-2.734-33.662 36.396 5.987 2.452 9.561-10.655zM406.823 504.649l-6.261 3.583-34.85-33.38 6.44-3.771 27.24 27.816.113-.093-9.118-38.377 6.525-3.772 28.91 26.873.123-.093-10.797-37.434 6.591-3.771 11.74 46.768-6.252 3.678-29.438-27.345-.132.093zM446.66 469.1l4.583 5.093 5.516-4.904-4.582-5.091zM457.759 397.156l23.837 18.387c7.524 5.752 9.891 15.841 1.31 26.968-8.373 10.843-18.302 10.654-25.166 5.28l-24.525-18.858 4.215-5.47 23.139 17.822c7.977 6.223 14.304 2.451 18.066-2.357 3.885-4.998 6.12-12.258-1.858-18.387l-23.242-17.916ZM496.494 406.774l6.1 3.112 3.376-6.506-6.129-3.206z" style="fill:#006b3d;stroke:none;stroke-width:9.42917"/><path d="m164.048 1257.97.101.68-3.646.55.18 1.2-.512.08c-.184-.83-.315-1.16-1.188-1.24l-.075-.5zM161.491 1255.37c.011-.59.329-1.07 1.032-1.06.813.02.973.59.962 1.06-.014.9-.639 1.1-1.052 1.09-.48 0-.956-.36-.942-1.09m-1.392-1.61c-.605-.01-1.345.42-1.366 1.58-.024 1.24.86 1.59 1.399 1.6.488.01.847-.25 1.025-.69.213.56.613.89 1.249.91.251 0 .813.01 1.242-.51.333-.41.418-.96.422-1.25.023-1.22-.774-1.77-1.609-1.78-.393-.01-.973.13-1.279.82-.114-.23-.338-.67-1.083-.68m.83 1.61c-.008.48-.319.9-.815.9-.333-.01-.809-.19-.797-.88.014-.77.475-.96.793-.96.473.01.828.38.819.94M161.963 1251.25c.125-.57.529-.99 1.217-.84.795.18.841.77.742 1.23-.191.88-.84.95-1.246.87-.468-.11-.868-.54-.713-1.26m-1.055-1.85c-.592-.12-1.4.16-1.646 1.29-.26 1.21.537 1.73 1.065 1.84.477.1.879-.08 1.137-.47.104.58.431.99 1.052 1.12.245.05.794.17 1.319-.26.405-.33.592-.85.652-1.14.259-1.19-.417-1.89-1.235-2.06-.382-.08-.975-.06-1.412.56-.067-.24-.201-.72-.932-.88m.505 1.75c-.101.46-.489.82-.974.72-.325-.08-.759-.34-.611-1.02.159-.74.652-.85.964-.79.46.11.737.54.621 1.09M163.602 1248.56c-.564-.24-.901-.76-.618-1.42.321-.74 1.001-.71 1.422-.53.645.28.934.84.688 1.41-.302.7-.983.76-1.492.54m-.974-3.33c-.996-.36-1.633.29-1.87.84-.617 1.43.742 2.42 1.788 2.87.623.27 1.243.44 1.814.35a1.615 1.615 0 0 0 1.224-.93c.29-.67.23-1.04.062-1.41-.213-.48-.51-.76-1-.97-1.139-.49-1.906.25-2.157.84-.283.65-.101 1.12.092 1.38l-.018.01c-.503-.21-1.68-.96-1.276-1.9.224-.51.635-.6 1.089-.5zM200.335 1248.86l-.277-.64 3.391-1.46-.479-1.11.474-.21c.388.75.6 1.04 1.462.9l.201.46zM203.348 1250.74c-.101-.42-.124-1.06.843-1.29.678-.16 1.228.12 1.373.7.176.73-.257 1.15-.832 1.29-1.001.23-1.303-.37-1.384-.7m-.591.04c.115.47.45.92.884 1.01l-.011.02c-1.345.17-2.015-.06-2.185-.75-.123-.52.119-.9.622-1.06l-.154-.63c-.489.12-1.275.64-.987 1.83.42 1.74 2.748 1.27 3.288 1.14.821-.19 2.306-.72 1.917-2.33-.259-1.06-1.207-1.43-2.126-1.2-1.007.24-1.472 1.04-1.248 1.97" style="fill:#006b3d;stroke:none" transform="matrix(9.42916 0 0 9.42916 -1419.399 -11536.487)"/><path d="M521.132 298.433v.19l-22.196.942-.679-15.747zm-26.939 14.615 5.318-.19-.32-7.165 31.738-1.415-.198-4.997-32.021-21.121-5.978.283.895 21.31-11.909.565.274 6.13 11.9-.567z" style="fill:#006b3d;stroke:none;stroke-width:9.42917"/><path d="M204.542 1258.1c.133.24.24.58.169 1.04-.125.84-.84 1.6-1.899 1.44-.57-.08-1.767-.53-1.523-2.14.102-.67.503-1.49 1.67-1.44l-.103.67c-.606-.03-.937.38-1.026.95-.1.67.369 1.17 1.012 1.26.739.12 1.218-.33 1.313-.96.057-.37-.068-.74-.344-1.03l.114-.55 2.696.81-.406 2.66-.627-.1.331-2.18zM165.024 1255.76c0 9.78 7.963 17.74 17.747 17.74 9.786 0 17.747-7.96 17.747-17.74 0-9.79-7.961-17.75-17.747-17.75-9.784 0-17.747 7.96-17.747 17.75m.548 0c0-9.49 7.714-17.2 17.199-17.2 9.486 0 17.201 7.71 17.201 17.2 0 9.48-7.715 17.2-17.201 17.2-9.485 0-17.199-7.72-17.199-17.2" style="fill:#006b3d;stroke:none" transform="matrix(9.42916 0 0 9.42916 -1419.399 -11536.487)"/><path d="m181.332 1251.92.022-.09-.132-.12-.257-.05h-.193v1.38c0 .25.077.37.231.45.115.06.335.09.66.09h2.772c.21 0 .403-.03.586-.15.22-.16.377-.35.474-.66l-.425-.37c-.129.27-.265.41-.41.51-.147.09-.351.1-.62.1h-2.377l-.237-.02-.133-.08v-.13c.053 0 .278-.01.676-.04.396-.03.83-.06 1.3-.12.578-.07 1.005-.15 1.285-.23l-.186-.59c-.309.09-.812.17-1.505.26-.693.08-1.215.13-1.57.13v-.17l.039-.1M180.067 1258.09l.338.63c.314-.07.66-.2 1.04-.4.33-.16.545-.3.644-.4l-.288-.44h2.063l-.363.42c.324.26.607.46.851.6.213.12.43.22.649.28l.386-.61a4.013 4.013 0 0 1-.746-.32 3.989 3.989 0 0 1-.607-.37h1.551v-.55h-4.715v-2.56l.032-.2.027-.12-.105-.15-.275-.07h-.199v3.65h1.283a3.5 3.5 0 0 1-.647.34c-.319.14-.626.23-.919.27M182.776 1261.36c-2.157 0-3.725 1.76-3.914 3.91l-.638 7.14.67.17.475-5.64 1.837-2.3 1.563 1.96 1.562-1.96 1.855 2.32.473 5.61.672-.16-.639-7.14c-.191-2.15-1.756-3.91-3.916-3.91m-.007 4.33-.575-.72.575-.72.572.72zm1.567-1.95-.005.01-.007-.01-.618.78-.931-1.17-.006.01-.008-.01-.932 1.17-.618-.78-.005.01-.009-.01-1.739 2.18.057-.65c.153-1.79 1.464-3.26 3.261-3.26 1.799 0 3.109 1.47 3.266 3.26l.058.67zM193.626 1263.75c.026-.08.057-.18.088-.32h1.093v-.62h-2.412v-.31h1.826v-.62h-1.826v-.33h2.308v-.61h-1.534l.177-.36.143-.39-.587-.27c-.036.18-.083.35-.136.52-.054.18-.119.34-.202.5h-1.101l.291-.22a3.584 3.584 0 0 0-.229-.44 2.553 2.553 0 0 0-.271-.39l-.473.36c.194.24.336.47.427.69h-1.672v.61h2.29v.33h-1.808v.62h1.808v.31h-2.389v.62h1.101l.13.31.073.34h-1.406v.6h5.584v-.6h-1.43l.137-.33m-1.8.33h-.51a4.417 4.417 0 0 0-.09-.37l-.111-.28h.711zm1.213-.31-.134.31h-.51v-.65h.736l-.092.34" style="fill:#006b3d;stroke:none" transform="matrix(9.42916 0 0 9.42916 -1419.399 -11536.487)"/><path d="M374.99 409.32h5.346v-2.546h23.262v2.074h5.478v-17.443H374.99zm5.346-12.352h23.28v4.243h-23.28ZM290.4 312.671h31.692v-26.496h-31.691zm4.904-21.876h21.885v2.924h-21.885zm0 7.355h21.885v2.829h-21.885zm0 7.072h21.885v2.829h-21.885zM219.946 391.027h18.575v-6.034h-20.385v-4.243h21.922v-5.94h-21.922v-4.055h16.925v-6.035h-16.925v-3.866h21.159v-6.035h-12.956a40.546 40.546 0 0 0 2.103-4.714c.066-.283.358-1.226.895-3.017l-5.13-2.83a66.298 66.298 0 0 1-1.451 5.564c-.67 2.169-1.32 3.772-1.97 4.997h-11.231l2.876-2.64c-.622-1.32-1.32-2.734-2.15-4.148a37.954 37.954 0 0 0-2.536-3.772l-4.319 3.3 2.461 3.677 1.707 3.583h-15.775v6.035h21.055v3.866h-16.972v6.035h16.972v4.054H190.83v5.94h22.045v4.244h-20.452v6.034h18.66c-1.565 3.112-4.582 5.846-9.108 8.487-4.149 2.357-8.571 4.054-13.286 4.903l4.573 5.752c4.234-1.226 8.374-3.206 12.362-5.94 4.253-2.924 7.572-6.13 9.948-9.713 2.169 3.677 5.346 6.884 9.542 9.712 3.96 2.64 8.364 4.526 13.267 5.846l4.47-5.563a37.85 37.85 0 0 1-14.286-4.903c-4.516-2.64-7.402-5.469-8.618-8.58" style="fill:#006b3d;stroke:none;stroke-width:9.42917"/><path d="M466.943 300.696h-34.058l.141 13.2h-30.861v-13.2h-24.46v-15.84c6.893-1.227 12.24-2.547 15.351-3.678 17.33-6.695 21.65-13.673 21.65-13.673l-2.31-8.109s-17.605-1.603-19.613-2.545c-2.056-.85-19.915-11.41-22.263-14.05l-1.725-7.072h-5.997v-23.384c4.196-1.132 10.202-2.075 14.36-3.772 9.241-3.772 16.765-7.166 16.765-7.166l-2.32-7.543s-21.083-4.055-23.1-4.904c-2.028-.848-6.639-9.24-8.675-12.163-2.028-2.829-1.141-5.752-1.141-5.752l-3.772-3.206s-10.448 2.734-19.34 3.96c-12.427 1.698-31.55 1.415-31.55 1.415s-19.131.283-31.54-1.415c-8.93-1.226-19.367-3.96-19.367-3.96l-3.753 3.206s.877 2.923-1.15 5.752c-2.018 2.923-6.639 11.315-8.656 12.163-2.018.85-23.111 4.904-23.111 4.904l-2.31 7.543s7.496 3.394 16.755 7.166c2.923 1.226 9.231 2.829 15.247 3.772v23.384h-6.874l-1.725 7.072c-2.339 2.64-20.226 13.2-22.253 14.05-2.008.942-19.641 2.545-19.641 2.545l-2.291 8.11s4.318 6.977 21.65 13.672c3.101 1.131 8.42 2.451 15.303 3.677v15.841h-24.554v13.2h-30.852l.16-13.2h-34.01l-.02 6.035h27.732v13.295h43.044V306.73h30.644v13.295h29.627v-6.13h-23.422v-13.2h-10.363v-12.164h33.785v-8.957h.066v-35.077h4.903v15.464h4.932v-15.464h4.903v15.464h4.912v-15.464h4.904v15.464h4.922v-15.464h4.903v15.464h5.044v-15.464h4.903v15.464h4.922v-15.464h4.913v15.464h4.875l.047-15.464h4.903v35.077h-.104v8.957h33.69v12.164h-10.456v13.2h-23.234v6.13h29.438V306.73h30.626v13.295h43.091V306.73h27.77zm-66.928-34.888h4.893v5.846l-4.893 1.509zm-9.844-1.226 4.922 1.226v9.43l-4.922 1.602zm-9.826-6.129 4.913 3.112v16.407l-4.913 1.037zm.02-61.76 4.93.565v4.432l-4.93 1.037zm-9.826-1.132 4.913 1.037v8.203l-4.913 1.038zm-142.861 7.166-4.922-1.037v-4.432l4.922-.566zm9.816 3.112-4.904-1.038v-8.203l4.904-1.037zm-29.23 67.324-4.913-1.509v-5.846h4.912zm9.843 3.677-4.931-1.603v-9.429l4.931-1.226zm9.816 2.169-4.903-1.037v-16.407l4.903-3.112zm9.816.566h-4.903v-23.479l4.903-3.489zm4.677-72.322v-12.635l4.922-4.903v17.538zm5.167 72.322h-4.922v-35.077h4.922zM271.9 180.19h4.884v29.136h-4.884zm-9.826-1.791h4.904v30.456h-4.904zm-9.825 5.28 2.603-5.469h2.291v30.173h-4.894zm-.594 33.19h12.286v18.86h-12.286zm5.743 62.705h-4.922v-35.077h4.922zm9.825 0h-4.903v-35.077h4.903zm15.134-43.846H270.07v-18.858h12.287zm4.28-25.741h-4.922v-28.57h4.922zm4.904-28.57h4.893v28.57h-4.893zm9.221 54.311h-12.258v-18.858h12.258zm5.516-25.741h-4.912v-28.57h4.912zm5.318-28.57h4.922v28.57h-4.922zm7.62 54.311h-12.183v-18.858h12.182zm31.672-57.518h2.31l2.602 5.47v24.703h-4.912zm-9.807.19h4.904v30.456h-4.904zm-9.825 1.791h4.913v29.136h-4.913zm-9.825 1.226h4.913v28.57h-4.913zm16.19 54.312h-12.267v-18.858h12.267zm8.326 43.846h-4.884v-35.077h4.884zm9.844 0h-4.922v-35.077h4.922zm.264-43.846H343.77v-18.858h12.286zm4.667-46.014 4.904 4.903v12.635h-4.904zm4.875 89.86h-4.903v-35.077h4.903zm9.816 0h-4.884v-26.968l4.884 2.829zM295.7 425.255l-3.998-3.017s-3.602 5.092-4.8 12.163c-1.197 7.072 5.667 11.033 4.526 17.727-1.018 5.94-8.26 11.975-8.26 11.975l3.942 3.206c2.291-2.263 8.816-9.334 9.778-14.992 1.197-6.978-4.79-12.164-4.63-16.973.142-4.808 3.442-10.089 3.442-10.089M313.36 432.516c-.094-4.81 2.64-8.015 2.64-8.015l-3.95-2.546s-4.243 3.583-4.102 10.75c.142 4.997 11.73 9.9 11.938 19.14.122 6.13-4.187 13.861-4.187 13.861l4.62 1.886c1.575-3.111 4.81-11.41 4.545-16.595-.405-9.806-11.428-14.804-11.503-18.481" style="fill:#006b3d;stroke:none;stroke-width:9.42917"/><path d="m305.996 424.595-3.894-2.64s-4.988 4.809-4.988 11.975c0 7.072 8.647 9.712 8.647 16.501 0 6.035-6.054 14.71-6.054 14.71l4.177 2.546c1.396-2.17 7.327-11.693 7.327-17.916 0-7.166-8.034-11.126-8.684-15.841-.651-4.809 3.47-9.335 3.47-9.335" style="fill:#006b3d;stroke:none;stroke-width:9.42917"/></svg>