<svg xmlns="http://www.w3.org/2000/svg" width="68.860001mm" height="68.849998mm" viewBox="0 0 68.860001 68.849998"><path d="M8.155 24.153a.757.757 0 1 0 0-1.513.757.757 0 0 0 0 1.513zM24.034 5.514c.032.108.23.83.23.83.093.35.139.652.139.652l-4.062 1.81.293.657 2.4-1.075c.043.094.378.848.417.94l-1.735.777.297.65 3.616-1.618.576 1.281.775-.344-.866-1.933-1.881.839-.421-.938 2.602-1.165-.29-.651-.956.43a6.2 6.2 0 0 0-.237-1.13l-.325-1.054-4.518 2.025.295.65s3.53-1.582 3.651-1.633zM16.532 13.625c-.471.143-.984.486-1.566 1.056-.585.571-.943 1.077-1.095 1.546-.155.479-.104.858.152 1.121.258.264.634.322 1.122.174.467-.13.998-.483 1.571-1.044.57-.552.938-1.076 1.088-1.549.155-.48.102-.858-.152-1.122l-.004-.002c-.26-.26-.64-.318-1.116-.18m.434 1.418c-.128.29-.378.613-.72.952-.35.339-.677.577-.978.703-.28.117-.478.117-.588 0a.31.31 0 0 1-.086-.229.88.88 0 0 1 .102-.364c.13-.294.376-.616.726-.953.35-.342.68-.575.97-.698.282-.116.478-.116.593.003.115.114.108.313-.02.586zM13.556 13.855l.395.41L12 16.173l.493.505 4.53-4.42-.49-.503-1.97 1.915-.4-.41 1.432-1.395-.491-.508-2.84 2.772-.515-.536 2.785-2.714-.495-.505-3.376 3.299 1.502 1.54 1.391-1.358zM63.079 34.033c-1.102-.013-2.48.244-2.492 1.636-.02 1.293 1.263 1.667 2.455 1.679.999.012 2.453-.157 2.471-1.624.013-1.382-1.327-1.68-2.434-1.69m-.029 2.36c-.61-.007-1.766-.022-1.753-.717.004-.71 1.16-.698 1.768-.69.605.007 1.746.012 1.737.731-.008.7-1.152.68-1.752.676zM6.047 40.329c1.439-.147 2.356-1.08 2.208-2.57-.151-1.507-1.22-2.222-2.675-2.076-1.448.142-2.385 1.048-2.23 2.57.15 1.501 1.266 2.22 2.697 2.076m-1.951-2.152c-.096-.971.73-1.416 1.59-1.504.834-.084 1.728.218 1.82 1.16.097.945-.72 1.418-1.556 1.503-.855.084-1.755-.188-1.854-1.159zM9.67 48.189l-.663.352.48.89-1.096.591a2.983 2.983 0 0 1-.356-.522c-.48-.898-.123-1.774.733-2.229.86-.46 1.815-.276 2.34.705.18.338.33.797.36 1.202l.739-.324a4.873 4.873 0 0 0-.493-1.33c-.76-1.425-2.037-1.871-3.474-1.1-1.42.76-1.599 2.073-.867 3.43.242.45.584.865.946 1.245l2.264-1.21zM9.863 43.683 6.46 44.736l2.862-2.8-.35-1.127-4.556 1.415.274.874 3.423-1.066-2.878 2.818.347 1.117 4.548-1.413zM5.466 34.644c1.878.187 2.491-1.045 2.642-2.5l.13-1.298-4.742-.474-.13 1.3c-.143 1.452.216 2.785 2.1 2.972m-1.37-2.713.051-.532 3.245.323-.05.53c-.081.796-.748 1.504-1.776 1.4-1.04-.102-1.552-.928-1.47-1.721ZM62.453 38.19c-1.106-.178-2.236-.064-2.446 1.246-.17 1.062.422 1.672 1.439 1.836.872.136 1.518-.257 1.659-1.146.064-.398-.034-.71-.328-.985l.019-.012c.69.138 1.404.534 1.275 1.35-.05.319-.175.561-.32.796l.746.243a3.12 3.12 0 0 0 .324-.964c.24-1.521-1.09-2.164-2.368-2.364m-.02 1.614c-.069.451-.524.573-.981.5-.42-.067-.815-.322-.748-.757.08-.463.5-.591.945-.519.472.075.859.319.784.776zM12.581 52.538l-.59.469.64.785-.967.785a2.741 2.741 0 0 1-.448-.447c-.64-.791-.45-1.717.304-2.326.756-.613 1.732-.605 2.43.258.244.297.48.72.576 1.114l.665-.46a4.618 4.618 0 0 0-.728-1.213c-1.014-1.258-2.353-1.46-3.623-.434-1.247 1.015-1.177 2.335-.206 3.533.32.399.733.739 1.159 1.046l1.994-1.614zM54.919 15.636l.57.566c1.726-1.186 2.712-2.135 2.712-2.135l-3.59-3.513-.499.519 2.944 2.878s-.919.864-2.137 1.685z" style="fill:#92837b;fill-opacity:1;fill-rule:nonzero;stroke:none;stroke-width:.352778"/><path d="m55.802 17.465-1.722-1.689c.08-.079 1.485-1.519 1.485-1.519l-.59-.587-1.491 1.528-.575-.566 1.486-1.522-.59-.585-1.497 1.529-1.038-1.017-.495.509 4.526 4.428zM46.689 5.303l-2.02-.84-.251.608 2.016.843zM47.178 9.952s.591-1.408.632-1.51l.817.338.282-.677-.815-.337c.044-.102.658-1.573.658-1.573l-.757-.313-1.567 3.758zM60.486 30.53a3.02 3.02 0 0 0-.03 1.018c.216 1.528 1.678 1.743 2.957 1.56 1.11-.155 2.157-.6 1.973-1.91-.151-1.069-.897-1.474-1.92-1.327-.872.12-1.367.688-1.244 1.58.058.4.247.669.605.844l-.014.016c-.704.074-1.499-.096-1.615-.916-.05-.32 0-.586.067-.85l-.78-.014m3.261.263c.42-.059.876.065.936.505.066.463-.301.707-.746.772-.473.066-.916-.05-.98-.51-.062-.453.334-.702.79-.767zM60.422 24.153a.758.758 0 0 0 0-1.513.757.757 0 1 0 0 1.513zM47.182 6.543l-3.738-1.56-.257.61 3.741 1.565zM34.395 7.559v-.732c-.97.124-1.944.098-1.944.098V4.2h1.705l-.003-.725h-2.518v4.197s1.548.026 2.76-.114zM45.54 11.718l.779.324.77-1.841-4.342-1.817-.268.623 3.574 1.492zM35.494 5.868h.679v3.15l.8.002.008-6.259h-.808v2.343h-.68v-2.35h-.806v5.944l.807.002V5.868ZM44.146 8.548c.498.21.932.282 1.305.213.366-.075.611-.258.734-.544.115-.282.075-.583-.131-.896-.203-.303-.55-.558-1.063-.769-.487-.204-.92-.273-1.283-.211-.386.063-.633.237-.754.528a.803.803 0 0 0-.066.316c0 .19.074.394.214.597.214.31.565.568 1.044.766m-.38-1.337c.052-.122.155-.191.31-.208.174-.028.395.02.674.136.274.115.464.243.564.372.094.126.111.245.067.361-.053.124-.157.195-.316.223-.162.028-.388-.012-.663-.128-.272-.115-.46-.243-.565-.382-.096-.133-.12-.256-.07-.374z" style="fill:#92837b;fill-opacity:1;fill-rule:nonzero;stroke:none;stroke-width:.352778"/><path d="M34.434 0C15.446 0 0 15.445 0 34.43c0 18.983 15.446 34.429 34.434 34.429 18.984 0 34.428-15.446 34.428-34.43S53.418 0 34.434 0m0 67.556c-18.267 0-33.129-14.86-33.129-33.126 0-18.269 14.862-33.13 33.13-33.13C52.7 1.3 67.56 16.16 67.56 34.43c0 18.267-14.859 33.126-33.126 33.126z" style="fill:#92837b;fill-opacity:1;fill-rule:nonzero;stroke:none;stroke-width:.352778"/><path d="m18.248 55.301-1.783 2.096c-.526.62-1.067.858-1.625.385-.557-.472-.406-1.046.119-1.665l1.782-2.096-.732-.623-1.969 2.321c-.824.976-.617 1.845.317 2.635.931.792 1.824.858 2.646-.113l1.975-2.32zM48.278 59.804l-.004-.013c.501-.35.619-.935.361-1.432-.607-1.176-1.675-.587-2.587-.118l-.914.476 2.187 4.234.845-.441-.905-1.757.272-.14c.356-.187.532-.121.814.127l1.192 1.06.948-.486-1.536-1.305c-.18-.143-.434-.306-.673-.205m-1.08.138-.283.143-.589-1.142.28-.145c.422-.216.918-.419 1.185.092.274.526-.178.837-.593 1.052zM43.833 63.452l-.43-1.268 1.612-.541-.238-.712-1.61.542-.376-1.114 1.756-.592-.238-.71-2.668.897 1.527 4.514 2.678-.902-.242-.712zM55.977 51.1l-.57-.495-2.42 2.78.562.49.902-1.027 3.024 2.64.628-.72-3.027-2.636zM50.314 57.27c-.304-.424-.046-.787.217-.98a2.54 2.54 0 0 1 .904-.406l-.391-.685a3.6 3.6 0 0 0-1.021.53c-.681.494-1.116 1.298-.489 2.156.927 1.276 2.394-.254 2.927.477.259.346-.027.782-.32.995-.302.219-.675.349-1.043.397l.432.748c.45-.18.678-.262 1.098-.567.776-.569 1.211-1.375.596-2.221-.938-1.293-2.421.222-2.91-.445zM51.825 54.387l3.216 3.517.703-.647-3.219-3.514zM35.188 60.888l.196 4.761.957-.04-.2-4.758zM39.57 64.215h-.013l-1.824-3.49-1.013.17 2.41 4.432 1.154-.197.795-4.964-.936.155-.573 3.893zM55.194 32.665c-.971 0-1.768.792-1.768 1.766a1.765 1.765 0 1 0 3.532 0c0-.974-.793-1.766-1.764-1.766zM34.434 18.604c-8.736 0-15.83 7.1-15.83 15.826 0 8.725 7.094 15.825 15.83 15.825 8.724 0 15.826-7.1 15.826-15.825 0-8.726-7.102-15.826-15.826-15.826m0 30.877c-8.308 0-15.057-6.75-15.057-15.051 0-8.305 6.749-15.055 15.057-15.055 8.295 0 15.05 6.75 15.05 15.055 0 8.3-6.755 15.05-15.05 15.05z" style="fill:#92837b;fill-opacity:1;fill-rule:nonzero;stroke:none;stroke-width:.352778"/><path d="M34.436 21.092c-7.356 0-13.345 5.983-13.345 13.338 0 7.355 5.989 13.336 13.345 13.336 7.352 0 13.334-5.981 13.334-13.336s-5.982-13.338-13.334-13.338m0 25.908c-6.938 0-12.575-5.635-12.575-12.57 0-6.933 5.637-12.573 12.575-12.573 6.932 0 12.57 5.64 12.57 12.573 0 6.935-5.638 12.57-12.57 12.57z" style="fill:#92837b;fill-opacity:1;fill-rule:nonzero;stroke:none;stroke-width:.352778"/><path d="M34.436 23.585c-5.983 0-10.854 4.865-10.854 10.845s4.871 10.845 10.854 10.845c5.976 0 10.845-4.865 10.845-10.845s-4.869-10.845-10.845-10.845m.4.788c1.909.075 3.685.682 5.18 1.68h-5.18v-1.68m0 4.246h3.874c.086 0 .712.217.712.962h-4.585v-.962m0 1.773h4.589c0 .783-.642.96-.716.96h-3.873v-.96m-.808-6.02v1.68H28.85a10.024 10.024 0 0 1 5.178-1.68m-5.372 14.181v4.115a10.044 10.044 0 0 1-.84-15.82h6.212v.963h-4.02s-1.444.082-1.444 2.206c0 2.12 1.445 2.137 1.445 2.137h4.019v.963h-3.634c-.523.025-.932.198-1.256.535-.482.502-.482 1.156-.482 1.226v1.357c0 .228.19.417.423.417a.416.416 0 0 0 .413-.417V34.83c0-.044.009-.388.254-.634.186-.193.42-.274.77-.28h3.512v2.874h-3.634c-.523.025-.932.198-1.256.533-.482.504-.482 1.158-.482 1.229m.785-8.972c0-.745.626-.962.712-.962h3.875v.962h-4.587m4.587.81v.96h-3.875c-.075 0-.716-.176-.716-.96h4.59m-2.344 13.721a10.033 10.033 0 0 1-2.191-.913v-4.695c0-.043.009-.386.254-.632.186-.194.42-.275.77-.28h1.167v6.52m4.681.198c-.625.12-1.27.187-1.93.187-.663 0-1.31-.067-1.937-.188v-6.717h3.867v6.718M39.37 43.2a9.873 9.873 0 0 1-2.191.915v-6.522h1.17c.346.005.578.086.767.28.244.246.254.589.254.632V43.2m.838-.528v-4.118c0-.07 0-.725-.484-1.229-.326-.335-.735-.508-1.257-.533h-3.63v-2.874h3.512c.346.006.578.087.767.28.244.246.254.59.254.634v1.404c0 .228.184.417.414.417a.423.423 0 0 0 .424-.417v-1.357c0-.07 0-.724-.484-1.226-.326-.337-.735-.51-1.257-.535h-3.63v-.963h4.017s1.444-.017 1.444-2.137c0-2.124-1.444-2.206-1.444-2.206h-4.017v-.962h6.21a10.045 10.045 0 0 1 3.454 7.58c0 3.408-1.701 6.418-4.293 8.242z" style="fill:#92837b;fill-opacity:1;fill-rule:nonzero;stroke:none;stroke-width:.352778"/><path d="M58.467 34.43c0-13.25-10.783-24.036-24.035-24.036-13.258 0-24.037 10.785-24.037 24.036 0 13.25 10.779 24.035 24.037 24.035 13.252 0 24.035-10.786 24.035-24.035M34.432 57.81c-12.897 0-23.387-10.49-23.387-23.38 0-12.896 10.49-23.385 23.387-23.385 12.895 0 23.382 10.489 23.382 23.385 0 12.89-10.487 23.38-23.382 23.38zM59.225 43.078l.643 1.666.74-.263-.384-.969 3.506 1.123.29-.91-4.536-1.454zM32.97 64.429l-1.513-3.709-1.17-.102-.415 4.748.915.08.311-3.575 1.518 3.735 1.164.1.414-4.745-.912-.079z" style="fill:#92837b;fill-opacity:1;fill-rule:nonzero;stroke:none;stroke-width:.352778"/><path d="M49.112 21.515A1.764 1.764 0 1 0 47.87 18.5a1.754 1.754 0 0 0 0 2.498c.33.333.77.516 1.242.516zM34.434 15.433c.968 0 1.765-.791 1.765-1.763a1.77 1.77 0 0 0-1.765-1.764 1.77 1.77 0 0 0-1.77 1.764c0 .972.794 1.763 1.77 1.763zM27.686 62.845c-.216.786-.608 1.228-1.31 1.036-.705-.195-.813-.775-.604-1.559l.737-2.652-.922-.257-.81 2.937c-.335 1.232.219 1.93 1.395 2.251 1.182.329 2.02.013 2.358-1.217l.81-2.935-.923-.257zM22.137 57.833l-2.518.911 1.03-1.773-.828-.48-2.385 4.127.826.479 1.106-1.917.014.008.374 2.772 1.081.626-.507-3.202 2.822-.961-1.015-.59zM18.506 21.002A1.767 1.767 0 0 0 21 18.501a1.778 1.778 0 0 0-2.5.001 1.76 1.76 0 0 0-.513 1.245c0 .476.183.918.514 1.252l.004.003z" style="fill:#92837b;fill-opacity:1;fill-rule:nonzero;stroke:none;stroke-width:.352778"/><path d="M34.434 16.14c-10.088 0-18.292 8.207-18.292 18.29 0 10.084 8.204 18.292 18.292 18.292 10.087 0 18.288-8.208 18.288-18.292 0-10.083-8.201-18.29-18.288-18.29m0 35.811c-9.667 0-17.528-7.858-17.528-17.521 0-9.665 7.861-17.524 17.528-17.524 9.657 0 17.52 7.86 17.52 17.524 0 9.663-7.863 17.521-17.52 17.521zM13.67 32.665a1.767 1.767 0 0 0 0 3.534c.976 0 1.772-.788 1.772-1.768 0-.974-.796-1.766-1.771-1.766zM57.813 46.792l-.527.862 1.097 2.027-2.296-.099-.59.955 3.368.037 1.601.992.501-.814-1.601-.992z" style="fill:#92837b;fill-opacity:1;fill-rule:nonzero;stroke:none;stroke-width:.352778"/><path d="M47.87 47.865a1.756 1.756 0 0 0 0 2.492 1.767 1.767 0 0 0 2.491 0c.335-.33.519-.774.519-1.248a1.73 1.73 0 0 0-.519-1.244 1.753 1.753 0 0 0-2.491 0zM18.506 47.861l-.004.004c-.33.328-.514.772-.514 1.245 0 .473.184.917.514 1.248a1.777 1.777 0 0 0 2.499 0 1.761 1.761 0 0 0 0-2.496 1.763 1.763 0 0 0-2.495 0zM34.434 53.426a1.77 1.77 0 0 0-1.77 1.763 1.77 1.77 0 0 0 1.77 1.764A1.77 1.77 0 0 0 36.2 55.19a1.77 1.77 0 0 0-1.765-1.763z" style="fill:#92837b;fill-opacity:1;fill-rule:nonzero;stroke:none;stroke-width:.352778"/></svg>