<svg xmlns="http://www.w3.org/2000/svg" xml:space="preserve" width="900.04688" height="900.00006" viewBox="0 0 900.04687 900.00006"><path d="M220.197 686.563c-181.882 0-329.84-148.006-329.84-329.938 0-181.889 147.958-329.854 329.84-329.854 181.952 0 329.982 147.965 329.982 329.854 0 181.932-148.03 329.938-329.982 329.938zm0-10.461c176.214 0 319.554-143.32 319.554-319.477 0-176.128-143.34-319.418-319.554-319.418-176.114 0-319.368 143.29-319.368 319.418 0 176.157 143.254 319.477 319.368 319.477zm0-2.855c-174.523 0-316.528-142.042-316.528-316.622 0-174.551 142.005-316.563 316.528-316.563 174.637 0 316.699 142.012 316.699 316.563 0 174.58-142.062 316.622-316.7 316.622zm15.754-16.786c.171 0 .229-.235.214-.511 0-.392-.298-1.065-.497-2.636-.058-.568-.213-3.04-.34-3.714-.059-.285-.186-.619-.414-.619-.34.007-.44.291-.44.746.015.398-.03 1.35-.298 2.032-.37.916-.923 1.598-3.963 1.99-.952.127-7.09.29-7.715.296-.227.015-.34-.155-.34-.553l-.284-15.548c0-.39.044-.568.327-.568.739-.015 7.67-.143 8.963-.052 1.35.093 2.145.185 2.67.746.384.44.625.718.853.71.17 0 .286-.113.271-.454-.014-.334-.313-1.287-.511-3.14a77.009 77.009 0 0 1-.286-3.608c0-.448-.014-1.073-.411-1.058-.285 0-.383.227-.383.511.015.561.015 1.129-.199 1.868-.199.788-.697 1.754-2.899 2.017-1.52.199-7.088.405-8.04.426-.285 0-.397-.163-.397-.384l-.102-4.964c-.029-1.91-.198-8.446-.17-9.633.1-3.893.938-4.637 6.465-4.737 1.463-.022 3.935-.065 5.413.526 1.477.596 2.172 1.71 2.598 4.012.128.618.242.84.526.84.341-.015.341-.455.327-.853-.015-.455-.525-4.276-.824-5.455-.425-1.456-.88-1.442-3.068-1.406-8.51.149-12.289.553-13.922.581-.285.007-3.822-.106-5.527-.072-.61.007-.879.128-.879.462 0 .177.113.341.454.334.511-.007 1.18.092 1.69.192 1.137.213 1.435 1.44 1.69 3.067.327 2.365.398 6.82.497 12.226l.172 9.915v.003c.156 8.794.184 10.37.113 12.174-.085 1.911-.512 2.835-2.373 3.254-.455.113-1.405.2-1.916.206-.213.007-.441.121-.441.342.014.34.297.454.908.433 2.543-.043 6.081-.278 6.365-.278.384 0 11.606-.206 12.9-.17 1.078.036 1.988.135 2.428.234.284.051.512.277.795.27zm-38.954-.25c.36.01.567-.075.599-.283.043-.284-.171-.425-.611-.49-.383-.065-1.621-.248-2.572-1.072-.654-.61-1.35-1.684-2.287-5.697-.383-1.648-2.159-8.757-3.977-16.03-2.188-8.645-3.794-15.053-4.674-17.966-1.066-3.579-1.15-4.502-1.719-4.58-.654-.107-1.051.632-2.515 3.146l-18.753 32.127c-1.69 2.94-2.614 3.432-4.66 3.687-.866.1-1.817-.037-2.144-.086-.326-.051-.469.1-.511.327-.044.326.51.47 1.391.597 2.685.405 5.882.71 6.55.818.553.077 3.04.617 5.156.937.995.15 1.52.113 1.563-.171.044-.27-.099-.412-.497-.47-.61-.091-1.605-.296-2.074-.588-.569-.376-.625-.846-.553-1.229.1-.724 1.021-2.352 2.187-4.405l14.959-26.934c2.116 7.955 6.69 28.518 7.316 32.716.142.874.256 1.691.185 2.188-.073.455-.327.981-.924 1.18-.696.12-1.534-.007-2.145-.1-.341-.044-.625-.029-.668.242-.044.334.27.497 1.166.633 2.23.333 4.815.54 5.483.646.327.058 2.713.574 4.318.816.153.023.29.037.41.04zm61.91-2.195c.115-.005.247-.022.4-.048 2.486-.47 5.953-1.284 6.237-1.335.61-.113 4.844-.732 6.562-1.051 3.495-.654 7.145-1.684 9.689-4.333 1.193-1.25 3.125-4.426 2.4-8.247-.752-4.1-3.238-7.877-9.077-11.542 3.452-6.67 6.309-12.297 8.865-16.332 2.401-3.721 4.688-4.772 6.024-5.255 1.023-.363 1.79-.494 2.13-.567.27-.05.47-.257.426-.42-.057-.335-.412-.385-1.406-.2l-3.935.733c-3.097.582-4.433 1.121-5.726 2.159-2.145 1.718-3.579 4.8-5.966 9.539-1.747 3.48-3.665 7.686-4.503 9.326-.185.263-.326.404-.653.47l-6.79 1.385c-.284.043-.427-.1-.485-.377l-.24-1.328c-.994-5.32-1.805-9.696-1.975-12.069-.128-1.64-.014-2.925 1.606-3.451.753-.255 1.946-.598 2.443-.69.34-.064.412-.256.382-.42-.056-.27-.354-.382-.965-.276-3.054.568-6.507 1.383-6.79 1.441-.058.007-3.565.5-5.227.805-.611.12-.87.277-.812.61.03.17.172.314.513.248.496-.093 1.178-.1 1.703-.085 1.137.015 1.65 1.18 2.161 2.75.724 2.273 1.533 6.647 2.528 11.96l1.818 9.746c1.62 8.652 1.904 10.2 2.117 11.99.241 1.904-.028 2.877-1.79 3.601-.413.199-1.35.427-1.846.526-.228.035-.429.185-.385.412.043.251.222.34.567.325zm9.425-3.784a4.53 4.53 0 0 1-.601-.014.672.672 0 0 1-.568-.583l-3.381-18.113c-.057-.277.014-.518.256-.73.738-.662 3.211-1.528 5.654-1.976 1.336-.248 2.912-.383 4.347.27 2.187.973 4.19 3.694 4.986 7.906 1.279 6.918-1.591 11.756-7.53 12.864-1.246.233-2.413.357-3.163.376zM138.01 644.92a.36.36 0 0 0 .317-.27c.058-.22-.113-.397-.34-.455-.37-.113-.668-.27-1.294-.583-1.363-.718-1.52-1.761-1.051-3.672.426-1.762.881-3.267 3.467-11.67l2.912-9.49c1.59-5.164 2.883-9.425 3.85-11.606.638-1.513 1.32-2.592 3.011-2.316.782.121 2.003.377 2.486.526.327.1.482-.036.54-.184.072-.27-.143-.52-.74-.698-2.954-.909-6.406-1.79-6.676-1.875-.27-.077-3.607-1.285-5.226-1.775-.598-.192-.897-.164-.996.163-.044.163.015.356.328.455.496.15 1.107.455 1.561.703 1.009.555.91 1.82.653 3.453-.425 2.344-1.732 6.598-3.323 11.776l-2.898 9.476c-2.585 8.403-3.054 9.916-3.68 11.606-.68 1.797-1.491 2.55-2.77 2.45-.639-.014-1.349-.176-1.732-.29-.213-.072-.47-.029-.526.178-.1.334.127.525.723.703 1.777.547 5.23 1.42 5.485 1.506.284.085 3.622 1.292 5.241 1.783.291.092.515.13.678.106zm180.405-5.47c1.506-.031 3.12-.339 4.804-.944 2.06-.746 3.537-1.513 4.745-2.309.937-.568 1.336-.773 1.762-.93.426-.149.482-.298.397-.56-.1-.264-.938-1.933-2.23-5.548-.313-.846-.553-1.18-.81-1.081-.326.113-.283.398-.184.839.185.66.37 2.201.27 2.898-.114.703-.74 3.437-5.627 5.198-3.651 1.315-7.33.066-8.722-3.807-1.094-3.018-.27-5.363 3.252-11.237l1.067-1.705c4.489-7.174 4.787-10.995 3.268-15.243-.782-2.173-3.083-5.895-7.672-7.173-2.855-.775-5.952-.384-8.808.653-2.5.888-4.8 2.138-6.59 3.984-.611.632-.583.868-.073 2.296.952 2.656 1.918 4.701 2.288 5.525.255.568.455.796.725.703.326-.12.31-.299.155-.717-.17-.476-.44-1.223-.54-2.025-.625-4.205 2.345-6.946 5.91-8.23 5.087-1.827 8.893.937 10.115 4.332 1.307 3.65.54 6.328-2.67 11.726l-1.678 2.827c-3.963 6.635-4.048 10.378-2.755 13.987 1.534 4.256 5.082 6.638 9.6 6.542zm-213.52-5.245c.182.03.317-.014.402-.167.086-.2-.03-.448-.383-.633-.256-.12-.597-.304-1.137-.758-1.477-1.194-1.121-2.401.413-5.413l14.817-29.514c1.676-3.324 1.705-3.623 1.349-3.807-.397-.2-1.292.051-5.298 1.364-.81.227-11.793 3.948-20.017 6.981-9.022 3.332-17.9 6.792-20.43 7.786l12.843-23.747c2.188-4.07 3.353-5.127 4.916-4.837 1.08.228 2.216.74 2.67.967.242.128.44.107.554-.1.143-.305-.098-.554-.709-.86-2.855-1.448-4.945-2.315-5.4-2.55-.454-.226-2.485-1.442-4.744-2.592-.512-.249-.837-.354-1.008-.006-.113.206-.015.383.24.511.398.206 1.28.702 1.905 1.342 1.08.987.597 2.571-1.718 7.153l-14.535 28.832c-.994 1.96-1.12 2.592-.709 2.79.398.207 1.818-.468 2.557-.717 1.193-.476 12.785-4.772 24.732-9.148 7.672-2.813 16.253-6.173 18.71-7.018l-13.495 25.258c-1.69 3.247-2.6 4.178-4.376 3.787-1.008-.255-2.187-.789-2.585-.995-.355-.177-.483-.058-.583.15-.156.305.227.554.823.86 2.259 1.143 4.76 2.222 5.3 2.493.568.283 2.144 1.27 4.204 2.322.277.134.509.237.692.266zm245.53-8.235c.164-.006.377-.087.654-.229 1.648-.845 4.73-2.621 4.986-2.75.242-.127 3.481-1.604 4.987-2.378.54-.285.738-.511.596-.816-.114-.2-.355-.193-.568-.094-.34.178-.668.285-1.322.498-1.477.448-2.33-.2-3.323-1.904-.924-1.549-1.648-2.955-5.683-10.768l-4.532-8.816c-2.486-4.808-4.532-8.765-5.355-10.995-.597-1.534-.867-2.798.526-3.764.654-.462 1.704-1.13 2.159-1.364.298-.15.327-.355.242-.504-.128-.249-.456-.27-1.01.008-2.741 1.427-5.825 3.203-6.08 3.331-.256.127-3.48 1.598-4.987 2.379-.553.284-.752.512-.596.817.085.15.256.242.554.085.454-.227 1.108-.44 1.605-.568 1.108-.32 1.932.653 2.87 2.002 1.335 1.975 3.382 5.939 5.853 10.74l4.546 8.816c4.02 7.813 4.744 9.22 5.47 10.875.78 1.754.724 2.856-.257 3.68-.469.433-1.094.816-1.448 1.008-.2.1-.342.298-.242.498.078.152.192.22.356.214zm29.277-14.942a.151.151 0 0 0 .088-.019c.313-.234.453-1.023 1.619-1.996 1.235-1.087 2.912-2.422 3.466-2.82l17.204-12.28c2.926-2.089 4.504-2.515 4.859-2.779.228-.163.043-.439-.157-.709-.995-1.378-3.38-4.453-3.75-4.95-.298-.412-.553-.498-.738-.37-.242.164-.228.37.185 1.044l.312.532c.81 1.513.497 3.325-3.835 6.557l-5.712 4.219-13.851-19.405c-3.14-4.404-5.726-8.02-6.876-10.115-.81-1.428-1.265-2.636-.015-3.794.582-.554 1.52-1.37 1.932-1.661.284-.192.27-.398.17-.54-.17-.227-.496-.2-.993.162-2.53 1.797-5.315 4-5.542 4.163-.227.163-3.224 2.089-4.587 3.069-.512.362-.669.618-.484.895.1.135.299.206.568.015.413-.3 1.023-.599 1.506-.797 1.051-.477 2.004.37 3.126 1.57 1.606 1.762 4.19 5.377 7.33 9.788l13.865 19.4-6.861 4.758c-2.87 1.975-4.205 2.443-5.725 1.868-1.065-.419-1.421-.647-1.79-.867-.398-.263-.597-.262-.782-.135-.142.1-.141.306.059.583.326.455 4.062 3.743 4.418 4.042.248.186.747.562.991.572zm-331.236-8.036c.16.037.284-.007.39-.139.143-.17.03-.404-.141-.546a4.992 4.992 0 0 1-.995-1.015c-.994-1.172-.753-2.202.397-3.808 1.051-1.478 2.032-2.706 7.559-9.546l3.78-4.696c3.82-4.731 7.541-10.427 6.547-16.365-.895-5.357-3.835-8.446-6.42-10.534-1.492-1.208-6.067-4.603-11.55-4.176-3.808.326-7.956 2.059-13.113 8.459l-5.17 6.4c-5.512 6.848-6.507 8.07-7.729 9.405-1.293 1.42-2.202 1.84-3.907.98-.411-.192-1.193-.752-1.59-1.065-.171-.142-.426-.198-.569-.022-.213.256-.058.525.426.916 1.975 1.59 4.746 3.616 5.143 3.936.398.32 2.926 2.57 4.247 3.636.47.39.767.476.98.213.142-.17.03-.404-.14-.546-.299-.249-.54-.498-.995-1.017-1.037-1.128-.754-2.201.397-3.807 1.037-1.477 2.032-2.706 7.558-9.546l4.944-6.138c5.1-6.321 8.694-7.905 12.032-8.182 3.779-.291 6.067.909 8.567 2.926 2.67 2.153 4.29 5.556 4.346 8.716 0 4.127-2.485 8.275-6.136 12.793l-4.418 5.49c-5.512 6.833-6.507 8.063-7.714 9.398-1.307 1.414-2.216 1.84-3.907.98-.426-.192-1.207-.753-1.605-1.08-.17-.134-.412-.184-.554-.014-.213.27-.073.532.412.916 1.974 1.598 4.489 3.41 4.759 3.622.313.242 2.259 2.039 3.565 3.104.25.196.444.315.604.352zm368.46-20.773c.146-.02.324-.121.524-.325.753-.76 3.595-3.885 3.794-4.091.284-.277 1.903-1.677 3.45-3.239.442-.44.399-.64.243-.803-.17-.155-.44.043-.966.248-.468.156-.91.121-1.236-.19-.469-.477-.753-1.151-1.037-2.075-.525-1.79-4.93-18.02-5.37-19.895 2.428.909 16.238 4.495 18.354 5.007 1.35.312 2.188.824 2.713 1.335.569.562.853 1.15.483 1.754-.227.483-.383.795-.184.995.156.162.484 0 .867-.405 1.037-1.037 2.187-2.437 2.5-2.757.24-.241 3.21-3.012 3.963-3.772.284-.283.44-.595.284-.758-.198-.199-.525-.114-.838.206-.44.44-1.35 1.043-2.386 1.285-1.279.326-2.188.292-4.148.107-2.913-.27-17.872-3.97-20.315-4.951-2.031-.825-3.268-2.054-4.59-3.36l-3.452-3.41a88.595 88.595 0 0 1-3.892-4.083c-1.08-1.229-1.605-2.458-.568-3.822.469-.646 1.265-1.59 1.62-1.96.241-.242.199-.442.073-.555-.2-.206-.512-.12-.952.32-2.173 2.21-4.546 4.844-4.745 5.05-.199.198-2.827 2.6-4.006 3.801-.44.44-.555.724-.314.965.114.114.314.157.556-.092.355-.356.909-.76 1.349-1.037.952-.647 2.187-.135 3.423.937 1.805 1.549 3.495 3.21 4.134 3.843l3.451 3.41c2.16 2.138 2.642 3.41 3.281 5.079.37.916 3.879 15.002 4.56 18.46.498 2.472.511 4.454.285 5.654-.2 1.001-.71 2.003-1.065 2.365-.199.2-.314.477-.13.676a.33.33 0 0 0 .15.079c.042.01.087.011.136.005zM-15.88 542.093a.303.303 0 0 0 .212-.055c.185-.121.198-.406-.03-.733a4.799 4.799 0 0 1-.597-1.214c-.71-1.768.199-2.642 2.997-4.518l27.42-18.425c3.096-2.066 3.266-2.316 3.053-2.65-.256-.369-1.15-.588-5.298-1.419-.81-.2-12.204-2.353-20.855-3.751a1221.55 1221.55 0 0 0-21.623-3.261l22.858-14.369h.002c3.906-2.471 5.442-2.813 6.663-1.797.824.73 1.564 1.726 1.848 2.152.156.234.34.312.525.192.285-.192.184-.54-.186-1.095-1.79-2.684-3.167-4.46-3.465-4.879-.271-.426-1.45-2.486-2.855-4.595-.313-.47-.554-.718-.88-.498-.186.12-.186.333-.03.568.255.369.766 1.243 1.008 2.102.44 1.392-.753 2.537-5.014 5.378l-26.837 17.978c-1.832 1.214-2.245 1.698-1.99 2.067.242.384 1.806.49 2.588.647 1.264.17 13.466 2.116 26.024 4.176 8.07 1.322 17.19 2.621 19.746 3.09l-24.164 15.37c-3.083 1.982-4.318 2.345-5.667 1.144-.753-.724-1.521-1.767-1.762-2.137-.228-.334-.399-.285-.583-.164-.285.192-.085.596.298 1.157 1.407 2.11 3.055 4.27 3.396 4.789.341.511 1.235 2.151 2.514 4.07.255.388.472.653.684.68zm473.553-30.612c2.642.09 5.233-1.43 7.098-4.468.838-1.35 1.321-2.45 1.648-3.444.27-.746.412-1.044.582-1.314.17-.277.142-.398-.044-.498-.156-.113-1.392-.68-3.75-2.137-.554-.341-.853-.42-.952-.249-.142.213.029.355.284.561.398.284 1.193 1.08 1.449 1.52.255.44 1.136 2.28-.838 5.476-1.478 2.394-4.12 3.353-6.664 1.783-1.974-1.215-2.556-2.918-3.224-7.827l-.155-1.45c-.71-6.087-2.26-8.388-5.045-10.1-1.42-.88-4.403-1.953-7.572-.604-1.975.853-3.551 2.466-4.702 4.34-1.008 1.634-1.746 3.38-1.93 5.235v-.001c-.058.64.057.76.994 1.343 1.747 1.066 3.21 1.782 3.793 2.087.398.206.624.242.724.074.128-.206.044-.314-.227-.484-.313-.192-.795-.49-1.222-.895-2.258-2.11-1.818-5-.369-7.323 2.046-3.338 5.455-3.495 7.672-2.124 2.4 1.485 3.167 3.339 3.792 7.849l.327 2.358c.753 5.548 2.386 7.708 4.76 9.164 1.158.715 2.37 1.088 3.57 1.128zm17.226-24.13c.148-.018.28-.174.43-.482.582-1.208 1.59-3.574 1.69-3.752.085-.191 1.321-2.45 1.862-3.545.185-.404.213-.624-.015-.73-.156-.073-.299.036-.356.184-.128.256-.283.462-.567.867-.653.895-1.42.881-2.742.334-1.222-.49-2.245-.988-7.97-3.772l-6.464-3.14h-.001c-3.523-1.711-6.422-3.112-7.87-4.05-1.01-.631-1.706-1.234-1.322-2.413.17-.547.483-1.394.653-1.727.1-.214.03-.34-.085-.397-.185-.085-.37.043-.583.446-.98 2.025-1.974 4.384-2.074 4.57-.099.184-1.32 2.441-1.86 3.543-.185.404-.213.625.014.732.1.051.256.036.356-.185.156-.34.454-.74.681-1.03.512-.668 1.408-.463 2.53-.093 1.634.568 4.546 1.975 8.068 3.687l6.463 3.146c5.725 2.77 6.75 3.275 7.886 3.915 1.221.688 1.661 1.349 1.448 2.244-.085.469-.27.958-.398 1.214-.073.15-.073.327.073.406a.281.281 0 0 0 .154.028zm-524.959-2.43a.38.38 0 0 0 .213-.034c.213-.093.227-.35.127-.555-.156-.355-.243-.69-.413-1.35-.355-1.513.342-2.309 2.09-3.21 1.604-.832 3.053-1.471 11.094-5.037l9.064-4.013c4.944-2.188 9.021-3.992 11.294-4.695 1.563-.504 2.826-.703 3.72.753a25.92 25.92 0 0 1 1.237 2.23c.142.313.341.342.484.278.255-.121.312-.447.058-1.016-1.264-2.827-2.856-6.002-2.969-6.265-.114-.248-1.392-3.572-2.074-5.113-.256-.57-.468-.776-.781-.648-.156.073-.27.242-.129.555.213.461.37 1.122.483 1.634.242 1.122-.767 1.881-2.173 2.748-2.06 1.214-6.123 3.018-11.067 5.213l-9.063 4.021c-8.04 3.552-9.49 4.197-11.18 4.822-1.79.668-2.899.541-3.652-.474a6.994 6.994 0 0 1-.923-1.506c-.085-.207-.285-.37-.498-.277-.312.142-.284.439-.044 1.008.753 1.697 2.345 4.88 2.458 5.143.114.249 1.393 3.558 2.09 5.114.18.42.353.646.554.675zM487.27 461.48c.176-.016.265-.089.303-.211.099-.306-.54-1.243-.796-1.761-.469-.795-4.773-8.638-9.177-16.735-2.827-5.2-6.137-10.99-7.003-12.651l19.519 6.975c2.514.881 3.267 1.435 3.181 2.735-.085.753-.34 1.647-.439 1.967-.085.263.013.335.17.399.227.078.37-.228.526-.69.582-1.74 1.08-3.636 1.221-4.062.142-.426.682-1.663 1.222-3.254.128-.426.198-.71-.044-.788-.156-.05-.326.066-.411.334-.073.199-.157.468-.427.894-.696 1.186-1.605 1.06-3.921.286l-22.715-7.487c-2.558-.845-2.77-.833-2.87-.563-.099.313.17.917 1.548 3.652.242.547 4.078 8.027 7.118 13.595a782.478 782.478 0 0 0 7.743 13.81l-18.384-6.685c-3.139-1.129-4.02-1.855-3.977-3.006.058-.795.298-1.662.412-2.017.073-.192.015-.333-.128-.382-.226-.078-.383.134-.553.596-.725 2.202-1.122 3.794-1.235 4.141-.114.349-.782 1.94-1.364 3.673-.128.398-.171.638.113.723.142.059.27-.036.327-.227.1-.313.37-.994.767-1.511.582-.875 1.775-.698 5.299.481l22.204 7.353c.94.31 1.477.441 1.77.416zM-22.4 447.13c.04.011.086.01.14-.005.326-.078.368-.618.212-1.264-.284-1.208-1.876-7.088-2.529-9.077-.412-1.229-.653-1.471-.923-1.4-.213.05-.298.192-.284.477 0 .283-.91.568-1.917.696l-28.91 4.176-.03-.164 25.245-20.28c2.13-1.732 2.586-2.016 2.458-2.513-.085-.384-.695-.52-2.912-1.087-3.04-.774-13.653-3.211-14.264-3.353-1.108-.249-15.726-3.217-17.36-3.459l-.043-.22 24.89-8.326c.867-.262 1.846-.496 2.77-.723.824-.2 1.676.227 2.044 1.015.455.88.697 1.69.783 2.017.043.22.213.412.369.377.398-.093.413-.455.256-1.108-.483-2.031-1.279-4.618-1.378-5.058-.128-.49-.597-3.168-.952-4.638-.128-.547-.326-.91-.724-.817-.156.036-.2.342-.144.618.115.434.214.816.242 1.683.1 1.883-1.988 2.565-4.02 3.283l-34.762 12.55c-.582.257-.923.512-.837.839.072.334.34.504 1.007.632l38.5 8.46-30.516 24.391c-.44.341-.781.647-.681 1.03.085.39.567.448 1.633.306l34.522-4.44h.001c2.032-.255 5.185-.604 6.52 1.563.881 1.47 1.221 2.891 1.35 3.438.054.208.123.348.244.38zm509.722-30.612c2.707.004 6.222-.638 9.354-2.875 2.813-2.025 5.314-5.37 6.323-11.571.27-1.613.525-3.894.483-5.925-.03-1.57-.058-2.905.073-4.205.044-.447-.114-.562-.341-.597-.327-.058-.838-.007-2.287-.17-1.35-.142-3.565-.504-4.176-.561-.611-.058-.867-.022-.91.227-.043.277.241.362.796.454 1.562.263 3.11 1.18 3.821 2.373.98 1.605 1.563 4.887.98 8.432-.88 5.355-2.87 7.592-4.475 8.771-3.31 2.479-7.003 2.565-11.11 1.89-7.684-1.264-13.764-8.346-12.343-16.962.511-3.019 1.263-5.334 3.181-6.67 1.023-.702 2.885-.937 3.623-.937.455-.007.64-.058.668-.306.044-.199-.227-.327-.554-.376-.284-.051-3.865-.135-5.3.036-.795.114-.895.178-1.336.853-.909 1.506-1.704 4.517-2.116 7.096-1.008 6.037-.184 10.349 2.146 14.006l-.003-.002c2.87 4.483 7.288 6.202 11.11 6.834.677.11 1.49.183 2.393.185zM-36.04 386.145c.285-.007.454-.284.44-1.243l-.028-2.877c-.014-1.577-.015-2.641-.142-3.892-.313-2.975-1.563-4.375-3.51-6.783-2.103-2.515-15.114-14.341-18.467-17.012v-.291l5.525-.051c5.413-.044 9.86-.086 12.232.17 1.633.156 2.883.483 3.111 2.173.127.789.256 1.683.256 2.195 0 .334.172.448.342.448.27-.007.44-.284.44-.91-.03-2.756-.228-6.023-.228-6.477-.014-.448.129-3.723.114-5.413 0-.618-.114-.895-.455-.895-.17 0-.341.12-.327.454 0 .512-.113 1.187-.212 1.698-.213 1.13-1.463 1.414-3.097 1.655-2.358.305-6.805.348-12.218.397l-9.916.092v.003c-8.793.079-10.37.093-12.174 0-1.918-.098-2.827-.539-3.239-2.393-.113-.455-.17-1.406-.184-1.918 0-.227-.114-.454-.342-.448-.34 0-.454.284-.44.903.03 2.542.214 5.86.228 6.2 0 .504-.142 3.779-.127 5.47.014.61.126.902.467.895.227-.007.326-.226.326-.454 0-.39.059-.74.157-1.414.27-1.52 1.222-1.968 3.196-2.11 1.804-.129 3.383-.15 12.176-.228l3.38-.029v.227c-1.065.966-11.336 11.26-13.524 13.313-1.605 1.59-3.069 3.067-4.02 3.074-.682.007-1.008-.27-1.193-.725-.114-.276-.227-.496-.454-.496-.285 0-.399.278-.399.682.03 1.123.214 2.87.214 4.212 0 .291-.129 4.013-.114 5.42 0 .617.113.845.397.845.284-.007.398-.114.398-.568-.014-.846.256-2.038.753-3.167.995-2.323 2.388-3.566 4.789-6.13 1.35-1.421 10.838-11.309 12.23-12.51 1.648 1.45 13.88 13.055 16.04 15.35 4.432 4.695 5.34 5.64 6.49 8.339.64 1.463.754 3.097.768 3.488 0 .39.114.73.341.73zm541.016-9.687c.255.007.341-.2.356-.646.058-1.833.029-4.411.029-4.61.014-.284.268-8.404.34-9.342.073-.774.17-1.428.256-1.747.044-.206.213-.363.227-.569 0-.113-.156-.162-.369-.17-.284-.014-.78.178-1.918.263-.411.036-2.216.052-2.7.121-.198.037-.453.106-.453.27-.015.241.184.334.51.341.285.015.981.073 1.464.292.64.305 1.122.73 1.292 2.94.058.696-.044 5.15-.058 5.597 0 .156-.142.24-.412.234l-11.265-.369c-.284-.007-.398-.059-.398-.264.03-.525.185-5.547.284-6.477.114-.973.227-1.54.639-1.896.34-.277.555-.434.555-.597 0-.121-.073-.205-.327-.213-.241-.014-.938.17-2.288.248-.824.058-2.329.092-2.613.085-.327-.015-.782-.029-.795.263 0 .199.156.285.369.292.397.014.809.028 1.334.205.569.185 1.251.577 1.35 2.175.1 1.1.06 5.142.03 5.83 0 .206-.142.286-.299.279l-3.595-.115c-1.377-.05-6.107-.155-6.974-.227-2.798-.213-3.31-.837-3.183-4.836.03-1.066.086-2.856.583-3.9.47-1.044 1.308-1.507 2.984-1.742.455-.072.624-.141.624-.354 0-.242-.312-.25-.61-.264-.327-.007-3.097.229-3.965.406-1.065.249-1.078.582-1.135 2.166-.185 6.166-.044 8.908-.073 10.08-.014.085-.073.78-.1 1.633-.058.817-.126 1.755-.155 2.366-.014.447.058.654.298.668.127 0 .256-.078.256-.32.014-.369.113-.853.212-1.222.185-.81 1.095-.987 2.288-1.108 1.705-.149 4.93-.044 8.85.085l7.174.22c6.365.206 7.501.248 8.808.369 1.393.128 2.017.477 2.272 1.834.073.327.087 1.015.074 1.384 0 .164.072.334.227.342zM-53.03 331.326c10.625-.015 19.945-6.78 22.034-18.476 2.727-15.194-7.956-23.633-17.928-25.423-8.993-1.612-22.872 2.656-25.615 17.956-2.23 12.48 3.978 23.214 16.892 25.53 1.553.278 3.099.415 4.617.413zm526.41-4.91c.213-.037.412-.291.37-.512-.114-.667-.37-3.423-.327-4.517.043-1.89.81-2.414 2.528-2.798 2.415-.554 7.204-1.328 12.772-2.216l9.731-1.549c3.011-.483 5.413-.81 8.467-1.293 1.108-.185 1.748-.17 1.89.718.17 1.065-1.223 5.27-1.663 6.776-.114.298-.142.475-.113.703.03.163.327.285.554.25.17-.023.368-.228.496-.477.17-.37 5.214-11.33 5.456-11.892.312-.56.526-1.043.455-1.434-.073-.447-.697-.461-1.25-.376-.455.078-5.91 1.229-14.434 2.593l-10.285 1.648c-5.569.88-10.357 1.647-12.843 1.76-1.761.059-2.629-.035-3.296-1.753-.312-.81-.853-3.12-.938-3.617-.029-.22-.283-.41-.511-.367-.284.036-.341.333-.227 1 .653 4.177 1.392 7.706 1.434 7.998.058.263.626 4.973 1.194 8.531.1.611.256.873.54.824zm-522.981-.022c-1.676 0-3.514-.163-5.531-.525-13.312-2.386-19.022-11.77-17.445-20.534 1.662-9.263 9.005-15.102 21.152-12.929 12.928 2.323 19.846 11.578 18.056 21.566-.784 4.369-4.503 12.415-16.232 12.422zm514.909-34.468a.697.697 0 0 0 .231-.03c.327-.093.525-.392.596-.768 1.577-7.423 8.027-18.432 20.699-22.268 9.446-2.855 15.499-.149 16.933 4.596 1.464 4.858-1.762 8.595-6.023 9.887-8.95 2.7-12.742-3.388-13.182-4.844-.768-2.535-.555-3.778-.327-4.61.113-.39.156-.632.113-.803-.059-.156-.298-.206-.454-.156-.17.058-.27.135-.384.348-1.194 2.068-1.165 5.064-.511 7.224 2.315 7.656 9.162 9.112 13.708 7.749 7.43-2.252 10.91-9.255 8.666-16.692-2.302-7.608-10.2-10.4-18.41-7.92h-.003c-15.158 4.58-20.84 19.483-22.133 27.062-.073.37-.03.711.044.932.054.16.22.283.436.293zm-502.626-15.347c8.833.19 17.101-4.61 20.926-14.056 5.81-14.312-2.913-24.767-12.317-28.574-8.453-3.431-22.915-2.11-28.754 12.301-4.759 11.749-.908 23.533 11.266 28.462 2.927 1.185 5.934 1.803 8.879 1.867zm4.472-4.15c-2.79.014-6.056-.602-9.856-2.142-12.53-5.078-16.18-15.435-12.842-23.682 3.537-8.722 11.933-12.926 23.369-8.288 12.175 4.93 17.047 15.42 13.226 24.81-1.428 3.532-5.525 9.258-13.897 9.302zm501.511-15.673a.55.55 0 0 0 .325-.057c.412-.191.696-.645.853-.972.213-.476 14.049-28.974 15.512-31.673.355-.675.568-1.151.397-1.506-.17-.355-.61-.334-1.107-.092-.767.362-4.802 2.364-7.601 3.707l-16.31 7.812-1.86-3.863c-.654-1.37-.341-2.151-.44-2.35-.114-.255-.468-.086-.725.042-.256.12-1.308.93-1.819 1.42-.383.505-.439.781-.14 1.385l2.244 4.682c-1.677.802-5.556 2.784-7.886 3.643-1.591.582-2.656.59-3.835-.838-.496-.64-1.037-1.633-1.278-2.145-.128-.248-.427-.362-.626-.256-.254.12-.226.42.03.981 1.35 2.8 3.054 5.973 3.225 6.328.17.355 1.335 3.175 2.67 5.967.27.554.497.768.753.647a.46.46 0 0 0 .213-.605 23.146 23.146 0 0 1-.993-2.456c-.555-1.804.34-2.672 1.79-3.553 2.145-1.271 6.107-3.046 7.784-3.85l8.026 16.772c.223.453.488.785.798.83zm.765-4.639-6.847-14.276 17.999-8.624.043.107c-.952 1.392-10.4 21.216-11.195 22.793zM-8.33 239.594c.21-.011.474-.24.858-.838l1.592-2.406c.866-1.315 1.448-2.21 2.03-3.304 1.42-2.65 1.152-4.517.882-7.593-.355-3.26-4.575-20.33-5.868-24.413l.142-.235 4.617 3.027c4.533 2.976 8.24 5.411 10.073 6.946 1.264 1.044 2.117 2.01 1.378 3.545-.34.724-.74 1.533-1.024 1.96-.185.277-.1.468.044.56.242.157.54.008.867-.503 1.52-2.309 3.168-5.136 3.424-5.512.241-.377 2.187-3.02 3.111-4.426.34-.518.396-.817.113-1.009-.143-.092-.341-.085-.526.192a8.684 8.684 0 0 1-1.108 1.293c-.81.817-2.003.37-3.495-.34-2.13-1.06-5.852-3.502-10.37-6.471l-8.296-5.45c-7.345-4.83-8.666-5.689-10.115-6.776-1.535-1.15-2.045-2.016-1.349-3.785.156-.44.624-1.279.908-1.698.128-.184.156-.44-.03-.56-.283-.185-.538-.015-.88.503-1.377 2.117-3.067 4.987-3.251 5.278-.285.42-2.217 3.061-3.141 4.468-.341.518-.411.823-.128 1.008.2.12.413-.014.526-.198.228-.327.454-.575.923-1.08 1.065-1.115 2.118-.973 3.837.02 1.562.895 2.882 1.77 10.227 6.593l2.827 1.854-.127.192c-1.42.206-15.684 3.04-18.639 3.53-2.23.42-4.262.838-5.058.32-.568-.384-.696-.795-.581-1.265.058-.298.085-.547-.1-.675-.242-.156-.483.023-.696.349-.625.945-1.45 2.493-2.188 3.622-.157.242-2.33 3.252-3.112 4.432-.34.518-.369.767-.127.917.227.163.384.127.625-.242.47-.71 1.35-1.549 2.401-2.216 2.117-1.364 3.978-1.633 7.387-2.422 1.904-.433 15.3-3.367 17.133-3.58.555 2.117 4.232 18.567 4.758 21.678 1.08 6.365 1.307 7.665.768 10.541-.285 1.563-1.094 2.998-1.307 3.318-.213.334-.312.681-.127.796.06.038.123.06.193.055zm448.066-19.83c3.258-.04 6.86-1.275 10.558-3.817 9.007-6.194 13.95-19.988 11.664-31.68-.114-.547-.228-1.008-.355-1.2-.128-.184-.398-.27-.668-.079-.37.256-.27.803-.242 1.456.795 8.211-2.172 19.897-13.182 27.47-5.427 3.736-13.27 5.567-16.935.226-2.556-3.715-1.605-8.68 3.51-12.196 6.45-4.44 12.629-2.529 14.575.306v.002c.824 1.207 1.577 2.479 1.79 3.892.058.178.128.59.227.738.1.136.27.085.511-.073.228-.163.27-.396.257-.801.014-1.379-.284-3.9-2.074-6.5-4.433-6.456-11.706-5.696-15.84-2.855-3.665 2.521-5.939 5.996-6.521 9.412-.597 3.616.043 6.733 2.4 10.17 2.518 3.656 6.136 5.58 10.325 5.529zM17.823 175.131c1.669-.068 3.24-.822 4.37-1.838 2.073-1.882 3.678-5.909.496-9.403-2.528-2.834-6.237-3.347-9.135-.754-2.912 2.585-3.465 6.67-.696 9.725 1.528 1.722 3.295 2.339 4.965 2.27zm401.026-2.398c1.669-.07 3.232-.825 4.34-1.819 2.131-1.875 3.709-5.896.54-9.447-2.5-2.813-6.308-3.303-9.149-.717-2.954 2.6-3.465 6.662-.709 9.695 1.534 1.744 3.308 2.358 4.978 2.288zm-360.147-7.331 44.422-30.89-11.053-15.884 4.575-3.182-3.565-5.143-23.653 16.465-5.27-7.572 19.902-13.844-12.403-17.829-7.614 5.3 8.821 12.686-39.237 27.297 3.567 5.143 19.348-13.46 5.257 7.572-21.623 15.043 3.58 5.136 40.531-28.2 7.515 10.82-36.624 25.47zm318.957-6.265 24.846-37.881 5.428 3.56 3.423-5.221-52.222-34.259-3.395 5.179 8.481 5.56-13.255 20.216 7.77 5.094 13.255-20.217 8.212 5.385-13.269 20.215 7.614 4.986 13.226-20.165 6.947 4.568-21.267 32.431-35.543-23.311-3.58 5.455zM117.202 128.58l36.78-12.353-8.864-26.408-36.765 12.351Zm205.847-2.663 1.92-6.152-7.004-2.187 14.887-47.762-8.865-2.771-4.603 14.796-43.101-13.432-1.86 5.99 43.086 13.43-10.327 33.115zm-199.07-6.352-4.802-14.298 19.179-6.442 4.802 14.298zm158.569-.482 1.648-5.292 14.704 4.582 1.89-6.066-5.882-1.84c3.381-1.619 5.937-4.29 7.017-7.743 2.4-7.714-3.48-16.4-13.14-19.412-9.674-3.019-19.463.781-21.864 8.502-1.065 3.452-.483 7.103 1.378 10.356l-5.781-1.803-1.905 6.072 14.719 4.582-1.648 5.298zm-118.636-6.187 8.795-2.955-17.674-52.627-49.608 16.671 6.464 19.257 8.808-2.962-4.475-13.305 32.007-10.753zm21.991-5.1h28.754v-6.606h-19.534V76.53h28.228v31.247h8.708V92.084h5.824v15.692h8.696V51.22h-8.696v34.244h-5.824V51.22h-8.708v18.916h-37.448zm98.62-1.572a9.618 9.618 0 0 1-2.756-.438c-4.873-1.528-7.643-6.577-6.18-11.272 1.478-4.724 6.62-7.296 11.493-5.776 4.901 1.527 7.657 6.564 6.179 11.288-1.177 3.809-4.792 6.24-8.735 6.198z" style="fill:#fff;fill-opacity:1;fill-rule:nonzero;stroke:none;stroke-width:7.27356" transform="matrix(1.33333 0 0 -1.33333 156.322 925.553)"/><path d="M293.596 194.447c-248.097 0-449.918 201.9-449.918 450.053 0 248.096 201.821 449.947 449.918 449.947 248.191 0 450.129-201.85 450.129-449.947 0-248.154-201.938-450.053-450.13-450.053zm0 10.135c242.603 0 439.976 197.343 439.976 439.918 0 242.518-197.373 439.805-439.976 439.805-242.51 0-439.785-197.287-439.785-439.805 0-242.575 197.275-439.918 439.785-439.918zm0 13.95c-234.82 0-425.825 191.092-425.825 425.968 0 234.837 191.006 425.89 425.825 425.89 234.951 0 426.072-191.053 426.072-425.89 0-234.876-191.12-425.969-426.072-425.969zm0 3.806c232.849 0 422.265 189.388 422.265 422.162 0 232.735-189.416 422.084-422.265 422.084-232.697 0-422.037-189.35-422.037-422.084 0-232.774 189.34-422.162 422.037-422.162zm21.006 22.38c-.379-.008-.682.292-1.061.36-.587.133-1.8.264-3.238.313-1.725.047-16.687-.227-17.2-.227-.378 0-5.095-.313-8.486-.371-.814-.028-1.191.123-1.21.578 0 .294.303.446.587.455.682.01 1.949.124 2.555.276 2.482.558 3.05 1.79 3.164 4.337.095 2.406.058 4.508-.15 16.233v.004l-.229 13.22c-.133 7.208-.227 13.148-.662 16.301-.342 2.169-.74 3.806-2.254 4.09-.682.133-1.572.265-2.254.256-.455-.01-.605.209-.605.445 0 .446.358.606 1.171.616 2.274.045 6.99-.105 7.37-.096 2.178.038 7.216.576 18.562.775 2.917.048 3.525.067 4.092-1.875.399-1.572 1.078-6.667 1.098-7.273.019-.53.019-1.118-.436-1.137-.38 0-.53.295-.701 1.12-.568 3.068-1.495 4.554-3.465 5.349-1.97.788-5.266.73-7.217.701-7.368-.133-8.486-1.126-8.619-6.316-.038-1.582.188-10.296.227-12.844l.134-6.62c0-.293.15-.51.53-.51 1.27.027 8.693.303 10.72.567 2.936.351 3.6 1.639 3.866 2.69.285.985.285 1.742.265 2.49 0 .38.13.682.51.682.53.02.549-.813.549-1.41.02-.53.21-3.305.38-4.811.265-2.471.663-3.742.682-4.187.02-.455-.134-.606-.361-.606-.304-.01-.626.36-1.137.947-.7.748-1.76.871-3.56.994-1.724.122-10.966-.049-11.951-.068-.378 0-.436-.237-.436-.758l.379-20.73c0-.53.15-.758.453-.738.834.009 9.018.225 10.287.396 4.053.52 4.79 1.43 5.283 2.652.36.91.418 2.179.399 2.71 0 .605.132.984.586.993.303 0 .473-.445.55-.824.171-.9.378-4.195.456-4.953.264-2.094.662-2.992.662-3.514.02-.368-.058-.681-.285-.681zm-51.94.335a4.71 4.71 0 0 0-.547.054c-2.14.322-5.322 1.01-5.758 1.088-.89.142-4.337.416-7.31.862-1.194.18-1.613.398-1.555.843.057.361.436.38.89.323.815-.124 1.932-.294 2.86-.133.796.265 1.136.966 1.233 1.572.094.663-.057 1.753-.246 2.918-.835 5.597-6.934 33.014-9.756 43.621l-19.946-35.912c-1.553-2.737-2.783-4.907-2.916-5.873-.095-.511-.02-1.137.739-1.639.624-.389 1.95-.662 2.765-.785.53-.075.72-.265.662-.625-.057-.379-.757-.427-2.084-.228-2.822.426-6.137 1.146-6.875 1.25-.89.142-5.153.55-8.732 1.09-1.175.17-1.914.361-1.856.796.057.303.247.504.682.436.436-.065 1.704-.248 2.86-.115 2.727.34 3.958.995 6.212 4.916l25.004 42.836c1.952 3.352 2.482 4.337 3.354 4.195.757-.104.87-1.335 2.29-6.107 1.175-3.884 3.316-12.427 6.233-23.954 2.425-9.698 4.792-19.177 5.303-21.375 1.25-5.35 2.177-6.78 3.049-7.595 1.268-1.1 2.918-1.343 3.43-1.43.586-.085.872-.274.814-.652-.043-.278-.32-.39-.799-.377zm82.547 2.926c-.46-.021-.698.098-.756.433-.058.303.21.502.514.549.662.133 1.91.436 2.46.701 2.35.966 2.71 2.263 2.387 4.8-.284 2.388-.663 4.453-2.822 15.99l-2.424 12.993c-1.326 7.085-2.405 12.917-3.37 15.948-.683 2.092-1.366 3.646-2.882 3.666-.7.019-1.609.01-2.271-.114-.455-.087-.645.103-.684.33-.077.446.268.654 1.082.815 2.216.407 6.893 1.062 6.97 1.072.378.078 4.982 1.165 9.054 1.922.814.142 1.211-.009 1.287-.37.039-.216-.057-.472-.51-.558-.663-.123-2.254-.58-3.258-.92-2.16-.7-2.311-2.414-2.14-4.601.227-3.164 1.307-8.999 2.633-16.092l.32-1.772c.077-.369.267-.559.646-.501l9.053 1.847c.436.087.625.275.871.625 1.117 2.188 3.675 7.795 6.004 12.436 3.183 6.317 5.095 10.427 7.955 12.718 1.725 1.383 3.505 2.103 7.635 2.88l5.246.976c1.326.246 1.8.18 1.875-.266.058-.218-.209-.493-.568-.56-.454-.097-1.477-.273-2.84-.756-1.78-.644-4.83-2.045-8.031-7.008-3.41-5.38-7.218-12.882-11.82-21.775 7.784-4.887 11.099-9.924 12.103-15.389.966-5.095-1.611-9.329-3.201-10.996-3.392-3.532-8.258-4.906-12.918-5.777-2.292-.426-7.936-1.251-8.75-1.403-.38-.068-5.002-1.153-8.317-1.779a4.307 4.307 0 0 0-.533-.064zm12.566 5.044c1.002.027 2.557.191 4.22.502 7.917 1.478 11.743 7.928 10.038 17.153-1.06 5.616-3.732 9.243-6.648 10.54-1.914.872-4.015.692-5.795.36-3.258-.596-6.555-1.751-7.54-2.633-.322-.284-.417-.605-.341-.974l4.508-24.15c.077-.446.359-.702.758-.778.194-.022.467-.028.8-.02zm-173.761 7.084c-.218-.032-.516.02-.905.143-2.158.654-6.609 2.263-6.988 2.377-.34.113-4.944 1.278-7.312 2.008-.796.237-1.098.492-.965.937.075.276.417.334.7.237.512-.152 1.459-.368 2.311-.387 1.704-.133 2.785.871 3.694 3.267.834 2.254 1.458 4.27 4.906 15.475l3.863 12.635c2.122 6.904 3.865 12.575 4.432 15.701.341 2.178.474 3.865-.871 4.604-.606.331-1.42.738-2.082.937-.417.133-.496.39-.438.607.133.436.532.473 1.328.217 2.16-.652 6.61-2.263 6.97-2.367.359-.113 4.961-1.288 8.902-2.5.795-.237 1.08-.57.984-.93-.076-.198-.283-.379-.719-.246-.644.2-2.273.54-3.314.701-2.254.369-3.164-1.07-4.016-3.087-1.289-2.908-3.012-8.59-5.133-15.475l-3.882-12.652c-3.448-11.205-4.055-13.212-4.624-15.561-.624-2.548-.416-3.94 1.403-4.896.834-.416 1.232-.626 1.724-.778.303-.076.531-.312.454-.605a.48.48 0 0 0-.422-.362zm240.539 7.293c-6.025-.128-10.755 3.047-12.801 8.723-1.723 4.811-1.61 9.803 3.674 18.648l2.236 3.77c4.28 7.198 5.303 10.767 3.56 15.635-1.629 4.527-6.704 8.211-13.486 5.777-4.754-1.714-8.714-5.368-7.88-10.974.132-1.07.492-2.065.72-2.7.208-.558.229-.796-.207-.957-.36-.123-.626.18-.967.938-.492 1.099-1.781 3.825-3.05 7.367-.68 1.904-.717 2.218.097 3.06 2.387 2.462 5.455 4.129 8.787 5.313 3.808 1.383 7.937 1.904 11.745.871 6.117-1.705 9.185-6.667 10.228-9.564 2.026-5.664 1.628-10.76-4.357-20.325l-1.422-2.273c-4.697-7.832-5.795-10.958-4.336-14.982 1.856-5.164 6.76-6.83 11.629-5.077 6.516 2.348 7.35 5.994 7.502 6.932.133.928-.113 2.983-.36 3.863-.132.588-.19.968.246 1.12.342.131.662-.314 1.078-1.442 1.725-4.82 2.842-7.045 2.975-7.396.114-.35.04-.55-.53-.748-.567-.209-1.099-.483-2.349-1.24-1.61-1.062-3.58-2.085-6.326-3.079-2.245-.807-4.398-1.217-6.406-1.26zm-284.694 6.995c-.244.039-.552.175-.922.355-2.746 1.401-4.848 2.717-5.605 3.096-.72.36-4.055 1.8-7.066 3.324-.796.407-1.307.74-1.098 1.146.133.277.304.436.777.2.53-.275 2.102-.986 3.448-1.327 2.367-.52 3.58.721 5.834 5.05l17.994 33.677c-3.277-1.127-14.719-5.607-24.948-9.357-15.929-5.835-31.385-11.563-32.976-12.198-.984-.331-2.878-1.232-3.408-.957-.55.265-.38 1.107.945 3.721l19.379 38.443c3.087 6.11 3.73 8.221 2.29 9.537-.832.853-2.008 1.515-2.538 1.79-.341.17-.472.407-.32.681.226.464.66.324 1.343-.008 3.012-1.534 5.72-3.154 6.326-3.457.607-.313 3.392-1.468 7.2-3.4.814-.408 1.135-.74.945-1.147-.151-.274-.416-.302-.738-.133-.606.304-2.122.986-3.56 1.29-2.085.387-3.638-1.023-6.556-6.45L99.482 306.61a1559.51 1559.51 0 0 0 27.239 10.381c10.966 4.044 25.61 9.006 26.69 9.309 5.34 1.75 6.534 2.084 7.064 1.818.474-.245.436-.644-1.8-5.076l-19.755-39.352c-2.045-4.016-2.52-5.625-.55-7.217.72-.606 1.173-.85 1.515-1.011.472-.247.626-.578.511-.844-.113-.204-.293-.262-.537-.223zm327.375 10.98c-.217-.008-.37.082-.474.285-.133.266.056.531.322.664.473.255 1.306.767 1.932 1.344 1.307 1.099 1.383 2.567.341 4.906-.966 2.207-1.932 4.083-7.292 14.5l-6.061 11.754c-3.295 6.403-6.024 11.687-7.805 14.32-1.25 1.8-2.349 3.096-3.826 2.67-.663-.17-1.534-.455-2.14-.757-.398-.209-.625-.086-.739.113-.208.407.057.71.795 1.09 2.009 1.041 6.307 3.002 6.649 3.172.34.17 4.452 2.538 8.107 4.44.739.37 1.175.342 1.346.01.113-.198.075-.472-.323-.67-.606-.313-2.007-1.203-2.878-1.82-1.857-1.287-1.498-2.974-.702-5.019 1.098-2.973 3.826-8.249 7.141-14.66l6.043-11.754c5.38-10.418 6.344-12.293 7.576-14.357 1.326-2.274 2.462-3.136 4.432-2.54.872.285 1.308.428 1.761.665.285.133.606.14.758-.125.19-.407-.074-.709-.795-1.088-2.007-1.032-6.326-3.001-6.648-3.172-.341-.17-4.45-2.54-6.649-3.666-.369-.19-.653-.296-.87-.305zm39.036 19.922c-.327.014-.992.515-1.323.764-.474.397-5.455 4.782-5.89 5.388-.267.37-.268.645-.078.778.246.17.512.17 1.043-.18.491-.294.965-.598 2.386-1.156 2.026-.768 3.806-.143 7.633 2.49l9.148 6.346-18.486 25.865c-4.187 5.88-7.633 10.702-9.773 13.05-1.497 1.6-2.767 2.73-4.168 2.094-.644-.264-1.458-.664-2.008-1.062-.36-.255-.625-.161-.758.02-.246.369-.037.71.645 1.193 1.818 1.307 5.813 3.874 6.117 4.091.302.219 4.016 3.155 7.388 5.551.664.483 1.098.52 1.325.217.133-.19.151-.465-.227-.72-.55-.389-1.8-1.477-2.576-2.215-1.666-1.544-1.06-3.155.02-5.06 1.534-2.793 4.982-7.613 9.167-13.485l18.47-25.873 7.614 5.625c5.778 4.31 6.194 6.725 5.114 8.742l-.416.709c-.55.9-.568 1.174-.246 1.392.246.171.586.057.984-.492.493-.663 3.673-4.764 5-6.601.266-.36.513-.729.209-.946-.473-.35-2.577-.92-6.479-3.705l-22.939-16.373c-.738-.53-2.973-2.31-4.621-3.76-1.554-1.297-1.741-2.35-2.158-2.662a.196.196 0 0 0-.117-.025zM64.62 316.012c-.213.05-.473.208-.805.468-1.741 1.421-4.336 3.817-4.753 4.14-.36.283-3.713 2.698-6.346 4.83-.646.51-.833.86-.549 1.22.19.227.511.16.738-.02.53-.435 1.573-1.183 2.14-1.439 2.255-1.145 3.467-.578 5.21 1.307 1.61 1.78 2.936 3.42 10.285 12.53l5.89 7.321c4.87 6.024 8.182 11.554 8.182 17.057-.075 4.214-2.234 8.751-5.795 11.62-3.333 2.691-6.383 4.291-11.422 3.903-4.45-.37-9.242-2.481-16.042-10.91l-6.592-8.183c-7.369-9.12-8.695-10.76-10.078-12.729-1.535-2.14-1.913-3.571-.53-5.076.606-.692.929-1.024 1.326-1.356.228-.189.377-.5.188-.728-.284-.35-.681-.236-1.307.285-1.76 1.42-5.132 4.422-5.662 4.848-.53.426-4.224 3.127-6.857 5.248-.646.52-.853.88-.569 1.22.19.236.53.16.758-.029.53-.417 1.572-1.164 2.121-1.42 2.274-1.146 3.486-.587 5.21 1.307 1.629 1.78 2.955 3.41 10.304 12.539v.002l6.895 8.533c6.875 8.533 12.405 10.844 17.482 11.28 7.311.568 13.411-3.96 15.4-5.569 3.447-2.784 7.367-6.903 8.56-14.045 1.327-7.917-3.634-15.513-8.73-21.82l-5.039-6.262c-7.368-9.12-8.676-10.758-10.078-12.728-1.534-2.14-1.855-3.514-.529-5.077.568-.739.91-1.021 1.326-1.353.23-.19.379-.502.19-.729-.142-.175-.309-.235-.522-.185zm491.28 27.697a.497.497 0 0 0-.182.006.44.44 0 0 0-.2.105c-.246.265-.092.635.172.9.474.484 1.155 1.82 1.42 3.155.303 1.6.285 4.242-.379 7.537-.908 4.613-5.588 23.394-6.08 24.615-.852 2.226-1.495 3.922-4.375 6.772l-4.601 4.547c-.853.843-3.106 3.058-5.512 5.123-1.648 1.43-3.295 2.112-4.564 1.25-.587-.37-1.326-.909-1.8-1.383-.321-.332-.588-.274-.74-.123-.321.322-.17.7.419 1.287 1.572 1.601 5.076 4.804 5.341 5.068.265.275 3.429 3.788 6.326 6.733.587.588 1.004.702 1.27.428.168-.152.224-.419-.098-.74-.473-.493-1.534-1.753-2.16-2.614-1.382-1.818-.682-3.458.758-5.096 2.103-2.377 4.337-4.602 5.19-5.445l4.603-4.545c1.762-1.743 3.41-3.381 6.12-4.48 3.257-1.308 23.202-6.242 27.085-6.602 2.614-.246 3.826-.293 5.531.143 1.382.322 2.594 1.126 3.182 1.713.417.426.852.54 1.117.275.209-.218 0-.633-.379-1.012-1.005-1.013-4.963-4.707-5.285-5.029-.416-.426-1.949-2.293-3.332-3.676-.511-.54-.949-.756-1.156-.539-.266.266-.057.682.246 1.326.493.805.114 1.59-.645 2.338-.7.682-1.818 1.364-3.617 1.781-2.822.682-21.234 5.464-24.473 6.676.587-2.5 6.46-24.14 7.16-26.527.38-1.232.759-2.13 1.383-2.766.436-.416 1.024-.462 1.649-.254.701.274 1.06.538 1.287.33.209-.218.265-.483-.322-1.07-2.064-2.083-4.223-3.949-4.602-4.318-.265-.275-4.054-4.442-5.058-5.455-.267-.272-.503-.406-.7-.434zm-577.075 53.5c-.282.036-.57.39-.912.908-1.705 2.558-2.897 4.744-3.351 5.426-.455.691-2.652 3.572-4.528 6.385-.51.747-.777 1.287-.398 1.543.246.16.474.226.777-.219.322-.493 1.346-1.884 2.35-2.85 1.799-1.6 3.445-1.117 7.556 1.526l32.22 20.494c-3.41.624-15.57 2.357-26.33 4.119-16.744 2.747-33.013 5.341-34.698 5.568-1.043.209-3.128.352-3.45.864-.34.491.21 1.136 2.653 2.756l35.781 23.97c5.682 3.788 7.273 5.314 6.686 7.17-.322 1.145-1.004 2.311-1.344 2.803-.208.313-.207.597.039.758.435.293.757-.039 1.174-.664 1.874-2.813 3.446-5.559 3.806-6.127.398-.559 2.235-2.927 4.622-6.506.492-.74.627-1.204.248-1.46-.247-.16-.493-.056-.702.257-.378.568-1.364 1.894-2.462 2.869-1.629 1.355-3.676.899-8.885-2.397h-.002l-30.477-19.158c3.58-.502 16.177-2.31 28.83-4.348 11.535-1.864 26.727-4.736 27.807-5.001 5.53-1.108 6.723-1.4 7.064-1.893.285-.445.058-.778-4.072-3.533l-36.559-24.567c-3.73-2.5-4.942-3.665-3.996-6.023.304-.872.589-1.307.797-1.62.304-.436.286-.815.04-.976a.402.402 0 0 0-.284-.074zm631.404 40.816c-1.6.055-3.216.551-4.761 1.504-3.164 1.942-5.342 4.822-6.346 12.22l-.435 3.144c-.834 6.013-1.856 8.485-5.057 10.464-2.955 1.828-7.5 1.62-10.229-2.832-1.932-3.096-2.519-6.95.493-9.763.568-.54 1.211-.938 1.628-1.194.361-.227.474-.37.303-.644-.133-.225-.434-.177-.965.097-.776.408-2.728 1.363-5.058 2.784-1.248.776-1.402.938-1.324 1.79l-.002-.001c.246 2.472 1.23 4.8 2.574 6.978 1.534 2.5 3.636 4.65 6.27 5.787 4.224 1.8 8.2.37 10.095-.804 3.712-2.283 5.779-5.35 6.727-13.467l.207-1.934c.89-6.544 1.666-8.816 4.298-10.435 3.39-2.093 6.915-.815 8.885 2.377 2.632 4.262 1.458 6.715 1.117 7.302-.341.587-1.4 1.648-1.931 2.026-.34.275-.568.464-.38.748.134.227.531.123 1.27-.332 3.144-1.942 4.792-2.699 5-2.85.249-.133.287-.294.059-.664-.227-.36-.416-.757-.775-1.752-.437-1.326-1.08-2.792-2.198-4.592-2.487-4.05-5.942-6.076-9.465-5.957zM633.2 470.2a.374.374 0 0 0-.206.037c-.194.105-.195.343-.098.541.171.342.418.994.532 1.62.284 1.192-.303 2.073-1.932 2.992-1.515.852-2.88 1.524-10.514 5.218l-8.617 4.196c-4.697 2.282-8.58 4.158-10.758 4.916-1.496.492-2.69.767-3.373-.123-.302-.388-.7-.92-.908-1.375-.133-.295-.342-.314-.474-.246-.304.142-.266.437-.02.976.72 1.468 2.349 4.478 2.48 4.725.133.246 1.459 3.392 2.766 6.092.284.538.531.709.777.595.153-.075.247-.245.114-.529-.227-.445-.644-1.573-.871-2.303-.512-1.572.416-2.376 1.761-3.219 1.932-1.25 5.798-3.117 10.495-5.4h.002l8.619-4.185c7.633-3.713 8.997-4.376 10.627-5.03 1.76-.729 2.784-.747 3.656.446.378.54.585.814.756 1.156.075.198.266.343.474.246.304-.143.266-.435.02-.975-.72-1.458-2.37-4.471-2.483-4.726-.132-.237-1.477-3.391-2.254-5.002-.199-.411-.376-.62-.572-.643zm-699.946 3.239c-.268.038-.499.338-.74.9-.928 2.074-2.634 6.487-2.785 6.818-.152.35-2.274 4.594-3.278 6.858-.32.758-.357 1.154.059 1.343.284.124.55-.093.664-.369a9.325 9.325 0 0 1 1.23-2.008c1.004-1.353 2.483-1.523 4.87-.632 2.253.833 4.185 1.694 14.906 6.43l12.084 5.36c6.591 2.928 12.009 5.332 14.756 6.952 1.875 1.155 3.22 2.167 2.898 3.664-.151.682-.36 1.563-.645 2.178-.189.417-.036.643.172.74.417.17.7-.105 1.041-.863.91-2.055 2.615-6.487 2.766-6.819.151-.35 2.273-4.584 3.959-8.353.338-.758.262-1.193-.078-1.354-.19-.085-.456-.048-.645.37-.284.615-1.08 2.074-1.648 2.974-1.193 1.942-2.877 1.676-4.961 1.004-3.03-.938-8.467-3.344-15.059-6.26l-12.086-5.351c-10.72-4.754-12.652-5.607-14.793-6.715-2.33-1.203-3.258-2.264-2.785-4.282.227-.88.343-1.325.551-1.798.133-.275.114-.617-.17-.74a.504.504 0 0 0-.283-.048zm716.437 31.257c-.392-.034-1.106.14-2.36.555l-29.606 9.803c-4.698 1.572-6.289 1.808-7.065.642-.53-.69-.89-1.598-1.023-2.015-.076-.254-.247-.38-.436-.303-.379.113-.32.434-.15.965.776 2.31 1.666 4.432 1.818 4.896.151.464.68 2.586 1.647 5.522.227.616.435.9.738.795.19-.066.267-.254.17-.51-.151-.473-.471-1.63-.549-2.69-.057-1.534 1.118-2.502 5.303-4.007l24.511-8.912a1043.309 1043.309 0 0 0-10.324 18.412c-4.053 7.425-9.168 17.397-9.49 18.127-1.837 3.646-2.196 4.452-2.064 4.869.132.36.416.377 3.826-.75l30.287-9.983c3.088-1.032 4.3-1.2 5.228.381.36.568.472.927.569 1.192.113.357.34.513.549.445.323-.104.229-.483.058-1.05-.72-2.122-1.44-3.77-1.629-4.339-.189-.568-.852-3.096-1.629-5.416-.207-.616-.398-1.024-.7-.92-.21.086-.34.181-.227.532.132.426.472 1.619.586 2.623.113 1.733-.89 2.472-4.243 3.646l-26.025 9.3c1.155-2.215 5.568-9.935 9.338-16.868 5.871-10.796 11.61-21.253 12.236-22.313.342-.691 1.193-1.94 1.06-2.347-.05-.164-.168-.261-.404-.282zm-679.556 19.131c-.161.044-.254.23-.326.508-.171.73-.625 2.624-1.8 4.584-1.78 2.889-5.984 2.424-8.693 2.084h-.002l-46.029-5.92c-1.42-.19-2.064-.113-2.178.408-.132.511.322.918.909 1.373l40.687 32.522-51.332 11.28c-.89.17-1.247.398-1.344.843-.113.435.34.776 1.117 1.117l46.35 16.734c2.709.958 5.492 1.867 5.36 4.377-.038 1.156-.17 1.666-.323 2.244-.075.369-.017.776.192.825.53.123.794-.36.964-1.09.474-1.96 1.1-5.53 1.27-6.184.133-.587 1.194-4.035 1.838-6.744.208-.87.189-1.353-.342-1.476-.207-.048-.434.208-.492.501a13.807 13.807 0 0 1-1.043 2.69c-.492 1.051-1.628 1.62-2.727 1.353-1.231-.302-2.537-.614-3.693-.964l-33.186-11.1.057-.295c2.178-.322 21.67-4.28 23.147-4.611.814-.19 14.965-3.44 19.02-4.47 2.954-.758 3.767-.94 3.882-1.45.17-.664-.437-1.042-3.277-3.352l-33.66-27.039.038-.219 38.547 5.569c1.345.17 2.557.55 2.557.928-.018.379.095.568.379.636.36.094.68-.229 1.23-1.867.871-2.652 2.993-10.493 3.371-12.103.209-.862.153-1.582-.283-1.686a.354.354 0 0 0-.185-.006zm679.629 40.817c-1.203.002-2.287.099-3.192.246-5.095.842-10.985 3.134-14.812 9.111l.004-.002c-3.107 4.877-4.206 10.626-2.862 18.676.55 3.438 1.61 7.453 2.823 9.46.587.9.721.986 1.781 1.137 1.913.23 6.687.117 7.066.05.436-.067.797-.237.739-.503-.038-.33-.285-.399-.891-.408-.984 0-3.467-.312-4.83-1.25-2.557-1.78-3.56-4.867-4.242-8.892-1.894-11.488 6.212-20.93 16.459-22.616 5.474-.9 10.399-.785 14.812 2.52 2.14 1.572 4.793 4.554 5.967 11.695.777 4.726 0 9.102-1.307 11.242-.947 1.592-3.012 2.814-5.095 3.164-.74.124-1.119.236-1.06.606.056.331.397.38 1.212.303.815-.076 3.77-.56 5.568-.748 1.932-.218 2.613-.15 3.05-.227.302-.048.513-.2.454-.797-.174-1.733-.136-3.513-.097-5.605.056-2.71-.285-5.75-.645-7.9-1.345-8.268-4.68-12.73-8.43-15.429-4.176-2.982-8.863-3.839-12.472-3.833zM-48.053 605.14c-.303 0-.455.453-.455.974-.018.521-.17 2.7-1.023 4.65-1.534 3.6-2.745 4.86-8.655 11.12-2.879 3.059-19.189 18.533-21.386 20.465-1.856-1.6-14.508-14.784-16.307-16.678-3.201-3.42-5.058-5.077-6.385-8.174-.662-1.506-1.023-3.096-1.004-4.223 0-.606-.152-.748-.53-.757-.379 0-.53.303-.53 1.127-.02 1.875.152 6.837.152 7.226 0 1.79-.246 4.119-.285 5.615 0 .54.152.91.531.91.303 0 .454-.293.606-.662.246-.606.68-.976 1.59-.966 1.27.01 3.22 1.978 5.361 4.1 2.917 2.736 16.611 16.461 18.031 17.75v.302l-4.506-.04c-11.725-.103-13.829-.131-16.234-.302-2.633-.19-3.902-.787-4.262-2.814-.13-.9-.209-1.364-.209-1.885 0-.304-.132-.596-.435-.606-.455-.01-.604.38-.623 1.194-.02 2.255.17 6.62.17 7.293-.019.455-.264 4.877-.303 8.267-.02.825.132 1.203.586 1.203.303.01.455-.294.455-.597.02-.682.095-1.95.246-2.557.549-2.472 1.76-3.06 4.318-3.191 2.406-.123 4.509-.105 16.233 0v.004l13.22.123c7.218.066 13.147.123 16.291.53 2.179.321 3.845.7 4.13 2.206.132.682.283 1.582.283 2.264-.02.445.208.605.435.605.455 0 .608-.369.608-1.193.019-2.254-.172-6.62-.153-7.217 0-.606.264-4.962.303-8.637 0-.834-.226-1.203-.586-1.213-.227 0-.455.153-.455.598 0 .682-.172 1.875-.342 2.926-.303 2.254-1.97 2.69-4.148 2.898-3.163.34-9.093.285-16.309.227l-7.367-.068v-.39c4.47-3.56 21.82-19.328 24.623-22.68 2.595-3.212 4.263-5.078 4.68-9.046.17-1.667.17-3.087.19-5.19l.036-3.835c.02-1.278-.207-1.647-.586-1.656zm721.354 12.916c-.207.01-.303.237-.303.455.018.492 0 1.41-.098 1.845-.34 1.81-1.173 2.275-3.029 2.446-1.743.16-3.258.216-11.744.492l-9.565.293c-5.228.173-9.528.312-11.8.113-1.592-.16-2.805-.397-3.051-1.476-.133-.493-.264-1.139-.283-1.631 0-.322-.172-.426-.342-.426-.32.02-.416.294-.397.89.038.815.13 2.066.207 3.155.036 1.137.114 2.064.133 2.178.04 1.562-.148 5.219.098 13.44.075 2.111.093 2.556 1.514 2.888 1.156.236 4.85.55 5.285.54.398-.019.814-.029.814-.35 0-.285-.226-.376-.832-.473-2.235-.313-3.353-.93-3.978-2.323-.663-1.391-.739-3.778-.778-5.199-.17-5.332.513-6.165 4.244-6.45 1.155-.094 7.462-.234 9.3-.302l4.792-.152c.209-.01.399.096.399.37.038.92.094 6.307-.04 7.774-.132 2.132-1.042 2.654-1.8 2.9-.7.236-1.25.255-1.78.274-.284.01-.492.124-.492.389.019.39.625.37 1.06.351.38-.01 2.386.036 3.485.114 1.8.103 2.729.35 3.051.33.338-.01.436-.122.436-.283 0-.219-.286-.428-.74-.797-.55-.474-.7-1.23-.852-2.528-.132-1.24-.34-7.936-.38-8.636 0-.274.153-.343.532-.352l15.02-.492c.36-.01.548.104.548.312.02.597.156 6.535.079 7.463-.227 2.946-.87 3.513-1.723 3.92-.644.291-1.572.37-1.951.389-.436.01-.701.133-.682.455 0 .218.34.31.606.36.643.092 3.05.113 3.6.161 1.515.114 2.177.37 2.556.35.284-.01.492-.075.492-.227-.02-.274-.245-.483-.303-.757-.113-.426-.245-1.299-.342-2.33-.095-1.25-.433-12.077-.453-12.456 0-.265.039-3.703-.039-6.146-.02-.596-.134-.87-.474-.861zm-744.008 60.175a34.584 34.584 0 0 0-6.156.551c-17.218 3.088-25.495 17.4-22.522 34.04 3.656 20.4 22.163 26.09 34.153 23.94 13.297-2.386 27.54-13.637 23.904-33.896-2.785-15.595-15.212-24.615-29.379-24.635zm701.88 6.547c-.378-.066-.587.283-.72 1.098-.757 4.744-1.514 11.025-1.592 11.375-.056.389-1.04 5.094-1.912 10.664-.152.89-.076 1.286.303 1.334.304.057.643-.197.682-.49.113-.664.834-3.743 1.25-4.822.89-2.291 2.046-2.416 4.394-2.338 3.315.15 9.7 1.173 17.125 2.347l13.713 2.198c11.365 1.818 18.638 3.352 19.244 3.457.74.113 1.571.094 1.668-.502.095-.521-.19-1.165-.607-1.912-.322-.75-7.047-15.363-7.274-15.856-.17-.332-.434-.606-.662-.635-.302-.047-.7.115-.738.332-.039.304-.001.54.15.938.587 2.008 2.444 7.614 2.217 9.035-.19 1.183-1.041 1.203-2.52.957-4.072-.644-7.274-1.08-11.289-1.725l-12.974-2.064c-7.425-1.184-13.81-2.216-17.03-2.955-2.291-.512-3.312-1.211-3.37-3.73-.058-1.46.284-5.134.435-6.024.056-.294-.208-.633-.492-.682zm-697.308.03c15.639.008 20.598 10.737 21.643 16.562 2.387 13.317-6.838 25.657-24.074 28.754-16.196 2.898-25.988-4.888-28.204-17.238-2.102-11.686 5.512-24.197 23.26-27.38 2.69-.481 5.141-.7 7.375-.698zm686.545 45.957c-.289.013-.509.177-.582.39-.097.294-.156.75-.058 1.242 1.724 10.106 9.3 29.976 29.511 36.084h.002c10.948 3.306 21.479-.417 24.547-10.56 2.993-9.916-1.648-19.253-11.555-22.256-6.06-1.818-15.19.123-18.277 10.332-.872 2.88-.91 6.875.682 9.63.151.285.285.388.511.466.209.067.528 0 .606-.21.057-.226 0-.549-.15-1.07-.304-1.108-.588-2.765.435-6.146.588-1.942 5.643-10.058 17.576-6.459 5.682 1.723 9.983 6.705 8.031 13.184-1.912 6.326-9.982 9.934-22.578 6.127-16.896-5.114-25.495-19.793-27.597-29.69-.095-.502-.36-.9-.795-1.023a.912.912 0 0 0-.309-.041zm-670.168 20.463c-3.926.084-7.936.908-11.838 2.488-16.232 6.572-21.367 22.285-15.021 37.949 7.784 19.216 27.068 20.977 38.338 16.402 12.54-5.076 24.17-19.015 16.424-38.1-5.1-12.593-16.125-18.993-27.903-18.74zm5.963 5.533c11.163.058 16.626 7.692 18.53 12.402 5.095 12.52-1.402 26.508-17.635 33.08-15.248 6.185-26.442.58-31.159-11.05-4.451-10.996.417-24.806 17.123-31.577 5.067-2.053 9.42-2.875 13.141-2.855zm668.682 20.896c-.413.06-.767.504-1.065 1.108l-10.7 22.361c-2.236-1.07-7.52-3.438-10.38-5.133-1.933-1.174-3.126-2.331-2.387-4.736.379-1.147 1.021-2.67 1.325-3.276a.614.614 0 0 0-.284-.806c-.34-.161-.644.124-1.003.863-1.781 3.722-3.334 7.482-3.561 7.955-.228.473-2.5 4.706-4.3 8.438-.341.747-.38 1.147-.04 1.308.266.142.663-.01.834-.342.322-.681 1.043-2.006 1.705-2.859 1.572-1.904 2.992-1.894 5.113-1.117 3.107 1.145 8.279 3.788 10.514 4.857l-2.992 6.242c-.398.805-.324 1.174.187 1.846.682.654 2.085 1.734 2.426 1.895.342.17.814.396.965.056.133-.265-.284-1.306.588-3.134l2.48-5.15 21.747 10.415c3.731 1.79 9.112 4.46 10.134 4.944.664.322 1.249.35 1.477-.124.227-.473-.057-1.108-.53-2.007-1.95-3.6-20.399-41.597-20.683-42.23-.209-.437-.588-1.043-1.137-1.298a.735.735 0 0 0-.433-.076zm1.02 6.186c1.06 2.102 13.657 28.534 14.927 30.39l-.059.143-23.998-11.498zM-11.106 800.54a.423.423 0 0 0-.258.074c-.247.152-.115.616.17 1.06.284.427 1.363 2.34 1.742 4.425.72 3.835.416 5.568-1.024 14.054-.7 4.148-5.604 26.081-6.343 28.905-2.444-.285-20.306-4.197-22.844-4.774-4.546-1.051-7.028-1.41-9.85-3.228-1.401-.89-2.575-2.009-3.2-2.955-.323-.493-.532-.54-.835-.323-.322.2-.285.531.17 1.223 1.042 1.572 3.94 5.586 4.148 5.908.986 1.506 2.084 3.57 2.918 4.83.285.435.606.674.928.465.246-.17.21-.503.133-.9-.152-.626.018-1.174.775-1.686 1.061-.691 3.771-.133 6.745.426 3.94.654 22.957 4.432 24.851 4.707l.17.256-3.77 2.472c-9.793 6.431-11.553 7.597-13.636 8.79-2.292 1.325-3.696 1.514-5.115.027-.626-.673-.927-1.004-1.23-1.44-.152-.245-.436-.424-.702-.263-.378.246-.285.653.17 1.343 1.231 1.876 3.808 5.399 4.187 5.957.246.388 2.5 4.215 4.336 7.038.455.691.796.918 1.174.671.247-.16.21-.501.04-.748-.38-.558-1.003-1.677-1.212-2.263-.928-2.359-.247-3.513 1.799-5.047 1.932-1.449 3.693-2.595 13.486-9.035l11.063-7.266c6.023-3.959 10.984-7.216 13.826-8.627 1.99-.947 3.58-1.544 4.66-.455.493.473 1.099 1.156 1.477 1.725.246.369.51.379.7.256.38-.257.304-.655-.15-1.346-1.231-1.875-3.826-5.398-4.148-5.9-.34-.502-2.537-4.272-4.564-7.35-.436-.682-.835-.88-1.157-.672-.19.123-.305.378-.058.748.379.568.911 1.647 1.365 2.613.985 2.047-.152 3.335-1.838 4.727-2.444 2.046-7.387 5.293-13.43 9.262l-6.156 4.035-.19-.313c1.725-5.445 7.35-28.204 7.825-32.55.36-4.102.718-6.593-1.176-10.126-.777-1.458-1.552-2.651-2.707-4.404l-2.123-3.209c-.511-.796-.863-1.102-1.142-1.117zm597.42 26.441c-5.586-.068-10.41 2.497-13.766 7.372-3.143 4.583-3.997 8.74-3.201 13.56.776 4.555 3.808 9.188 8.695 12.549 5.511 3.789 15.21 4.802 21.12-3.807 2.386-3.467 2.784-6.828 2.765-8.666.018-.54-.038-.85-.342-1.068-.322-.21-.549-.278-.682-.098-.133.199-.225.747-.302.985-.285 1.884-1.29 3.58-2.387 5.189V853c-2.595 3.78-10.834 6.328-19.434.408-6.82-4.688-8.088-11.308-4.68-16.262 4.887-7.12 15.345-4.679 22.58.303 14.68 10.096 18.637 25.677 17.577 36.625-.038.871-.17 1.6.322 1.942.36.255.72.14.89-.106.17-.255.322-.87.473-1.6 3.05-15.588-3.541-33.98-15.55-42.24-4.931-3.389-9.735-5.035-14.079-5.088zM23.763 886.49c-2.226-.091-4.583.731-6.62 3.028-3.692 4.073-2.955 9.519.928 12.966 3.864 3.457 8.809 2.774 12.18-1.005 4.243-4.66 2.103-10.028-.662-12.538-1.506-1.354-3.6-2.36-5.826-2.45zm534.7 3.197c-2.225-.093-4.59.726-6.636 3.051-3.674 4.044-2.994 9.462.945 12.928 3.789 3.447 8.866 2.794 12.2-.957 4.224-4.735 2.12-10.096-.721-12.596-1.478-1.325-3.562-2.332-5.787-2.426zM78.27 899.463l-4.7 6.762 48.832 33.96-10.02 14.426-54.04-37.6-4.774 6.848 28.83 20.059-7.01 10.096-25.796-17.948-4.756 6.858 52.316 36.396-11.761 16.914 10.152 7.067 16.537-23.772-26.537-18.459 7.027-10.095 31.537 21.953 4.754-6.858-6.1-4.242 14.737-21.178zm425.275 8.353-57.772 37.873 4.774 7.274 47.39-31.082 28.356 43.242-9.262 6.09-17.635-26.887-10.152 6.649 17.692 26.953-10.95 7.18-17.672-26.956-10.36 6.791 17.673 26.955-11.309 7.415 4.528 6.904 69.629-45.678-4.565-6.96-7.236 4.745zM156.27 948.56l-11.8 35.212 49.02 16.47 11.82-35.212zm274.462 3.55-21.156 6.631 13.77 44.153-57.45 17.908 2.481 7.986 57.469-17.91 6.136 19.729 11.82-3.696-19.849-63.681 9.338-2.917zm-265.427 8.47 25.572 8.589-6.402 19.064-25.573-8.59zm211.425.642-11.818 3.685 2.197 7.065-19.625 6.11 2.54 8.095 7.708-2.405c-2.481 4.338-3.257 9.206-1.837 13.81 3.2 10.294 16.252 15.36 29.152 11.335 12.88-4.016 20.72-15.597 17.52-25.883-1.44-4.603-4.848-8.165-9.356-10.324l7.842-2.453-2.52-8.088-19.605 6.11zm-158.181 8.25-20.91 62.232-42.676-14.338 5.967-17.74-11.744-3.95-8.62 25.677 66.145 22.228 23.564-70.17zm29.322 6.8v50.213h49.93v25.221h11.611v-45.658h7.766v45.658h11.593V976.3h-11.593v20.922h-7.766v-20.922h-11.611v41.662h-37.637v-32.883h26.045v-8.807zm131.494 2.096c5.258-.055 10.077 3.185 11.647 8.264 1.97 6.298-1.704 13.014-8.239 15.05-6.496 2.028-13.353-1.403-15.324-7.7-1.95-6.26 1.743-12.993 8.24-15.03a12.804 12.804 0 0 1 3.676-.584z" style="fill:#706d6e;fill-opacity:1;fill-rule:nonzero;stroke:none;stroke-width:9.69808" transform="translate(156.322 -194.447)"/><path d="M431.23 459.855C391.467 542.684 304.91 597.74 207.738 592.427c-37.077-2.025-71.982-12.353-102.326-29.485 39.322 2.564 57.08 19.043 67.464 20.954 10.37 1.996 12.218-6.08 59.51-5.817 47.335.27 65.59-17.46 65.59-17.46s19.52-24.32 54.51-31.566c34.975-7.245 43.91-39.123 45.516-43.563 1.633-4.525 7.231-26.793 33.228-25.635" style="fill:#99def9;fill-opacity:1;fill-rule:nonzero;stroke:none;stroke-width:7.27356" transform="matrix(1.33333 0 0 -1.33333 156.322 925.553)"/><path d="M375.67 307.6c5.683 5.327 12.544 9.916 20.059 12.707 26.466 9.852 40.602 33.64 48.968 53.629 1.166 2.82 2.231 5.604 3.112 8.147.54 1.698 1.051 3.36 1.463 4.816.88 3.026 1.463 5.626 1.79 7.636.058.433.128.86.184 1.278-2.244 13.859-5.625 27.312-10.128 40.24 1.122-13.475-8.055-66.84-41.496-83.228-19.335-9.46-27.376-28.533-26.14-47.384.64.696 1.378 1.42 2.188 2.16z" style="fill:#80cd3d;fill-opacity:1;fill-rule:nonzero;stroke:none;stroke-width:7.27356" transform="matrix(1.33333 0 0 -1.33333 156.322 925.553)"/><path d="M48.416 286.156c-24.847 24.023-20.755 48.4-20.755 48.4.796 11.4 11.777 16.728-7.615 63.246-17.928 43.187 1.79 61.008 1.79 61.008s15.542 13.454 9.277 32.604a59.917 59.917 0 0 0-1.15 4.29c-22.716-31.687-37.804-69.34-42.435-110.098.483-2.052 15.698-69.447 60.888-99.45Z" style="fill:#d3d2d2;fill-opacity:1;fill-rule:nonzero;stroke:none;stroke-width:7.27356" transform="matrix(1.33333 0 0 -1.33333 156.322 925.553)"/><path d="M140.444 137.424s43.57-7.366 72.82 21.82a191.455 191.455 0 0 0-33.284-2.144C68.333 159.586-15.114 262.623-12.472 385.443c-.44-4.255-1.59-15.663-1.505-26.829v-.092c.284-106.98 68.53-189.93 154.421-221.098z" style="fill:#26b478;fill-opacity:1;fill-rule:nonzero;stroke:none;stroke-width:7.27356" transform="matrix(1.33333 0 0 -1.33333 156.322 925.553)"/><path d="M324.883 214.642c-12.46-1.627-23.625 1.577-23.625 1.577-10.456 3.452-19.449 4.744-27.049 4.63-11.763-11.364-12.885-26.138-12.885-26.138a87.17 87.17 0 0 0-1.719-8.134c18.894 3.588 36.525 9.817 52.038 20.201l.596-.81c-17.46-15.456-37.277-27.616-58.756-35.99-20.372-40.268-67.437-43.01-72.68-43.237 12.758-2.124 26.055-2.941 39.409-2.941 110.453 0 187.72 73.979 215.863 144.101.014.022.072.051.072.051-41.098-60.76-85.62-60.533-111.263-53.309z" style="fill:#f68536;fill-opacity:1;fill-rule:nonzero;stroke:none;stroke-width:7.27356" transform="matrix(1.33333 0 0 -1.33333 156.322 925.553)"/><path d="m312.24 205.969-.597.81c-15.513-10.385-33.144-16.614-52.038-20.202-1.563-6.165-3.636-11.663-6.122-16.6 21.48 8.375 41.297 20.535 58.756 35.992z" style="fill:#fff;fill-opacity:1;fill-rule:nonzero;stroke:none;stroke-width:7.27356" transform="matrix(1.33333 0 0 -1.33333 156.322 925.553)"/><path d="M229.275 182.877c-12.941-.952-27.532-.753-38.868.058-59.453 4.24-87.95 60.852-87.95 60.852-12.161 19.634-28.342 25.515-28.342 25.515-11.294 5.242-19.633 11.002-25.699 16.855-45.19 30.003-60.405 97.398-60.888 99.45v-.163c-2.642-122.82 80.805-225.857 192.452-228.343 11.28-.256 22.417.483 33.285 2.145 6.165 6.137 11.678 13.88 16.01 23.632z" style="fill:#fbc834;fill-opacity:1;fill-rule:nonzero;stroke:none;stroke-width:7.27356" transform="matrix(1.33333 0 0 -1.33333 156.322 925.553)"/><path d="M303.432 223.99c-36.042 24.25-67.423 5.469-67.423 5.469-70.136-39.671-99.841 18.34-99.841 18.34-13.51 23.405-43.315 24.484-50.404 24.825-11.095.526-25.969 5.974-37.348 13.531 6.066-5.853 14.405-11.612 25.699-16.855 0 0 16.18-5.88 28.341-25.514 0 0 2.373-4.589 6.99-11.251 11.734-16.728 38.427-46.569 80.96-49.602 6.607-.475 14.335-.731 22.191-.688 5.612.1 11.166.29 16.678.632.995 2.28 1.974 4.653 2.87 7.16 0 0 7.671 30.245 42.064 30.813 7.6.113 16.593-1.18 27.049-4.631 0 0 11.166-3.204 23.625-1.577-13.24 3.722-21.451 9.348-21.451 9.348z" style="fill:#80cd3d;fill-opacity:1;fill-rule:nonzero;stroke:none;stroke-width:7.27356" transform="matrix(1.33333 0 0 -1.33333 156.322 925.553)"/><path d="M253.483 169.978a187.598 187.598 0 0 0-40.218-10.733c-29.25-29.187-72.82-21.82-72.82-21.82 1.618-.633 3.167-1.123 4.758-1.706 11.52-3.8 23.412-6.854 35.6-8.978 5.243.227 52.308 2.969 72.68 43.237zM232.145 190.037c-.896-2.507-1.875-4.88-2.87-7.16 10.385.675 20.556 1.81 30.33 3.7.796 2.664 1.265 5.278 1.72 8.134 0 0 1.121 14.774 12.884 26.139-34.393-.568-42.064-30.813-42.064-30.813z" style="fill:#2056ae;fill-opacity:1;fill-rule:nonzero;stroke:none;stroke-width:7.27356" transform="matrix(1.33333 0 0 -1.33333 156.322 925.553)"/><path d="M259.605 186.577c-9.774-1.89-19.945-3.025-30.33-3.7-4.332-9.753-9.845-17.495-16.01-23.632a187.598 187.598 0 0 1 40.218 10.733c2.486 4.936 4.56 10.434 6.122 16.6z" style="fill:#26b478;fill-opacity:1;fill-rule:nonzero;stroke:none;stroke-width:7.27356" transform="matrix(1.33333 0 0 -1.33333 156.322 925.553)"/><path d="M130.996 373.638h1.549c4.05 0 8.282.56 8.282 6.35v58.117c0 5.747-4.233 6.315-8.282 6.315h-1.549v3.338c4.461 0 11.167-.433 16.906-.433 6.066 0 13.311.433 17.885.433v-3.338h-1.377c-3.396 0-9.192-.114-9.192-6.315v-58.118c0-6.236 5.796-6.35 9.192-6.35h1.377v-3.302c-4.574 0-11.82.426-17.885.426-5.74 0-12.445-.426-16.906-.426v3.303m45.531 74.12c4.845 0 9.59-.433 14.406-.433 5.029 0 9.986.433 15.044.433v-3.338h-1.435c-7.444 0-13.51-4.994-18.113-9.88l-17.758-18.987 28.853-35.835c2.373-3.303 5.981-6.08 10.243-6.08v-3.303c-3.68 0-7.643.191-11.45.191-3.594 0-7.104-.191-10.698-.191-.994 2.088-4.247 6.513-5.81 8.303l-24.25 29.947 23.568 25.954c1.449 1.443 4.958 5.264 4.958 7.537 0 2.23-4.83 2.344-6.307 2.344h-1.25zM267.433 389.733l26.55 58.025c3.368 0 7.389-.433 11.466-.433 3.935 0 7.97.433 11.89.433v-3.338h-1.008c-3.381 0-10.2-.214-10.413-5.107-.115-2.891.326-6.215.525-8.638l4.276-50.816c.47-5.546 3.267-6.023 9.973-6.221v-3.303c-5.242.191-10.769.426-16.153.426-6.15 0-12.302-.235-18.51-.426v3.303c5.853.355 9.646.355 9.646 5.22 0 1.307 0 2.543-.073 5.42l-3.182 46.824h-.185l-28.64-62.472h-2.727l-27.176 61.278h-.228l-3.765-48.734c0-3.552.853-5.3 2.33-6.28 1.663-1.058 4.02-1.143 7.16-1.256h1.364v-3.303c-5.043.19-10.2.426-15.285.426-4.376 0-8.894-.235-13.227-.426v3.303h1.563c8.936.355 9.206 4.127 10.257 12.096l3.353 30.842c.88 7.877 1.335 15.108 1.335 19.504 0 6.244-4.788 8.34-9.802 8.34h-1.464v3.338c4.631 0 9.107-.433 13.766-.433 3.367 0 6.706.433 10.073.433l26.309-58.025ZM331.502 436.33c0 7.976-4.12 8.09-8.609 8.09h-1.32v3.338c4.802 0 10.768-.433 17.842-.433 6.734 0 12.317.433 16.835.433v-3.338h-1.35c-4.518 0-8.992-.114-8.992-8.09v-38.28c0-14.092 5.313-23.852 21.352-23.852 14.774 0 21.366 9.313 21.366 24.286v37.845c0 7.977-4.319 8.09-8.126 8.09h-2.245v3.34c4.475 0 9.12-.434 13.595-.434 4.376 0 8.624.433 13.027.433v-3.338h-2.386c-3.026 0-7.146-.114-7.146-8.09v-35.403c0-25.052-13.481-32.297-30.202-32.297-21.593 0-33.64 7.785-33.64 27.638zM349.843 244.19c-3.992-15.974-14.22-25.706-24.52-29.413-.1-.036-.327-.1-.426-.128 11.592 1.996 50.886 10.626 50.247 58.359 0 0-.142 12.353-1.662 32.433-19.221-19.32-19.661-45.268-23.64-61.25z" style="fill:#2056ae;fill-opacity:1;fill-rule:nonzero;stroke:none;stroke-width:7.27356" transform="matrix(1.33333 0 0 -1.33333 156.322 925.553)"/><path d="M451.246 395.813c-.27-2.13-.894-5.206-1.974-8.914a161.194 161.194 0 0 0-1.463-4.816 151.873 151.873 0 0 0-3.112-8.147c-8.366-19.989-22.502-43.777-48.968-53.629-8.495-3.168-16.195-8.623-22.247-14.866 1.52-20.08 1.662-32.433 1.662-32.433.625-46.88-37.277-56.05-49.608-58.245-.156-.037-.327-.066-.483-.093-.073-.022-.113-.022-.156-.022h-.03c.086-.036.455-.142.583-.177 25.685-7.054 69.88-6.847 110.695 53.479 11.663 27.887 17.985 58.458 17.985 90.521 0 12.736-1.023 25.174-2.884 37.342z" style="fill:#26b478;fill-opacity:1;fill-rule:nonzero;stroke:none;stroke-width:7.27356" transform="matrix(1.33333 0 0 -1.33333 156.322 925.553)"/></svg>