<svg xmlns="http://www.w3.org/2000/svg" viewBox="0 0 174.414 174.414"><defs><radialGradient id="a" cx="-800.51475" cy="196.7236" r="326.30353" gradientTransform="translate(335.364 -26.218) scale(.3627)" gradientUnits="userSpaceOnUse"><stop offset="0" stop-color="#f9be00"/><stop offset="0.04102" stop-color="#f5af07"/><stop offset="0.22592" stop-color="#e67126"/><stop offset="0.39499" stop-color="#d9413f"/><stop offset="0.54265" stop-color="#d01d50"/><stop offset="0.6632" stop-color="#cb085b"/><stop offset="0.74157" stop-color="#c9005f"/><stop offset="0.80619" stop-color="#ca0a62"/><stop offset="0.9172" stop-color="#cd266a"/><stop offset="1" stop-color="#d03f72"/></radialGradient></defs><path d="M0 87.204A87.207 87.207 0 1 0 87.205 0 87.305 87.305 0 0 0 0 87.204Zm2.404 0a84.8 84.8 0 1 1 84.801 84.805 84.898 84.898 0 0 1-84.8-84.805Z" style="fill:#231815"/><path d="m37.671 137.655.169.195 3.19-3.202 1.655 1.65-7.974 8.005a6.235 6.235 0 0 1-2.626-1.646c-1.975-1.965-1.626-3.846-.073-5.404 1.562-1.568 3.652-1.892 5.66.402Zm-4.424 3.881a1.79 1.79 0 0 0 .533.388l2.908-2.918-.169-.196c-1.035-1.175-2.054-.711-2.865.103-.822.828-1.284 1.751-.407 2.623ZM34.76 127.337c1.694 2.207.224 4.804-2.416 6.832-2.632 2.018-5.535 2.774-7.23.567-1.691-2.208-.21-4.815 2.422-6.835 2.639-2.027 5.53-2.772 7.224-.564Zm-8.203 6.29c.776 1.009 2.621-.057 4.254-1.313 1.647-1.264 3.152-2.744 2.369-3.767-.792-1.035-2.602.052-4.253 1.315-1.633 1.254-3.13 2.772-2.37 3.766ZM28.89 118.615l-4.468 2.526 1.21 2.137 4.465-2.523 1.16 2.047-10.286 5.813-1.158-2.048 4.274-2.417-1.205-2.137-4.278 2.416-1.165-2.065 10.286-5.811ZM24.916 109.83l-2.098 1.501 1.07 2.696 2.56-.352.753 1.9-12.183 1.332-.781-1.962 9.793-7.352Zm-6.307 4.354c-.595.405-1.312.838-1.312.838l.012.032s.788-.166 1.535-.28l3.442-.5-.817-2.057ZM22.356 100.917l-5.851 4.855a10.756 10.756 0 0 1-.94.708l.008.033s.49-.155 1.025-.285l6.659-1.624.467 1.92-11.48 2.797-.49-2.017 5.18-4.342c.469-.394.998-.77.998-.77l-.012-.034s-.59.18-1.125.31l-5.87 1.43-.469-1.918 11.48-2.797ZM21.373 92.94c.288 2.957-2.076 4.722-5.665 5.075-3.454.335-6.164-1.092-6.444-3.979a4.396 4.396 0 0 1 .425-2.718l1.673.527a2.972 2.972 0 0 0-.247 1.733c.146 1.47 1.68 2.337 4.362 2.06 2.234-.235 4.129-.99 3.994-2.358a1.635 1.635 0 0 0-.191-.74l-3.385.33.112 1.129-1.626.157-.331-3.4 6.36-.622a4.907 4.907 0 0 1 .963 2.806ZM21.497 80.535a3.353 3.353 0 0 1-3.95 3.091l-8.356-.837.232-2.342 8.457.847c.924.091 1.503-.315 1.575-1.051.073-.75-.407-1.266-1.35-1.359l-8.438-.845.216-2.17 8.355.836a3.355 3.355 0 0 1 3.26 3.83ZM23.335 69.408l-7.43 1.614a11.331 11.331 0 0 1-1.16.192l-.01.032s.509.09 1.042.222l6.657 1.628-.47 1.917-11.477-2.807.493-2.02 6.599-1.46c.6-.137 1.238-.228 1.238-.228l.01-.032s-.607-.115-1.14-.245l-5.874-1.436.471-1.92 11.476 2.81ZM24.497 65.712l-11.111-4.013.799-2.214L25.296 63.5ZM27.743 57.9l-.89 1.877-11.89-2.49 1.028-2.175 7.006 1.854c.672.186 1.425.446 1.425.446l.015-.031s-.68-.415-1.24-.834l-5.854-4.291.934-1.969ZM29.593 54.34 19.55 48.122l2.684-4.337 1.547.957-1.445 2.337 2.628 1.628 1.264-2.044 1.505.932-1.264 2.043 2.817 1.743 1.444-2.335 1.547.958ZM36.213 44.84l-5.87-1.526-.023.027 4.344 3.45-1.453 1.83-8.846-7.032a5.868 5.868 0 0 1 1.32-2.764c1.742-2.192 3.581-2.135 5.343-.735a3.023 3.023 0 0 1 .95 3.496l.027.022 5.822 1.203Zm-9.266-5.037a1.728 1.728 0 0 0-.322.6l3.227 2.564a.796.796 0 0 0 .211-.185 1.885 1.885 0 0 0-.436-2.822c-1.047-.832-1.943-1.085-2.68-.157ZM40.373 40.55a4.217 4.217 0 0 1-2.349 1.362l-.916-1.705a2.58 2.58 0 0 0 1.544-.757 1.228 1.228 0 0 0 .07-1.81c-.603-.609-1.236-.684-2.696-.57A4.254 4.254 0 0 1 32.331 36a3.035 3.035 0 0 1-.056-4.54 3.695 3.695 0 0 1 2.118-1.135l.82 1.437a2.417 2.417 0 0 0-1.361.724 1.168 1.168 0 0 0 .002 1.76c.558.561 1.14.636 2.574.52 1.77-.139 2.899-.022 3.942 1.024a3.173 3.173 0 0 1 .003 4.761ZM43.84 37.072l-7.57-9.066 1.801-1.51 7.574 9.067ZM44.25 24.168l5.758 8.165-1.935 1.364-5.76-8.166-1.417.999-1.05-1.487 4.772-3.363 1.048 1.484ZM53.342 24.292l2.517 4.494-2.051 1.149-2.519-4.494-5.534-4.535 2.127-1.19 3.397 3.075.031-.018-.807-4.528 1.902-1.066ZM66.47 24.417c-2.642.874-4.614-1.369-5.66-4.53-1.04-3.146-.8-6.14 1.841-7.014 2.642-.871 4.618 1.386 5.658 4.532 1.049 3.166.802 6.14-1.84 7.012Zm-3.247-9.813c-1.206.397-.804 2.489-.158 4.446.651 1.972 1.554 3.88 2.778 3.476 1.239-.408.81-2.475.156-4.447-.644-1.956-1.585-3.87-2.776-3.475ZM72.257 12.398l.608 3.029 2.357-.472.347 1.736-2.357.471 1.006 5.032-2.307.464-2.32-11.584 5.002-1.001.36 1.785ZM84.6 21.147a4.224 4.224 0 0 1-2.644-.601l.488-1.871a2.613 2.613 0 0 0 1.647.496 1.236 1.236 0 0 0 1.285-1.278c-.03-.858-.441-1.343-1.587-2.25a4.27 4.27 0 0 1-1.978-3.307 3.039 3.039 0 0 1 3.053-3.36 3.669 3.669 0 0 1 2.32.612l-.376 1.611a2.424 2.424 0 0 0-1.489-.4 1.166 1.166 0 0 0-1.196 1.293c.026.789.4 1.24 1.53 2.133 1.392 1.108 2.139 1.958 2.186 3.434a3.172 3.172 0 0 1-3.239 3.488ZM93.083 21.366c-2.672-.215-3.659-3.137-3.4-6.37.252-3.133 1.756-5.958 4.427-5.744a3.152 3.152 0 0 1 2.102.86l-.586 1.518a1.902 1.902 0 0 0-1.176-.438c-1.589-.129-2.21 2.01-2.371 3.995-.152 1.934.225 4.085 1.697 4.202a1.906 1.906 0 0 0 1.244-.245l.342 1.718a3.12 3.12 0 0 1-2.28.504ZM96.701 21.607 98.59 9.945l2.322.375-1.89 11.662ZM101.046 22.347l2.865-11.461 4.95 1.24-.44 1.765-2.668-.666-.75 2.998 2.33.581-.425 1.719-2.333-.585-.807 3.215 2.668.668-.444 1.764ZM112.998 26.12l-.636-7.577a9.929 9.929 0 0 1-.039-1.176l-.03-.012s-.157.493-.356 1.005l-2.478 6.39-1.84-.717 4.268-11.015 1.941.751.592 6.733c.06.61.065 1.258.065 1.258l.034.013s.192-.59.389-1.103l2.187-5.633 1.84.713-4.271 11.015ZM119.581 29.57c-2.356-1.279-2.073-4.35-.524-7.202 1.497-2.763 4.02-4.737 6.37-3.459a3.151 3.151 0 0 1 1.576 1.637l-1.155 1.151a1.884 1.884 0 0 0-.89-.876c-1.407-.76-2.836.942-3.791 2.694-.924 1.705-1.45 3.822-.15 4.527a1.91 1.91 0 0 0 1.234.282l-.378 1.706a3.11 3.11 0 0 1-2.292-.46ZM122.765 31.24l6.705-9.727 4.199 2.894-1.033 1.497-2.263-1.558-1.754 2.546 1.98 1.363-1.004 1.457-1.98-1.364-1.881 2.728 2.262 1.562-1.03 1.496ZM135.18 41.498l1.333-2.214-2.06-2.046-2.203 1.343-1.451-1.441 10.644-6.08 1.498 1.49-6.054 10.643Zm4.055-6.509c.384-.609.867-1.289.867-1.289l-.024-.023s-.656.46-1.297.863l-2.958 1.832 1.572 1.561ZM141.085 48.635l3.418-6.793a11.235 11.235 0 0 1 .581-1.024l-.023-.026s-.387.338-.823.672l-5.452 4.152-1.196-1.572 9.396-7.158 1.261 1.653-3.013 6.05c-.27.552-.604 1.107-.604 1.107l.023.026s.47-.4.906-.732l4.81-3.664 1.197 1.57-9.399 7.16ZM144.614 54.52a5.523 5.523 0 0 1-.864-2.96l9.414-5.258a5.75 5.75 0 0 1 2.006 2.183c1.583 2.835-.07 5.193-3.083 6.874-2.937 1.643-5.898 1.977-7.473-.84Zm9.054-5.098a1.62 1.62 0 0 0-.423-.51l-7.24 4.045a2.077 2.077 0 0 0 .244.649c.706 1.26 2.058 1.151 4.741-.347 2.52-1.407 3.389-2.562 2.678-3.837ZM159.72 63.68l-9.46 3.23-.765-2.245 9.459-3.227-.56-1.643 1.72-.585L162 64.733l-1.723.588ZM151.156 69.839l11.508-2.677 1.155 4.97-1.77.411-.622-2.675-3.01.697.542 2.342-1.723.402-.543-2.341-3.228.747.62 2.678-1.77.413ZM152.845 79.882c-.332-2.658 2.325-4.222 5.548-4.623 3.117-.392 6.189.5 6.524 3.159a3.151 3.151 0 0 1-.413 2.234l-1.609-.266a1.888 1.888 0 0 0 .19-1.236c-.2-1.584-2.419-1.755-4.393-1.508-1.928.243-3.952 1.05-3.77 2.515a1.904 1.904 0 0 0 .495 1.167l-1.612.688a3.119 3.119 0 0 1-.96-2.13ZM153.403 88.248l5.135-.002-.002-2.456-5.135.005-.003-2.353 11.814-.009.003 2.35-4.912.007.005 2.454 4.91-.003.002 2.37-11.814.008ZM152.474 98.394l7.23-2.349a10.589 10.589 0 0 1 1.136-.31l.005-.032s-.513-.04-1.058-.114L153 94.638l.275-1.958 11.698 1.642-.286 2.057-6.42 2.117a18.04 18.04 0 0 1-1.211.352l-.005.034s.62.048 1.162.127l5.986.84-.277 1.955-11.7-1.64ZM150.598 105.652c.779-2.671 3.742-3.026 6.939-2.096 3.184.923 5.511 2.82 4.736 5.49-.776 2.671-3.758 3.02-6.94 2.095-3.199-.93-5.51-2.818-4.735-5.49Zm9.928 2.885c.353-1.22-1.598-2.073-3.578-2.647-1.996-.583-4.08-.92-4.435.317-.366 1.255 1.578 2.07 3.57 2.65 1.983.576 4.09.884 4.443-.32ZM148.942 111.166l10.873 4.622-.918 2.163-9.2-3.907-.988 2.323-1.671-.712ZM144.674 119.69c1.37-2.42 4.339-2.082 7.237-.44 2.88 1.637 4.71 4.016 3.342 6.435-1.375 2.42-4.356 2.076-7.24.438-2.895-1.643-4.712-4.012-3.339-6.433Zm8.991 5.097c.628-1.104-1.077-2.384-2.864-3.402-1.812-1.023-3.76-1.83-4.396-.712-.644 1.135 1.064 2.376 2.87 3.4 1.793 1.02 3.773 1.804 4.39.714ZM139.165 127.91c1.809-2.355 4.74-2.028 7.6.167 2.754 2.115 3.755 5.008 1.985 7.307a4.423 4.423 0 0 1-2.164 1.693l-.861-1.528a3.005 3.005 0 0 0 1.362-1.096c.9-1.172.374-2.854-1.775-4.483-1.795-1.358-3.692-2.1-4.528-1.009a1.69 1.69 0 0 0-.368.67l2.701 2.074.688-.9 1.292.993-2.079 2.71-5.068-3.891a4.894 4.894 0 0 1 1.215-2.707ZM137.307 137.969l-3.674-3.61 1.65-1.679 3.674 3.611 6.581 2.805-1.707 1.74-4.121-2.002-.026.023 2.04 4.124-1.526 1.554ZM72.173 143.797l2.452-8.893a8.083 8.083 0 0 1-2.909-.089l.083-1.244c2.107.302 3.448-.159 4.035-.711l1.404.388-3.067 11.102ZM79.667 145.575l-.389-1.398a5.94 5.94 0 0 0 4.33-3.14 4.178 4.178 0 0 1-1.374.106c-1.913-.18-3.623-1.332-3.387-3.849a3.465 3.465 0 0 1 4.024-3.255c2.598.245 3.503 2.264 3.27 4.728a7.471 7.471 0 0 1-6.474 6.808Zm3.001-10.278c-1.25-.116-1.81 1.008-1.924 2.208-.143 1.533.496 2.416 1.98 2.556a3.213 3.213 0 0 0 1.259-.134 7.066 7.066 0 0 0 .27-1.455c.158-1.664-.237-3.049-1.585-3.175ZM91.702 145.845c-2.017.158-3.788-.757-3.941-2.66-.104-1.336.543-2.26 2.152-3.379-1.522-.77-2.202-1.505-2.298-2.705-.132-1.67 1.264-2.923 3.148-3.073 1.886-.15 3.459.85 3.594 2.519.092 1.186-.446 2.018-1.845 2.985 1.765.883 2.556 1.745 2.66 3.047.14 1.786-1.3 3.094-3.47 3.266Zm-.813-10.65a1.552 1.552 0 0 0-1.525 1.73c.072.904.49 1.342 1.84 2.022 1.222-.87 1.552-1.417 1.482-2.268a1.586 1.586 0 0 0-1.797-1.484Zm.307 4.912c-1.49 1.023-1.74 1.64-1.667 2.57a1.775 1.775 0 0 0 2.013 1.56 1.72 1.72 0 0 0 1.722-1.84c-.072-.929-.422-1.503-2.068-2.29ZM101.534 144.2c-2.525.656-4.096-.927-4.717-3.324a7.46 7.46 0 0 1 3.764-8.608l.839 1.166a6.022 6.022 0 0 0-2.997 4.447 3.802 3.802 0 0 1 1.255-.569c1.861-.484 3.862.019 4.497 2.466a3.44 3.44 0 0 1-2.641 4.421Zm-1.98-5.764a3.24 3.24 0 0 0-1.14.537 7.241 7.241 0 0 0 .245 1.477c.42 1.618 1.253 2.768 2.569 2.427 1.198-.31 1.36-1.563 1.06-2.714-.388-1.491-1.307-2.1-2.734-1.727ZM49.252 142.602c-.026.048-.51.892-.54.94l1.337.77-2.453 4.266-1.46-.84-.533.928 3.52 2.028-1.529 2.66-4.344-2.498c-.025.049-.495.866-.524.913.053.032 10.406 5.99 10.46 6.02l.527-.915-4.33-2.49 1.53-2.662 3.511 2.02c.029-.05.506-.88.535-.927l-1.448-.834 2.454-4.267 1.324.763.542-.94c-.053-.032-8.524-4.905-8.579-4.935Zm.148 6.98 2.44-4.24 2.336 1.343-2.453 4.266-2.338-1.344ZM67.197 150.302l-2.245 6.31c.057.02 1.891.674 1.946.692l1.012-2.849 2.003.713c.02-.052.345-.968.366-1.022l-2.006-.712.87-2.44c-.056-.02-1.888-.673-1.946-.692ZM81.816 153.91v1.07h4.95v3.132a9.086 9.086 0 0 1-.38 2.507h1.7a4.45 4.45 0 0 0 .746-2.568v-4.14ZM117.806 147.006c.031.047.527.866.556.914.054-.031 6.243-3.791 6.243-3.791l2.4 3.95a9.14 9.14 0 0 1 .976 2.34c.067-.042 1.427-.868 1.456-.884a4.454 4.454 0 0 0-.698-2.582s-2.891-4.76-2.922-4.81c-.052.03-7.959 4.831-8.01 4.863ZM71.322 151.833l-.192 1.052 7.092 1.287-.245 1.344-.015.08c-.007.043-.015.091-.026.146a5.416 5.416 0 0 1-.48 1.553c.076.015 1.642.298 1.674.304a3.366 3.366 0 0 0 .891-1.774s.412-2.281.422-2.34c-.06-.011-9.059-1.642-9.121-1.652Z" style="fill:#231815"/><path d="m73.961 154.929-.479 2.634-4.506-.817-.19 1.038c.06.01 11.958 2.169 12.02 2.178l.187-1.038-5.478-.993.478-2.636c-.06-.01-1.972-.357-2.032-.366ZM89.972 153.511v7.821l-.024.006a7.145 7.145 0 0 1-.973.188 9.608 9.608 0 0 1-1.271.077h-2.489v-4.107h-1.923v4.107H81.45v1.088h6.159a6.533 6.533 0 0 0 1.278-.124 5.732 5.732 0 0 0 1.04-.31l.045-.017v3.628h2.048v-7.766h1.953v-1.073H92.02v-3.518ZM103.09 151.783c.011.057.696 3.244.696 3.244l-1.295.277s-.682-3.186-.693-3.245c-.062.013-1.855.397-1.91.41.011.058 1.591 7.448 1.591 7.448l-.018.012a3.177 3.177 0 0 1-.597.32 5.014 5.014 0 0 1-.913.275l-2.11.452-1.38-6.456 2.587-.553a160.66 160.66 0 0 0-.226-1.064c-.06.015-4.517.967-4.577.98l1.57 7.336a1.186 1.186 0 0 0 .569.824 1.516 1.516 0 0 0 1.1.12l2.617-.56a3.355 3.355 0 0 0 .935-.332 2.937 2.937 0 0 0 .591-.432l.042-.04.76 3.555 1.912-.41a6431.55 6431.55 0 0 1-1.624-7.593l1.292-.275s1.61 7.533 1.625 7.593c.054-.013 1.852-.396 1.91-.409L105 151.374c-.057.013-1.853.395-1.91.409ZM110.024 158.27c.018.05.374.942.397.993l6.794-2.714s1.157 2.897 1.18 2.951l1.918-.765-1.575-3.946c-.057.024-8.66 3.46-8.714 3.48ZM113.82 148.048c.024.057 2.655 6.645 2.678 6.701.055-.021 1.864-.746 1.918-.765-.02-.056-1.282-3.211-1.282-3.211s1.918-.766 1.975-.787c-.02-.053-.376-.944-.397-.996l-1.975.788-.999-2.497c-.052.022-1.863.743-1.917.767ZM124.094 149.309l2.55 4.2-.98.596s-2.517-4.15-2.551-4.2c-.05.03-1.645 1-1.697 1.03l2.55 4.2-1.712 1.04.548.903c.051-.033 9.697-5.888 9.749-5.919-.029-.05-.52-.855-.548-.904l-3.661 2.223s-2.52-4.147-2.554-4.2c-.046.031-1.642 1-1.694 1.03ZM58.768 157.975c-.555 1.56.451 3.053 2.564 3.806 2.113.75 3.835.23 4.39-1.332.553-1.56-.454-3.053-2.563-3.803-2.113-.751-3.838-.231-4.391 1.329Zm1.86.661a1.718 1.718 0 1 1 1.054 2.158 1.605 1.605 0 0 1-1.054-2.158ZM70.533 161.505c-.296 1.63.937 2.941 3.145 3.342 2.206.398 3.822-.395 4.118-2.025.295-1.63-.94-2.94-3.146-3.339-2.207-.4-3.821.395-4.117 2.022Zm1.941.353a1.718 1.718 0 1 1 1.391 1.956 1.607 1.607 0 0 1-1.39-1.956ZM61.365 148.07l-.433 1.215-2.714-.966c-.018.053-.33.926-.348.98l1.548.55-.073.03a2.524 2.524 0 0 0-1.394 1.558c-.564 1.578.2 2.913 2.04 3.568 1.839.654 3.276.1 3.837-1.477a2.514 2.514 0 0 0-.101-2.087l-.037-.072s1.5.533 1.557.555c.019-.053.33-.927.347-.98l-2.716-.968.432-1.213-1.945-.693Zm-1.708 3.974c.34-.95 1-1.35 1.77-1.076.771.273 1.032 1.003.693 1.952-.337.947-1 1.35-1.77 1.075-.77-.272-1.03-1.003-.693-1.951ZM108.171 150.149c.019.055.478 1.198.478 1.198l-2.678 1.069c.02.052.366.913.384.967l1.526-.612-.031.072a2.512 2.512 0 0 0-.021 2.09c.623 1.556 2.076 2.055 3.887 1.329 1.817-.724 2.528-2.088 1.907-3.643a2.525 2.525 0 0 0-1.455-1.501l-.073-.029s1.476-.59 1.534-.611a127.1 127.1 0 0 0-.384-.965c-.058.022-2.681 1.067-2.681 1.067s-.454-1.141-.477-1.196l-1.916.765Zm1.34 4.112c-.372-.935-.143-1.675.617-1.978s1.438.073 1.811 1.008c.374.935.143 1.674-.617 1.977s-1.438-.073-1.811-1.007Z" style="fill:#231815"/><path d="M146.638 86.28c0-14.313-5.768-28.756-14.51-38.306 3.17 8.049-2.728 23.124-13.904 38.176a137.435 137.435 0 0 0-16.158-17.424 137.23 137.23 0 0 0-14.43-11.505C103.46 45.63 119.4 39.515 127.542 43.16a59.785 59.785 0 0 0-80.651 0c8.145-3.644 24.086 2.47 39.907 14.062a140.981 140.981 0 0 0-30.587 28.93C45.033 71.097 39.132 56.022 42.308 47.973c-8.746 9.55-14.51 23.993-14.51 38.307 0 13.783 4.341 27.817 13.537 38.915-2.136-9.577 3.581-23.182 14.87-37.997 3.846 5.11 8.879 10.13 13.71 14.922a140.16 140.16 0 0 0 14.02 12.193c.738.564 1.483 1.12 2.23 1.66-3.332 2.766-13.328 8.666-16.55 10.11l.646 1.098a133.674 133.674 0 0 0 16.957-10.386c2.245 1.684 11.485 7.902 17.072 10.414l.648-1.095c-5.968-2.714-14.645-8.683-16.669-10.14.746-.54 1.49-1.097 2.23-1.661a140.003 140.003 0 0 0 14.019-12.193c4.832-4.792 9.866-9.812 13.714-14.922 11.285 14.815 16.906 28.186 14.544 38.296 9.337-10.729 13.862-25.43 13.862-39.214Zm-59.42-27.71a137.526 137.526 0 0 1 14.012 11.11 136.173 136.173 0 0 1 15.79 16.996 144.535 144.535 0 0 1-13.374 14.526q-2.943 2.909-5.978 5.597-3.106 2.732-6.3 5.24c-1.355 1.06-2.777 2.081-4.15 3.065-1.374-.984-2.797-2.006-4.155-3.064q-3.186-2.502-6.297-5.241-3.036-2.684-5.976-5.597a144.565 144.565 0 0 1-13.377-14.526A135.348 135.348 0 0 1 87.218 58.57Z" style="fill:url(#a)"/><path d="M91.134 101.071c8.407-4.555 4.793-13.657 4.104-14.777-.348 1.63-1.335 2.141-1.997 3.035a5.459 5.459 0 0 0-1.204 3.608s-1.83-2.62 1.064-6.196c2.687-3.321 1.1-6.533-1.687-8.257a5.182 5.182 0 0 1-1.964 6.118 7.075 7.075 0 0 0-2.79 6.771s-2.133-3.1.966-7.379c3.643-5.029-.963-7.955-1.656-8.4 1.276 2.905-.887 5.567-2.461 7.203-4.542 4.727-7.65 14.28 3.652 18.274v15.904h-14.11V73.04h18.12c5.822 0 13.539 4.342 13.539 14.194s-8.332 13.838-13.576 13.838Z" style="fill:#c9005f"/></svg>