<svg xmlns="http://www.w3.org/2000/svg" width="500.00659" height="500" viewBox="0 0 500.00659 500.00001"><path d="M54.168 0 19.83 19.816 0 54.152v39.66l19.834 34.334 34.338 19.834h39.646l34.34-19.834 19.824-34.333v-39.66l-19.82-34.337-.07-.039L93.818 0Z" style="color:#000;font-style:normal;font-variant:normal;font-weight:400;font-stretch:normal;font-size:medium;font-family:sans-serif;font-variant-ligatures:normal;font-variant-position:normal;font-variant-caps:normal;font-variant-numeric:normal;font-variant-alternates:normal;font-variant-east-asian:normal;font-feature-settings:normal;text-indent:0;text-decoration:none;text-decoration-line:none;text-decoration-style:solid;text-decoration-color:#000;letter-spacing:normal;word-spacing:normal;text-transform:none;writing-mode:lr-tb;direction:ltr;text-orientation:mixed;dominant-baseline:auto;baseline-shift:baseline;text-anchor:start;clip-rule:nonzero;display:inline;overflow:visible;visibility:visible;opacity:1;color-interpolation:sRGB;vector-effect:none;fill:#5c5a5a;fill-opacity:1;fill-rule:nonzero;stroke:none;stroke-width:.6px;stroke-linecap:butt;stroke-linejoin:miter;stroke-miterlimit:4;stroke-dasharray:none;stroke-dashoffset:0;stroke-opacity:1;color-rendering:auto;image-rendering:auto;shape-rendering:auto;text-rendering:auto;enable-background:accumulate;stop-color:#000;stop-opacity:1" transform="scale(3.37882)"/><path d="M54.33.6h39.328l34.063 19.656 19.662 34.056v39.34l-19.664 34.055-34.06 19.674H54.333l-34.06-19.674L.6 93.652v-39.34l19.67-34.056Z" style="color:#000;font-style:normal;font-variant:normal;font-weight:400;font-stretch:normal;font-size:medium;font-family:sans-serif;font-variant-ligatures:normal;font-variant-position:normal;font-variant-caps:normal;font-variant-numeric:normal;font-variant-alternates:normal;font-variant-east-asian:normal;font-feature-settings:normal;text-indent:0;text-decoration:none;text-decoration-line:none;text-decoration-style:solid;text-decoration-color:#000;letter-spacing:normal;word-spacing:normal;text-transform:none;writing-mode:lr-tb;direction:ltr;text-orientation:mixed;dominant-baseline:auto;baseline-shift:baseline;text-anchor:start;clip-rule:nonzero;display:inline;overflow:visible;visibility:visible;opacity:1;color-interpolation:sRGB;vector-effect:none;fill:#fff;fill-opacity:1;fill-rule:nonzero;stroke:none;stroke-width:.6px;stroke-linecap:butt;stroke-linejoin:miter;stroke-miterlimit:4;stroke-dasharray:none;stroke-dashoffset:0;stroke-opacity:1;color-rendering:auto;image-rendering:auto;shape-rendering:auto;text-rendering:auto;enable-background:accumulate;stop-color:#000;stop-opacity:1" transform="scale(3.37882)"/><path d="m100.069 120.826.929 1.226 7.074-5.403 4.521 5.896 1.538-1.192-5.434-7.122z" style="fill:#231815" transform="scale(3.37882)"/><path d="m106.525 130.752 10.232-7.823-.938-1.233-3.965 3.05-3.119-4.072-1.53 1.178 3.116 4.056-1.333 1.034-3.116-4.081-1.525 1.17 3.119 4.065-1.878 1.431zM94.37 123.506l2.164 6.381 1.846-.637-1.015-3.002 1.856-.632-.493-1.456-1.863.641-.647-1.92zM100.243 134.684l-1.662-4.864-10.832 3.694.487 1.456 8.99-3.073 1.162 3.42zM85.964 130.012a2.663 2.663 0 0 0 1.833 1.732 4.243 4.243 0 0 0 2.787-.07 4.078 4.078 0 0 0 2.2-1.632 2.639 2.639 0 0 0 .37-2.472 1.675 1.675 0 0 0-.423-.707 2.362 2.362 0 0 0-.67-.492l1.462-.494-.476-1.408-3.479 1.194-.386-1.124-1.987.667.387 1.135-3.541 1.206.475 1.388 1.6-.538a2.25 2.25 0 0 0-.261.806 2.072 2.072 0 0 0 .109.809zm2.017-1.795a2.079 2.079 0 0 1 1.1-.83 2.037 2.037 0 0 1 1.363 0 1.356 1.356 0 0 1 .916.855 1.337 1.337 0 0 1-.215 1.193 1.975 1.975 0 0 1-1.071.854 2.009 2.009 0 0 1-1.391-.015 1.339 1.339 0 0 1-.878-.825 1.377 1.377 0 0 1 .176-1.232zM81.724 139.736l-.332-12.474-1.848.055.102 3.974-1.658.035-.098-3.97-1.795.039.316 12.494 1.802-.063-.177-6.967 1.654-.031.176 6.983zM70.615 129.079l4-.105-.033-1.54-5.964.16.224 8.277a.86.86 0 0 0 .383.761 1.754 1.754 0 0 0 .878.155l5-.133-.039-1.537-4.273.106zM36.666 118.879l4.735 3.534-.763 1.011c-1.8-1.025-4-1.041-4.926.2-1.056 1.408-.116 3.873 1.778 5.289l.454.338c1.893 1.416 4.518 1.608 5.567.215.915-1.232.322-3.272-1.11-4.711l.77-1.018 4.757 3.557.892-1.2-11.246-8.428zm5.134 9.291c-.577.789-2.116.456-3.163-.314-1.047-.8-1.794-2.178-1.209-2.954.585-.776 2.116-.456 3.157.336s1.8 2.162 1.215 2.932zM41.647 119.051a5.845 5.845 0 0 0 3.233.547 5.451 5.451 0 0 0 1.431 2.925 16.3 16.3 0 0 0 2.341 2.372l1.209-1.065a11.3 11.3 0 0 1-2.541-2.748c-.623-.969-.824-1.957-.47-2.425l-1.623-1.216c-.309.432-1.348.538-2.465.223a10.872 10.872 0 0 1-3.362-1.625l-.008.008-.648 1.44a14.779 14.779 0 0 0 2.903 1.564zM63.67 132.06l1.556-5.288-1.864-.555-1.571 5.304zM52.447 130.983l8.746 2.57-.254.87-8.745-2.587-.772 2.641a1.08 1.08 0 0 0 .04.9 1.29 1.29 0 0 0 .754.493l9.5 2.8.424-1.431-8.661-2.571.261-.877 8.662 2.554 1.084-3.678-10.606-3.141zM56.673 127.348a5.3 5.3 0 0 0 1.394 2.1 9.251 9.251 0 0 0 2.3 1.449l.808-1.378a5.34 5.34 0 0 1-2.693-2.457 3.331 3.331 0 0 1 0-2.262l-2.018-.6a3.344 3.344 0 0 1-1.254 1.923 5.442 5.442 0 0 1-3.611.6v.008l-.076 1.555a9.742 9.742 0 0 0 2.662.031 5.45 5.45 0 0 0 2.488-.969zM27.628 32.529a3.529 3.529 0 0 0 1.208-.9c.332-.406.356-.715.131-.9-.208-.176-.492-.077-1.069.285a1.929 1.929 0 0 1-2.332.124c-.762-.624-.825-1.772.091-2.872a3.748 3.748 0 0 1 1.2-1l.721 1.015a3.03 3.03 0 0 0-.991.786c-.293.354-.324.647-.132.814.224.172.5.018 1.162-.351a1.805 1.805 0 0 1 2.264-.054c.747.639.908 1.731-.147 3.024a4.248 4.248 0 0 1-1.331 1.055zM36.08 25.832a2.658 2.658 0 0 1-3.947-.353 2.775 2.775 0 0 1 .137-4.08 2.675 2.675 0 0 1 3.965.324 2.721 2.721 0 0 1-.139 4.109zm-.745-.939c.554-.493.4-1.3-.277-2.063-.647-.738-1.471-1-2.018-.508-.547.492-.385 1.342.263 2.072.669.76 1.484 1 2.032.506zM43.756 20.184a2.661 2.661 0 0 1-3.811-1.1 2.76 2.76 0 0 1 .885-3.972 2.668 2.668 0 0 1 3.835 1.038 2.716 2.716 0 0 1-.9 4.014zm-.562-1.073c.63-.377.63-1.207.108-2.078-.5-.838-1.255-1.236-1.887-.869-.632.367-.631 1.248-.13 2.071.523.884 1.278 1.263 1.9.884zM50 16.826l-1.98-5.311 1.678-.624 1.454 1.316a18.1 18.1 0 0 1 1.518 1.563l.024-.022a22.62 22.62 0 0 1-.94-2.187l-.469-1.255 1.308-.486 1.971 5.314-1.5.554-1.556-1.424a22.546 22.546 0 0 1-1.608-1.6l-.024.017c.308.71.617 1.493.932 2.355l.484 1.311zM63.7 12.731a7.126 7.126 0 0 1-1.861.693 3.3 3.3 0 0 1-2.487-.3 2.751 2.751 0 0 1-1.178-1.856c-.361-1.924.886-3.2 2.685-3.542a4.267 4.267 0 0 1 1.663-.039l-.069 1.24a3.534 3.534 0 0 0-1.363.031 1.522 1.522 0 0 0-1.362 1.924 1.543 1.543 0 0 0 1.894 1.342 1.769 1.769 0 0 0 .461-.142l-.183-.952-.749.138-.22-1.156 2.184-.424zM68.228 10.976a3.389 3.389 0 0 0 1.5.26c.522-.029.761-.213.738-.506-.008-.269-.271-.417-.924-.6-.969-.276-1.639-.77-1.7-1.6-.054-1 .741-1.817 2.172-1.91a3.7 3.7 0 0 1 1.547.2l-.253 1.233a2.794 2.794 0 0 0-1.24-.184c-.462.015-.708.184-.693.446.023.293.332.384 1.056.607 1.045.309 1.522.838 1.576 1.619.056.976-.647 1.845-2.3 1.946a4.312 4.312 0 0 1-1.686-.231zM78.235 6.657l-.206 5.658-1.51-.045.193-5.659zM83.516 7.08l1.495.225-.648 4.342 2.155.324-.185 1.26-3.654-.563zM98.4 12.692l-.016-.007-1.184-.017.255-1.123 1.7.023 1.13.532-2.27 4.957-1.332-.615zM107.466 16.265c1.114.792 1.1 1.739.724 2.27a1.311 1.311 0 0 1-1.3.515l-.007.024a1.433 1.433 0 0 1 0 1.649c-.576.815-1.663.878-2.772.091-1.215-.878-1.248-1.894-.83-2.478a1.382 1.382 0 0 1 1.531-.539l.015-.03a1.337 1.337 0 0 1 .069-1.4 1.773 1.773 0 0 1 2.565-.1zm-2.695 3.763a.59.59 0 0 0 .817-.123.838.838 0 0 0-.132-1.03.684.684 0 0 0-.825.236.649.649 0 0 0 .14.9zm2.071-2.971a.5.5 0 0 0-.738.124c-.171.231-.057.569.167.893a.613.613 0 0 0 .677-.2.551.551 0 0 0-.1-.818zM110.09 24.194c.106.123.2.222.368.391a2.312 2.312 0 0 0 .925.555 1.391 1.391 0 0 0 1.055-.092l-.008-.03a1.4 1.4 0 0 1-.924-.493 1.655 1.655 0 0 1-.015-2.441 2.038 2.038 0 0 1 2.917.132 2.14 2.14 0 0 1-.153 3.218A3.216 3.216 0 0 1 111.8 26.5a3.527 3.527 0 0 1-2.162-1.1 3.367 3.367 0 0 1-.37-.393zm3.51-1.232c-.239-.254-.647-.214-.977.124a.664.664 0 0 0-.077.991.623.623 0 0 0 .577.207.568.568 0 0 0 .277-.2c.317-.284.553-.768.215-1.123zM121.528 30.76l-.746.585-4.918 1-.985-1.285 4.673-.793.015-.016-1.479-1.932.986-.747z" style="fill:#231815" transform="scale(3.37882)"/><path d="M56.16 107.163H41.808c.167 0 .687-.7.819-.834.275-.313.542-.637.792-.977a10.986 10.986 0 0 0 1.453-2.764 13.81 13.81 0 0 0-.233-10.279c-1.454-3.149-3.722-5.9-5.312-8.494-2.581-4.222-4.4-8.956-4.012-13.993a16.028 16.028 0 0 1 3.866-9.088H52.99c-3.908 3.713-5.062 8.93-3.67 14.3.76 2.972 2.683 5.752 4.158 8.012a55.033 55.033 0 0 1 4.329 7.415 17.229 17.229 0 0 1 1.172 10.223 16.746 16.746 0 0 1-1.675 4.756c-.135.238-.837 1.723-1.144 1.723z" style="fill:#009bcb" transform="scale(3.37882)"/><path d="M64.124 93.6H87.94V54.354H56.594c-2.367 2.084-3.819 6.254-2.775 10.527.813 3.35 3.236 6.367 5.394 9.234 3.429 4.55 7.175 9.668 6.127 15.731a12.409 12.409 0 0 1-1.216 3.754Z" style="fill:#60c1c3" transform="scale(3.37882)"/><path d="M10.679 54.354V93.6h23.439a9.682 9.682 0 0 0-.042-7.271c-2.264-5.532-5.944-8.519-7.992-13.348-1.936-4.569-2.158-8.745-.482-14.748a33.046 33.046 0 0 1 1.646-3.883z" style="fill:#006694" transform="scale(3.37882)"/><path d="M136.051 54.354H116.59v31.132c.01.156-.028.913-.066 1.689-.218 4.875-1.366 5.85-2.579 6.429h22.106z" style="fill:#009bcb" transform="scale(3.37882)"/><path d="M93.236 60.776v38.908l.018.633a6.438 6.438 0 0 0 12.864.123l.011-.756V60.776Z" style="fill:#006694" transform="scale(3.37882)"/></svg>