<svg xmlns="http://www.w3.org/2000/svg" viewBox="0 0 335.749 335.778"><path d="M167.109 53.347h1.416v228.184h-1.416z" style="fill:#6f7271"/><path d="m173.078 281.415-11.919-227.87 1.421-.082 11.929 227.874-1.431.078z" style="fill:#6f7271"/><path d="M179.066 281.01 155.17 54.055l1.445-.163 23.844 226.944-1.393.174z" style="fill:#6f7271"/><path d="M184.963 280.239 149.23 54.855l1.464-.212 35.676 225.384-1.407.212z" style="fill:#6f7271"/><path d="M190.822 279.179 143.386 55.982l1.402-.289 47.44 223.197-1.406.289z" style="fill:#6f7271"/><path d="M196.642 277.83 137.59 57.428l1.412-.366 59.007 220.402-1.367.366z" style="fill:#6f7271"/><path d="M202.374 276.173 131.9 59.152l1.33-.448 70.532 217.026-1.388.443z" style="fill:#6f7271"/><path d="M208.031 274.208 126.259 61.176l1.359-.511 81.762 213.022-1.349.521z" style="fill:#6f7271"/><path d="M213.562 271.972 120.781 63.503l1.277-.607 92.833 208.479-1.329.597z" style="fill:#6f7271"/><path d="M218.977 269.428 115.385 66.104l1.263-.635 103.61 203.304-1.281.655z" style="fill:#6f7271"/><path d="M224.238 266.595 110.182 68.986l1.2-.718 114.089 197.614-1.233.713z" style="fill:#6f7271"/><path d="M229.354 263.512 105.085 72.16l1.195-.795 124.269 191.376-1.195.771z" style="fill:#6f7271"/><path d="M234.297 260.178 100.181 75.552l1.17-.848 134.112 184.607-1.166.867z" style="fill:#6f7271"/><path d="M239.057 256.536 95.469 79.228l1.113-.915 143.592 177.355-1.117.868z" style="fill:#6f7271"/><path d="M288.817 183.558h1.429v228.185h-1.429z" style="fill:#6f7271" transform="rotate(-41.997 59.042 391.096)"/><path d="M247.989 248.615 86.638 87.278l.997-1.026 161.347 161.362-.993 1.001z" style="fill:#6f7271"/><path d="M252.132 244.318 82.552 91.619l.969-1.055 169.565 152.675-.954 1.079z" style="fill:#6f7271"/><path d="M256.025 239.789 78.727 96.201l.853-1.118 177.36 143.608-.915 1.098z" style="fill:#6f7271"/><path d="M259.697 235.077 75.094 100.946l.834-1.136 184.597 134.101-.828 1.166z" style="fill:#6f7271"/><path d="M263.126 230.173 71.741 105.894l.771-1.18 191.376 124.264-.762 1.195z" style="fill:#6f7271"/><path d="M266.249 225.086 68.663 111.001l.713-1.224L266.98 223.852l-.731 1.234z" style="fill:#6f7271"/><path d="M269.139 219.863 65.82 116.281l.655-1.296 203.3 103.625-.636 1.253z" style="fill:#6f7271"/><path d="M271.75 214.506 63.315 121.672l.559-1.3 208.483 92.823-.607 1.311z" style="fill:#6f7271"/><path d="M274.063 208.994 61.055 127.218l.487-1.34 213.031 81.787-.51 1.329z" style="fill:#6f7271"/><path d="M276.096 203.367 59.08 132.854l.444-1.353 217.015 70.498-.443 1.368z" style="fill:#6f7271"/><path d="M277.83 197.663 57.413 138.592l.366-1.378 220.408 59.061-.357 1.388z" style="fill:#6f7271"/><path d="M279.256 191.853 56.05 144.403l.275-1.383 223.239 47.435-.308 1.398z" style="fill:#6f7271"/><path d="M280.374 185.98 55 150.314l.231-1.431 225.355 35.69-.212 1.407z" style="fill:#6f7271"/><path d="M281.184 180.069 54.263 156.216l.163-1.431 226.912 23.886-.154 1.398z" style="fill:#6f7271"/><path d="M281.684 174.138 53.834 162.18l.072-1.431 227.856 11.939-.078 1.45z" style="fill:#6f7271"/><path d="M53.713 166.723h228.183v1.426H53.713z" style="fill:#6f7271"/><path d="m53.906 174.138-.072-1.45 227.87-11.939.058 1.431-227.856 11.958z" style="fill:#6f7271"/><path d="m54.426 180.069-.163-1.398 226.921-23.876.154 1.421-226.912 23.853z" style="fill:#6f7271"/><path d="M55.231 185.98 55 184.573l225.393-35.69.203 1.431L55.231 185.98z" style="fill:#6f7271"/><path d="m56.325 191.862-.275-1.407 223.206-47.435.308 1.383-223.239 47.459z" style="fill:#6f7271"/><path d="m57.779 197.663-.366-1.388 220.417-59.061.385 1.378-220.436 59.071z" style="fill:#6f7271"/><path d="m59.524 203.377-.444-1.378 217.016-70.498.443 1.353-217.015 70.523z" style="fill:#6f7271"/><path d="m61.542 208.994-.487-1.329 213.008-81.787.51 1.34-213.031 81.776z" style="fill:#6f7271"/><path d="m63.864 214.515-.587-1.3 208.473-92.829.588 1.286-208.474 92.843z" style="fill:#6f7271"/><path d="m66.461 219.883-.646-1.273 203.324-103.625.636 1.296L66.461 219.883z" style="fill:#6f7271"/><path d="m69.376 225.124-.713-1.272 197.586-114.075.713 1.224L69.376 225.124z" style="fill:#6f7271"/><path d="m72.507 230.193-.79-1.195 191.362-124.284.799 1.18L72.507 230.193z" style="fill:#6f7271"/><path d="m75.928 235.087-.858-1.156L259.697 99.81l.828 1.136L75.928 235.087z" style="fill:#6f7271"/><path d="m79.58 239.809-.906-1.099L256.025 95.083l.886 1.118L79.58 239.809z" style="fill:#6f7271"/><path d="m83.497 244.337-.945-1.059L252.103 90.564l.945 1.055L83.497 244.337z" style="fill:#6f7271"/><path d="m87.635 248.635-1.012-1.021L247.989 86.252l.993 1.026L87.635 248.635z" style="fill:#6f7271"/><path d="m91.99 252.72-1.05-.982L243.624 82.162l1.06.954L91.99 252.72z" style="fill:#6f7271"/><path d="m96.548 256.555-1.108-.887L239.038 78.313l1.118.915L96.548 256.555z" style="fill:#6f7271"/><path d="m101.327 260.178-1.175-.829L234.278 74.704l1.175.848-134.126 184.626z" style="fill:#6f7271"/><path d="m106.251 263.541-1.2-.8L229.344 71.365l1.205.795-124.298 191.381z" style="fill:#6f7271"/><path d="m111.353 266.634-1.253-.732L224.218 68.277l1.253.709-114.118 197.648z" style="fill:#6f7271"/><path d="m116.633 269.428-1.272-.655L218.977 65.469l1.243.635-103.587 203.324z" style="fill:#6f7271"/><path d="m122.038 271.972-1.305-.579 92.829-208.497 1.31.607-92.834 208.469z" style="fill:#6f7271"/><path d="m127.56 274.237-1.32-.531 81.791-213.041 1.32.525-81.791 213.047z" style="fill:#6f7271"/><path d="m133.23 276.173-1.373-.443 70.517-217.026 1.359.448-70.503 217.021z" style="fill:#6f7271"/><path d="m138.949 277.85-1.359-.376 59.052-220.412 1.367.366-59.06 220.422z" style="fill:#6f7271"/><path d="m144.783 279.199-1.397-.28 47.436-223.226 1.397.289-47.436 223.217z" style="fill:#6f7271"/><path d="m150.675 280.239-1.445-.212 35.714-225.384 1.426.212-35.695 225.384z" style="fill:#6f7271"/><path d="m156.587 281.01-1.417-.154 23.834-226.955 1.43.154-23.847 226.955z" style="fill:#6f7271"/><path d="m162.566 281.434-1.46-.086 11.943-227.885 1.445.082-11.928 227.889z" style="fill:#6f7271"/><path d="M289.544 130.222c-92.564.019-167.87 75.33-167.827 167.913 0 92.592 75.359 167.9 167.889 167.865 92.6-.009 167.86-75.34 167.86-167.952-.009-92.563-75.33-167.855-167.922-167.826Zm0 329.669A161.78 161.78 0 1 1 451.329 298.1a161.783 161.783 0 0 1-161.785 161.791Z" style="fill:#6f7271" transform="translate(-121.717 -130.222)"/><path d="m276.974 188.907-4.606 2.052a16.293 16.293 0 0 1-3.7 1.055l-1.233.183-1.647 4.49s1.358.01 2.153.02c-.679 1.879-2.751 7.467-2.751 7.467-.034.01-.255.655-.39.911l-1.913.3-.544 1.118-1.436 3.445h10.354l1.772-4.365s-1.387-.2-2.119-.308c.655-1.794 6.06-16.368 6.06-16.368ZM289.154 192.434a4.629 4.629 0 0 0-3.768-1.682h-.024c-3.565 0-7.116 3.242-7.916 7.236a9.241 9.241 0 0 0-.1 1.3 5.17 5.17 0 0 0 1.181 3.368 4.152 4.152 0 0 0 1.421 1.122 8.333 8.333 0 0 1-3.618 1.672l-1.566.332-.4 4.553 2.293-.005a15.329 15.329 0 0 0 3.681-.824 15.631 15.631 0 0 0 9.862-11.519c.235-1.287.481-3.761-1.046-5.553Zm-4.7 3.776a3.7 3.7 0 0 1-.111.815s-.3.939-.539 1.618a2.026 2.026 0 0 1-.342.14v-.019a2.332 2.332 0 0 1 .053-.559 3.789 3.789 0 0 1 .941-1.995Z" style="fill:#fff" transform="translate(-121.717 -130.222)"/><path d="M299.892 197.025a7.946 7.946 0 0 1 1.32-.815l3.773-1.137.322-1.541.217-3.382-2.65.515-.515.087-2.818.684a14.878 14.878 0 0 0-10.387 11.606 6.907 6.907 0 0 0-.145 1.267 2.1 2.1 0 0 1-.178.241s.159-.043.159-.063c0 .063-.068.15-.068.174a5.662 5.662 0 0 0 1.282 3.815 4.932 4.932 0 0 0 3.873 1.754c3.734 0 7.343-3.276 8.1-7.438a11.706 11.706 0 0 0 .13-1.383 5.385 5.385 0 0 0-1.123-3.445 4.683 4.683 0 0 0-1.292-.939Zm-3.666 4.774a3.229 3.229 0 0 1-.067.636 4 4 0 0 1-1.234 2.51 4.64 4.64 0 0 1 .14-1.05 6.541 6.541 0 0 1 .578-1.874 3.161 3.161 0 0 1 .583-.265ZM316.2 192.323a4.41 4.41 0 0 0-3.516-1.571h-.039c-5.637 0-9.058 7.882-9.771 11.683-.438 1.874-.636 4.466.825 6.239a4.377 4.377 0 0 0 3.483 1.556c5.656 0 9.095-7.973 9.885-11.837.386-1.807.559-4.322-.867-6.07Zm-5.087 5.217a26.4 26.4 0 0 1-2.294 5.777 27.288 27.288 0 0 1 2.294-5.777Z" style="fill:#fff" transform="translate(-121.717 -130.222)"/><path d="m264.072 207.821.227-.52c1.951-.226 2.124-.347 2.862-2.375l3.218-8.716c.539-1.4.458-1.507-.708-1.541l-.892-.029.193-.569a13.758 13.758 0 0 0 4.24-1.2l-4.443 12.059c-.756 2.028-.606 2.149 1.282 2.375l-.212.52ZM284.914 193.619c2.187 0 1.715 2.794 1.522 3.8a13.25 13.25 0 0 1-.934 2.823 4.494 4.494 0 0 1-2.188.713c-1.691 0-2.216-1.358-1.879-3.141.391-2.12 1.788-4.191 3.479-4.191Zm.448-.752c-2.481 0-5.232 2.525-5.772 5.526-.477 2.216.694 3.816 2.472 3.816a3.31 3.31 0 0 0 1.286-.347l1.807-.853a12.851 12.851 0 0 1-8.431 6.538l-.063.65a11.294 11.294 0 0 0 2.973-.679 13.376 13.376 0 0 0 8.489-9.915c.409-2.159-.02-4.736-2.737-4.736ZM296.269 199.636c2.1 0 2.226 1.8 1.981 3.189-.521 2.674-1.981 4.548-3.6 4.548-1.826 0-2.024-1.99-1.667-3.883a10.772 10.772 0 0 1 1-3.093 5.2 5.2 0 0 1 2.288-.761Zm6.986-6.875a18.954 18.954 0 0 0-3.064.7 12.98 12.98 0 0 0-9 9.991c-.51 2.708.6 4.674 2.886 4.674 2.6 0 5.4-2.419 6.023-5.748.409-2.149-.516-3.97-2.645-3.97a4.653 4.653 0 0 0-1.426.405l-1.576.756-.034-.024a12.179 12.179 0 0 1 6.037-5.3 12.351 12.351 0 0 1 2.746-.809ZM312.423 193.619c1.561 0 1.311 2.1 1 3.55-.454 2.241-3.084 10.2-5.965 10.2-1.455 0-1.282-2.057-.954-3.647.5-2.361 3.045-10.107 5.916-10.107Zm.222-.752c-4.076 0-7.043 6.528-7.757 10-.544 2.519-.3 5.266 2.294 5.266 4.047 0 7.091-6.577 7.794-10.166.511-2.375.309-5.1-2.292-5.1Z" style="fill:#6f7271" transform="translate(-121.717 -130.222)"/><path d="M349.4 314.8c-16.457-42.5-1.088-77.643-1.088-77.643l-18.96-20.757h-79.434l-18.977 20.75s15.354 35.14-1.113 77.643c-2.824 7.289-8.773 28.015 2.225 45.9 12.551 20.428 42.763 33.522 57.592 41.25v-.193l.029.193c14.771-7.728 44.968-20.822 57.553-41.25 11.004-17.883 4.991-38.609 2.173-45.893Z" style="fill:#fff" transform="translate(-121.717 -130.222)"/><path d="M148.027 285.315c-2.876.785-8.759 3.257-8.951 7.968-.063 2.9 2.033 4.761 5.087 4.89 3.194.106 5.29-1.768 7.251-5.357 2.5-4.572 5.637-7.848 10.425-7.646 5.6.217 9.868 4.274 9.588 11a19.465 19.465 0 0 1-1.6 6.47c-1.9.12-4.216.342-7.694.655l-.328-1.9c3.132-.838 7.111-2.162 7.251-5.983.12-2.9-2.033-4.538-4.741-4.635-2.6-.091-4.543 1.528-6.557 5.425-2.447 4.8-5.694 7.979-10.864 7.766-6.08-.241-10.445-4.875-10.166-11.789a13.821 13.821 0 0 1 1.012-4.808 18 18 0 0 1 1.287-2.794c1.358-.342 4.928-.776 8.411-1.137ZM165.573 323.047c.892 4.607-3.589 8.094-11.659 9.636-7.66 1.465-11.726-.347-12.415-4.047-.944-4.894 4.288-8.527 11.49-9.905 6.914-1.33 11.876.356 12.584 4.24Zm2.067.213c-1.642-8.726-10.093-11.467-16.828-10.181-7.747 1.461-12.864 7.54-11.409 15.181 1.374 7.217 8.171 11.669 16.939 9.992 8.075-1.522 12.633-8.016 11.3-14.954ZM159.975 370.551a20.8 20.8 0 0 0-3.435 1.821 29.263 29.263 0 0 1-5.083-7.131c-3.613-7.968-.973-15.339 6.827-18.9 8.8-4 16.222.317 19.483 7.477a28.693 28.693 0 0 1 2.062 7.14c-1.243.693-3.165 1.792-6.33 3.536l-.834-1.349c4.182-3.237 4.264-6.427 2.987-9.154-1.918-4.249-7.366-5.675-14.212-2.611-6.023 2.775-10.628 7.747-7.974 13.47a2.6 2.6 0 0 0 1.219 1.484 2.626 2.626 0 0 0 2.4-.26l3.46-1.561c2.529-1.156 2.712-1.474 1.44-5.213l1.474-.674 4.75 10.493-1.435.684c-1.2-1.542-1.392-1.734-3.8-.617ZM175.088 382.238c2.915-1.05 5.777-2.129 8.817-3.189l.048.1-5.386 7.611Zm2.067 6.427a121.642 121.642 0 0 1-2.688 4.191c-1.055 1.668-1.5 1.783-3.238.068l-1.247.983 6.624 8.566 1.238-.973c-1-1.812-1.238-2.5.973-5.9 2.409-3.623 5.425-8.036 8.422-12.382l4.678-6.832-1.8-1.377-21.873 7.14c-3.628 1.176-4.283.838-5.887-.781l-1.253.954 5.343 6.957 1.248-.983c-1.518-2.37-1.108-2.64.887-3.507 1.594-.665 3.295-1.33 4.326-1.657ZM198.2 396.22c1.691-2.13 2.361-2.93 2.443-4.153.067-1.244-.511-2.072-1.585-3.19l.968-1.233 5.488 4.432-.646 23.453.077.067 4.668-5.752a68.117 68.117 0 0 0 4.24-5.713c.814-1.369.487-2.554-1.388-4.356l.964-1.224 7.6 6.167-1.029 1.234c-1.484-1.061-2.626-1.157-3.806-.02a61.728 61.728 0 0 0-4.862 5.319l-10.444 12.854-1.985-1.619 1.32-25.187-.087-.039-5.569 6.918a50.609 50.609 0 0 0-4.182 5.695c-.906 1.4-.573 2.535 1.33 4.278l-1.022 1.244-7.607-6.206 1-1.233c1.6 1.117 2.732 1.253 3.922.1a53.974 53.974 0 0 0 4.808-5.261ZM234.284 436.592a20.157 20.157 0 0 0-1.489 3.547 31.618 31.618 0 0 1-8.45-2.275c-7.886-3.844-10.493-11.273-6.677-18.943 4.254-8.691 12.7-10.031 19.82-6.571a28.861 28.861 0 0 1 6.075 4.181c-.52 1.368-1.354 3.43-2.611 6.764l-1.556-.481c1.219-5.165-.771-7.689-3.474-9.039-4.177-2.023-9.313.309-12.627 7.053-2.9 5.927-3.3 12.691 2.341 15.475a2.515 2.515 0 0 0 1.9.366c.563-.115 1.127-.578 1.69-1.715l1.677-3.43c1.224-2.515 1.19-2.861-2.182-4.933l.708-1.427 10.334 5.069-.713 1.445c-1.893-.462-2.144-.462-3.315 1.908ZM262.338 423.873c.559-4.682.2-5.1-3.214-5.858l.246-1.917 14.111 1.7-.269 1.956c-3.44-.086-3.975.241-4.549 4.895l-1.324 10.936c-.916 7.68.876 12.18 5.873 12.8 5.362.645 8.3-3.576 9.327-11.988l.631-4.991a54.2 54.2 0 0 0 .4-7.718c-.019-1.792-1.035-2.611-4.1-3.208l.221-1.928L291.49 420l-.236 1.927c-2.37-.154-3.541.463-4.047 2.245a73.829 73.829 0 0 0-1.363 7.564l-.641 5.2c-.617 5.107-1.932 9.558-4.861 12.237a11.444 11.444 0 0 1-9.221 2.679c-3.156-.4-6.061-1.417-8.157-3.787-2.139-2.457-2.8-6.263-2.066-12.227ZM299.074 432.141c-.377-2.689-.536-3.681-1.393-4.577-.9-.9-1.846-1.05-3.425-1.012l-.275-1.561 6.981-1.021 16.858 16.323h.1l-1.079-7.305a59.714 59.714 0 0 0-1.35-7.033c-.424-1.5-1.522-2.1-4.124-1.87l-.25-1.6 9.674-1.407.231 1.6c-1.84.386-2.659 1.157-2.611 2.8a57.4 57.4 0 0 0 .664 7.188l2.361 16.352-2.533.375-17.624-17.98h-.092l1.287 8.827a68.813 68.813 0 0 0 1.358 6.928c.477 1.57 1.542 2.11 4.047 1.9l.241 1.571-9.679 1.435-.255-1.59c1.884-.395 2.742-1.147 2.717-2.775a50.871 50.871 0 0 0-.6-7.159ZM328.939 423.931c-1.118-3.3-1.571-3.5-4.336-2.852l-.511-1.484 11.042-3.758.511 1.523c-2.611 1.176-2.852 1.58-1.715 4.895l5.164 15.2c1.118 3.314 1.562 3.5 4.3 2.833l.539 1.522-11.033 3.762-.511-1.531c2.592-1.186 2.852-1.571 1.715-4.895ZM362.451 433.576c-5.916-5.405-14.184-12.805-17.47-15.725-2.62-2.322-3.3-2.322-5.328-1.513l-.809-1.406 9.906-5.54.809 1.416c-2.332 1.638-2.2 1.946-.906 3.218 1.6 1.57 7.988 7.352 12.526 11.341l.106-.058c-.954-5.7-2.111-11.553-2.968-15.349-.607-2.766-1.011-3.209-3.8-1.927l-.8-1.426 8.075-4.471.789 1.368c-1.907 1.436-2.321 1.965-1.753 6.147.453 3.2 2.149 13.8 3.729 22.74ZM370.525 401.991c-2.293-2.621-2.8-2.621-5.058-.954l-1.05-1.233L378 387.875c.521.5 2.7 2.7 4.645 4.626l-1.1 1.2a7.934 7.934 0 0 0-3.507-1.725c-.964-.116-2.062.424-3.633 1.812l-1.165.983c-.983.905-1.06 1.1-.135 2.138l5.55 6.3 1.908-1.7c2.5-2.178 2.456-2.448.7-5.136l1.166-1.069 6.138 6.956-1.215 1.051c-2.514-2.159-2.765-2.245-5.27-.048l-1.946 1.7 4.913 5.549c1.321 1.542 2.073 2.14 2.911 1.89a8.378 8.378 0 0 0 2.659-1.812c1.253-1.137 2.332-2.506 2.245-3.845a13.386 13.386 0 0 0-1.185-4.452l1.417-.751c1 1.493 3.237 5.2 3.748 6.292l-14.762 12.97-1.031-1.195c2.342-2.467 2.4-2.911.115-5.531ZM390.047 379.743c-.674-.5-.964-.809-1.022-1.195a2.285 2.285 0 0 1 .588-1.484c1.2-1.571 4.009-2.7 7.372-.135a6.462 6.462 0 0 1 2.861 4.52 4.979 4.979 0 0 1-1.3 3.5l-.6.781Zm11.2 14.877c2.756 2.1 2.814 2.592 1.224 5.107l1.311.954 7.024-9.26-1.272-.973c-1.965 2.129-2.448 2.226-5.242.106l-4.885-3.7.5-.655c.751-.964 1.436-1.108 2.766-.82a56.006 56.006 0 0 0 7.149 1.331c3.025.221 4.721-.107 7.853-3.865.328-.385.569-.693.877-1l-1.079-1.06a5.108 5.108 0 0 1-2.718.762 34.962 34.962 0 0 1-5.6-.328c-2.235-.183-5.309-.838-6.581-1.079a7.242 7.242 0 0 0-2.852-8.094 6.357 6.357 0 0 0-5.9-1.243c-1.734.559-3.353 1.985-5.348 4.625l-6.446 8.5 1.272.982c1.937-2.042 2.361-2.158 5.088-.076ZM415.427 369.144c2.428.385 7.669.472 9.4-3.007 1.041-2.129.077-4.268-2.206-5.357-2.39-1.195-4.578-.462-7.237 1.552-3.42 2.688-6.851 4.056-10.425 2.341-4.124-2.043-5.974-6.533-3.566-11.486a15.064 15.064 0 0 1 3.392-4.326c1.465.55 3.3 1.127 6.013 2.072l-.376 1.523c-2.649-.425-6.08-.733-7.477 2.1-1.031 2.12.067 4.066 2.033 5.029 1.937.964 3.931.366 6.774-1.888 3.411-2.8 6.879-4.124 10.724-2.226 4.529 2.226 6.273 7.159 3.739 12.228a11.213 11.213 0 0 1-2.371 3.333 15.817 15.817 0 0 1-1.9 1.667c-1.146-.193-3.95-1.069-6.7-1.917ZM412.9 341.875c-3.353-1.069-3.748-.809-4.895 1.792l-1.522-.481 3.584-11.1 1.494.5c-.607 2.756-.424 3.237 2.91 4.268l15.3 4.9c3.334 1.05 3.719.809 4.885-1.831l1.5.52-3.546 11.091-1.513-.482c.588-2.775.423-3.228-2.919-4.268ZM414.618 320.022l-.145.973c-.414 2.89.029 3.912.6 4.539a12.224 12.224 0 0 0 3.863 2.12l-.221 1.541c-3.325-.616-6.177-1.272-8.287-1.638l.116-.9a1.848 1.848 0 0 0 1.31-1.86l2.168-15.368a2.1 2.1 0 0 0-.732-2.173l.087-.877c1.792.236 5.3.51 8.305.727l-.106 1.561c-2.361.14-3.748.429-4.49.93-.8.535-1.242 1.744-1.522 3.8l-.222 1.464 19.473 2.741c3.488.5 3.854.15 4.625-3.208l1.561.226-1.734 12.57-1.58-.251c.115-3.218-.068-3.68-3.546-4.163ZM431.152 292.368a4.647 4.647 0 0 0-2.37.742c-2.332 1.209-4.953 2.814-9.462 5.545-2.64 1.614-2.833 2.091-3.036 4.1l-1.59.121-.742-10.835 1.591-.121c.549 2.544.944 2.452 2.225 1.783 2.824-1.547 5.945-3.378 8.624-5.006-2.235-.944-6.426-2.554-9.076-3.31-1.542-.443-1.928-.352-2.062 2.53l-1.61.125-.664-9.173 1.638-.1c.424 2.366 1 2.958 3.68 4.2a83.834 83.834 0 0 0 8.556 3.666 5.819 5.819 0 0 0 3.431.559l4.846-.371c3.748-.255 3.98-.569 4.057-3.994l1.59-.125.9 12.5-1.629.111c-.5-3.219-.78-3.522-4.519-3.238ZM286.186 169.315c-1.448.59-1.448.81-2.714.82a3.942 3.942 0 0 1-1.658-.118c-.657-.179-.856-.2-1.563-.386-.989-.268-3.43-.623-3.5-4.133-.12-3.771-.358-7.436.266-8.139.608-.721.349-1.373.418-1.92.039-.558.757-.764 1.146-.713a8.722 8.722 0 0 0 2.16.3 14.9 14.9 0 0 1 1.686-.345 2.713 2.713 0 0 0 2.327-.651s1.9-1.486 1.964-2.565c.067-1.118-.241-2.508-2.66-2.5a40.665 40.665 0 0 1-5.515-.3 82.859 82.859 0 0 0-2.62-.307 3.045 3.045 0 0 0-3.07.72c-1.016 1.015-.8 1.664-.462 2.234.535.911 2.484 1.636 2.344 2.078-.125.473-1.066 1.095-1.261 1.458-.257.348-.726.905-.488 1.511a1.82 1.82 0 0 1-.561 1.879 3.745 3.745 0 0 0-.6 2.48l.15 8.156s-.945 5.92 8.662 6a35.016 35.016 0 0 0 6.472-.591c.687-.217.883-.828 1.368-1.344a3.112 3.112 0 0 0 .218-2.073 1.966 1.966 0 0 0-2.509-1.551ZM307.768 159.843a83.875 83.875 0 0 0-1.051-10.081c-.041-.2.143-2.915-1.029-3.047a3.691 3.691 0 0 0-1.86.139 1.313 1.313 0 0 0-1.417 1.526c.095 1.653-.449 3.266-.437 4.513.017.661.235 7.948.445 10.632-1.094.056-2.524.077-3.438.095-.106-5.592-.468-13.671-2.109-14.792-1.246-.846-1.634-1.326-2.668-1.079a1.3 1.3 0 0 0-1.064.675 2.908 2.908 0 0 0-.016 2.237c.346 1.325.168 12.89.307 15.365s.057 8.064.649 8.414a1.586 1.586 0 0 0 2.069-.181c.844-.709 2.345-.162 3.058-.836.305-.287.006-3.288-.108-4.621a4.639 4.639 0 0 1-.043-.638c.209-.1.532-.22.915-.388a4.967 4.967 0 0 1 2.674-.175c.163 2.379.286 4.944.325 5.07a2.218 2.218 0 0 0 2.277 2.181c2.581.03 2.954-.693 3.431-3.041s-.788-8.421-.91-11.968ZM226.519 175.961c2.272-1.428 2.73-4.388 2.6-6.656-.108-2.251-1.279-7.548-3.59-8.284-1.729-.566-2.377-.16-2.606-.041-.518.277-1.231 1.005-1.682 1.178a19.677 19.677 0 0 0-3.466 1.461 35.966 35.966 0 0 1-5.559 2.169 11.408 11.408 0 0 1-2.266.1c-.688.065-1.128 1.227-1.128 1.227s-.933 2.733-.305 4.019c.6 1.286 1.566 1.913 4.114.875a7.692 7.692 0 0 0 3.572-2.7c.83-.829 3.433-4.007 5.1-3.749 1.691.235 2.356 5.91 1.584 12.461-.057.009.13-.255 1.954-1.4.798-.521 1.147-.321 1.678-.66ZM248.672 156.848a3.438 3.438 0 0 1-.8-.975 3.267 3.267 0 0 0-.695-.724c-.736-.615-2.35.372-2.944.534a10.894 10.894 0 0 0-2.4 1.1 8.1 8.1 0 0 1-2.43 1.351c-.927.3-1.8.773-2.608 1.057a7.957 7.957 0 0 0-1.113.454c-.5-.8-1.013-1.561-1.3-1.926-.391-.412-2.365-4.43-4.688-3.331-.677.317-.682 1.176-.856 1.5a9.812 9.812 0 0 0 .687 4.734 78.883 78.883 0 0 0 4.134 8.082 2.5 2.5 0 0 0 2.035 1.243c.688-.065 1.335-.348 1.854-.43a1.837 1.837 0 0 0 1.394-1.3c.467-1.177.265-1.281-.084-2.226-.326-.856-1.446-3.273-1.659-3.693a9.72 9.72 0 0 1 1.192-.423c1.333-.455 2.89.108 3.944.2a10.152 10.152 0 0 0 3.943-1.19c.707-.521 1.018-1.239 1.629-1.755 1.677-1.388 1.042-2.038.765-2.282ZM238.991 171.4l-2.838.806a1.866 1.866 0 0 0-.97-.8 1.5 1.5 0 0 0-1.258.805c-.163.328-2.316 1.454-3.021 2.424a8.613 8.613 0 0 0-1.869 2.057c-.725 1.217-2.861 5.5.7 11.074 2.942 4.529 8.6 3.451 9.9 3.072 2.1-.62 7.081-3 8.8-6.3 1.86-3.685.53-6.728-.956-9.243-1.479-2.639-5.442-4.595-8.488-3.895Zm5.126 10.007c-.834 2.864-4.275 4.36-6.883 4.31-2.868-.034-4.548-2.631-4.459-5.367a4.582 4.582 0 0 1 2.117-3.877c2.333-1.286 2.435-1.136 2.435-1.136 2.907-.675 3.555.086 4.29.481.454.211 3.466 2.226 2.5 5.582ZM346.909 157.21a2.259 2.259 0 0 0 3.331.024c1.309-1.466.7-2.94.446-3.837a4.006 4.006 0 0 0-3.666-2.082s-1.926.348-1.631 2.082a9.845 9.845 0 0 0 1.52 3.813ZM337.22 179.187a10.578 10.578 0 0 0 3.036.315 6.729 6.729 0 0 1 2.372-.113 5.214 5.214 0 0 0 4.219-2.19 10.1 10.1 0 0 0 .546-10.281 18.52 18.52 0 0 0-2.214-2.835c-1-.876 1.465.013 1.912.19.393.2 1.783 1.089 2.8.195 1.051-.942.634-.739 1.358-1.1.546-.306.729-.935.153-1.985a4.878 4.878 0 0 0-2.233-2.271c-1.192-.631-4.2-2.036-5.248-2.583s-4.475-2.321-4.475-2.321-2.7-1.537-3.587.568c-.889 2.087-1.2 3.332.428 4.8a17.226 17.226 0 0 0 3.033 2.153 11.059 11.059 0 0 0-6.22 2.732c-2.252 1.8-4.222 5.746-2.527 9.18a11.157 11.157 0 0 0 6.647 5.546Zm-.678-10.443a3.551 3.551 0 0 1 4.5-1.937c3.718 1.3 4.12 4.327 3.669 5.916-.588 2.01-1.521 2.406-1.956 2.373a15.338 15.338 0 0 0-1.962-.2c-.618.04-.613.5-1.46.271a3.338 3.338 0 0 1-2.3-1.66c-.641-1.086-1.685-2.32-.491-4.763ZM366.493 178.424c-1.312-1.88-2.9-2.311-5.853-4a8.429 8.429 0 0 1-3.477-3.224c.805-1.757 1.493-3.324 1.752-4.033.741-1.972 2.538-5.1 2.023-7.916-.428-2.586-2.029-1.483-2.07-1.433a9.433 9.433 0 0 1-1.507 1.575c-.476.261-1.429 1.012-1.446 1.522 0 0-3.911 8.756-5.785 13.491-2.341 5.976-2.759 7.281-1.652 7.681a3.063 3.063 0 0 0 2.637-.169 3.859 3.859 0 0 0 2.6-2.738c.212-.756 1.058-2.685 2.019-4.808 1.127.651 1.24.809 1.888 2.374a8.18 8.18 0 0 0 4.091 4.64c2.827 1.405 4.027.664 4.436.165a2.371 2.371 0 0 0 .344-3.127ZM353.74 187.156s-.629-.218-1.335-.486a6.993 6.993 0 0 1-2.271-1.28 45.134 45.134 0 0 0-6.711-3.38 38.967 38.967 0 0 0-8.179-2.427c-2.076-.417-2.329.569-2.524.819 0 0-1.187 1.622 1.456 2.662 2 .8 2.9-.181 5.66 1.119 2.774 1.257 7.225 2.314 8.721 3.267 1.552.983 1.879 1.575 1.261 3.088-.613 1.55-2.133 4.644-2.133 4.644s-.526 1.728.787 2.2a3.773 3.773 0 0 0 3.024-.191c1.2-.528 2.373-3.493 2.709-4.2.349-.691 1.936-3.674-.465-5.835ZM182.363 204.743s-1.111.708-1.47-.289c0 0-1.007-3.406-3.037-4.8 0 0-1.523-1.486-2.984-1.255-.915.106-.837.6-.9.708.029.459.168.383.423 1.128.4 1.239.553 1.645.272 6.83-.265 4.608-.121 4.044-.287 5.519-.149 1.058-.338 5.316 1.391 6.842 1.494 1.33 3.149 1.463 4.327-.183 1.082-1.546.743-3.068.9-4.225a10.567 10.567 0 0 1 .47-2.821 4.052 4.052 0 0 1 4.135-2.474c1.965.181 2.668 1.109 3.086 3.872a5.146 5.146 0 0 1 .488 1.293 14.487 14.487 0 0 1-1.359 5.191c-.925 1.61-1.276 1.06-1.8 1.675a7.862 7.862 0 0 0-.745 4.474c.336 1.079.8 1.532 2.774 1.317 1.375-.154 2.224-.987 3.422-3.435.986-1.994 2.264-7.26 1.744-10.3a12.781 12.781 0 0 0-4.584-8.3 5.764 5.764 0 0 0-6.266-.767ZM205.192 199.659c-2.846-2.471-10-9.576-10-9.576-3.586-3.393-7.147-3.98-8.241-3.9a2.1 2.1 0 0 0-1.351 1.882c-.162 1.562 1.276 2.793 1.949 3.437s.873.613 1.345 1.436c.5.8.626.905 3.067 3.2.5.511.434 1.57-.511 2.471-.913.92-3.027 3.435-3.027 3.435s.152-.306-.363.541c-.514.818.632 1.031 1.209 1.291a2.7 2.7 0 0 0 2.219.117 8.286 8.286 0 0 0 2.668-1.2c.847-.749 2.05-2.086 2.05-2.086.661-.319.81-.518 1.325-.195.491.327 7.492 6.993 8.757 7.554a2.017 2.017 0 0 0 2.341-.337c.5-.343 1.284-.027 1.31-2.173.025-2.74-1.939-3.4-4.747-5.897ZM394.576 195.955c.832.82.6 1.008 1.04 1.519a29.237 29.237 0 0 0 3.021 2.5c1.186.9 3.764 3.5 3.724 4.361-.089.789.069 2.159-3.289 5.837-3.679 4.119-4.18 4.657-4.23 5.816-.045 1.2-.03 1.044.453 1.753.565.8 1.192 1.362 3.1.114a37.872 37.872 0 0 1 3.616-2.607 11.81 11.81 0 0 0 4.063-4.1c1.25-1.964 2.158-4.981-.45-8.88-1.526-2.241-1.678-1.968-2.344-2.97-.684-.994-3.64-3.643-4.679-4.849-1-1.207-2.173-2.816-2.732-3.381-.358-.353-1.124-.076-1.57.248a1.613 1.613 0 0 0-.982 1.619 4.48 4.48 0 0 0 1.259 3.02ZM378.569 199.047a2.651 2.651 0 0 0 .692 1.475c.519.445 1.5.149 1.932.251a7.2 7.2 0 0 0 2.127.121c.539-.105.667-.345.657-.777-.034-.458.875-1.685 1.237-2.415a3.278 3.278 0 0 0-.354-2.729c-.391-.5-1.025-.56-2.013.23a3.634 3.634 0 0 1-1.851.811 3 3 0 0 0-2.366 1.76 2.242 2.242 0 0 0-.061 1.273Z" style="fill:#6f7271" transform="translate(-121.717 -130.222)"/><path d="M402.583 227.412c-.416-.651-.453-1.069-.9-1.711-.434-.712-5.3-5.131-6.5-6.292-.641-.66-3.852-4.366-8.233-8.745a3.305 3.305 0 0 0 1.03.037 6.945 6.945 0 0 1 2.312.122c.38.061 3.42-1.937 3.576-3.479a15.545 15.545 0 0 0-.108-3.695 1.7 1.7 0 0 0-2.725-.7 3.638 3.638 0 0 1-1.668.557 4.929 4.929 0 0 0-2.413 1.885 18.541 18.541 0 0 1-1.434 2.344c-.2.28-.432.663-.6.953a101.5 101.5 0 0 0-8.885-7.743 6.651 6.651 0 0 1-1.823-1.721c-.546-.855-.094-1.888-1.543-2.409a8.08 8.08 0 0 0-1.638.069c-.754.1-.817.505-1.124.6-.347.093-1.414.379-.935 1.489.438 1.106.575 1.85 1.119 2.325.476.481.876 1.466 1.49 2.013.692.553 2.634 1.6 3.744 2.455s10.975 9.3 12.8 11.352c1.824 2.029 9.118 9.775 10.205 11.281a2.739 2.739 0 0 0 2.417 1.524 2.8 2.8 0 0 0 2.445-.767c.287-.393-.161-1.068-.609-1.744Z" style="fill:#6f7271" transform="translate(-121.717 -130.222)"/><path d="M347.034 329.426a17.135 17.135 0 0 0-.347-1.754c-.79-3.121-1.763-6.34-2.823-9.745-3.6-12.069-8.431-25.752-8.431-45.635 0-11.49 2.351-20.7 5.174-34.085-3.2-3.45-11.89-12.464-14.675-15.455H253.3c-2.794 2.991-11.5 12-14.685 15.455 2.833 13.384 5.213 22.6 5.213 34.085 0 19.883-4.827 33.566-8.484 45.635-1.016 3.4-2 6.624-2.809 9.745 0 0-.154.617-.337 1.7l57.389-55.775Z" style="fill:#b60005" transform="translate(-121.717 -130.222)"/><path d="M235.585 353.5a40.961 40.961 0 0 0 4.7 7.737c8.815 11.703 24.433 20.763 36.974 27.352 5.034 2.62 9.086 3.95 12.323 6.089v.019h.092v-.019c3.194-2.139 7.26-3.469 12.309-6.089 12.531-6.591 28.131-15.649 36.938-27.356a39.009 39.009 0 0 0 4.7-7.718l-54.041-51.044Z" style="fill:#b60005" transform="translate(-121.717 -130.222)"/><path d="M253.362 240.688c0-1.378-.144-1.859-1.44-1.971v-.467h6.489v.511c-1.324.106-1.464.564-1.464 2v17.624c0 1.392.1 1.854 1.412 1.97v.535h-6.437v-.515c1.3-.087 1.44-.535 1.44-1.966ZM276.483 248.141V240.8c0-1.412.1-1.879-1.07-1.98v-.569h6.042v.569c-1.325.1-1.455.568-1.455 1.98v17.54c0 1.436.13 1.879 1.435 2.014v.535h-6.388v-.515c1.339-.087 1.436-.535 1.436-1.966v-8.672h-8.634v8.672c0 1.431.073 1.879 1.316 1.966v.515H262.9v-.458c1.305-.111 1.436-.583 1.436-1.956V240.76c0-1.435-.082-1.893-1.451-2v-.511h6.015v.467c-1.133.112-1.051.593-1.051 1.971v7.453ZM284.345 256.7c.352.916 2.621 3.3 6.215 3.3a3.673 3.673 0 0 0 3.859-4.009c0-2.317-1.647-3.8-4.176-5.083-2.645-1.373-6.018-3.314-6.018-6.773 0-3.4 2.732-6.321 7.564-6.321a16.51 16.51 0 0 1 4.553.751c.12 1.364.264 2.106.4 3.141l-.6.087c-.4-1.036-1.575-2.664-4.948-2.664a3.414 3.414 0 0 0-3.473 3.608c0 2.077 1.59 3.368 4.114 4.6 3.016 1.46 6.167 3.339 6.167 7.2 0 3.965-3.3 6.827-8.065 6.827a11.291 11.291 0 0 1-3.2-.443 13.688 13.688 0 0 1-2.38-.771 27.874 27.874 0 0 1-.573-3.305ZM306.411 342.955l-1.653 4.817a30.227 30.227 0 0 1 3.358.665l-2.816 7.593s-5.522-.925-10.83-1.2l.3-8.21a22.424 22.424 0 0 1 2.785.174l.563-4.809a106.029 106.029 0 0 0-8.44-.327c-2.795 0-5.6.106-8.364.327l.554 4.809a21.813 21.813 0 0 1 2.722-.174l.328 8.21c-5.28.279-10.777 1.2-10.777 1.2l-2.881-7.6c1.72-.4 3.387-.656 3.387-.656l-1.647-4.81a105.481 105.481 0 0 0-17.407 4.288c7.092 9.79 13.952 23.376 13.952 23.376a105.494 105.494 0 0 1 40.277 0 184.561 184.561 0 0 1 13.978-23.376 101.761 101.761 0 0 0-17.389-4.297Z" style="fill:#fff" transform="translate(-121.717 -130.222)"/><path d="M421.77 249.219a3.966 3.966 0 1 1-3.749-4.177 3.956 3.956 0 0 1 3.749 4.177ZM163.917 250.219a3.964 3.964 0 1 1-3.744-4.177 3.962 3.962 0 0 1 3.744 4.177Z" style="fill:#6f7271" transform="translate(-121.717 -130.222)"/></svg>