<svg xmlns="http://www.w3.org/2000/svg" xml:space="preserve" width="700" height="700" viewBox="0 0 699.99999 700"><path d="M390.417 29.046c-144.745 0-262.49 117.756-262.49 262.5s117.745 262.5 262.49 262.5c144.755 0 262.51-117.756 262.51-262.5s-117.755-262.5-262.51-262.5" style="fill:#1965b6;fill-opacity:1;fill-rule:nonzero;stroke:none;stroke-width:3.70417" transform="matrix(1.33333 0 0 -1.33333 -170.57 738.728)"/><path d="M390.417 548.36c-141.607 0-256.822-115.214-256.822-256.814 0-141.614 115.215-256.814 256.822-256.814 141.603 0 256.814 115.2 256.814 256.814 0 141.6-115.211 256.814-256.814 256.814" style="fill:#fff;fill-opacity:1;fill-rule:nonzero;stroke:none;stroke-width:3.70417" transform="matrix(1.33333 0 0 -1.33333 -170.57 738.728)"/><path d="m0 0-1.32 1.319L-2.638 0l1.318-1.323Z" style="fill:#1965b6;fill-opacity:1;fill-rule:nonzero;stroke:none" transform="matrix(4.9389 0 0 -4.9389 642.325 435.596)"/><path d="m0 0-1.32 1.319L-2.64 0l1.32-1.323Z" style="fill:#1965b6;fill-opacity:1;fill-rule:nonzero;stroke:none" transform="matrix(4.9389 0 0 -4.9389 70.685 435.596)"/><path d="M0 0v1.826h3.346V-6.47H1.188V0Z" style="fill:#1965b6;fill-opacity:1;fill-rule:nonzero;stroke:none" transform="matrix(4.9389 0 0 -4.9389 280.998 494.607)"/><path d="M0 0c0-.762.573-1.366 1.331-1.366.757 0 1.377.604 1.377 1.366 0 .758-.62 1.362-1.377 1.362C.573 1.362 0 .758 0 0m-.758-5.557 2.366 2.793-.021.021a2.773 2.773 0 0 0-1.167-.25c-1.633 0-2.666 1.396-2.666 2.926 0 2.036 1.676 3.137 3.567 3.137.805 0 1.729-.199 2.367-.717.671-.538 1.11-1.419 1.11-2.288 0-1.198-.615-2.355-1.331-3.301L1.696-5.557Z" style="fill:#1965b6;fill-opacity:1;fill-rule:nonzero;stroke:none" transform="matrix(4.9389 0 0 -4.9389 322.526 499.116)"/><path d="M0 0v1.826h3.348V-6.47H1.195V0Z" style="fill:#1965b6;fill-opacity:1;fill-rule:nonzero;stroke:none" transform="matrix(4.9389 0 0 -4.9389 357.694 494.607)"/><path d="M0 0c0-.518.407-.934.915-.934A.92.92 0 0 1 1.826 0a.923.923 0 0 1-.911.936A.923.923 0 0 1 0 0m-.078-3.742a1 1 0 0 1 .993-1.011c.55 0 .988.451.988 1.011 0 .573-.438 1.035-.988 1.035s-.993-.462-.993-1.035M3.744.067c0-.879-.554-1.629-1.309-1.883v-.022c.986-.33 1.65-1.088 1.65-2.179 0-1.715-1.746-2.508-3.17-2.508-1.433 0-3.168.793-3.168 2.508 0 1.091.656 1.849 1.648 2.179v.022c-.756.254-1.309 1.004-1.309 1.883 0 1.585 1.409 2.366 2.829 2.366 1.416 0 2.829-.781 2.829-2.366" style="fill:#1965b6;fill-opacity:1;fill-rule:nonzero;stroke:none" transform="matrix(4.9389 0 0 -4.9389 400.838 495.974)"/><path d="M0 0h-4.368v-23.937l-3.114.665V0h-5.7v-22.057l-2.982.626V0h-7.217v-19.896l-2.337.5V0h-8.924v-17.498l-1.89.403V0h-10.062v-14.961l.938-.197v-24.868h4.365v23.931l3.117-.658v-23.273h5.693v22.065l2.984-.638v-21.427h7.215v19.894l2.342-.498v-19.396h8.926v17.505l1.885-.409v-17.096H.939v14.961L0-24.863Z" style="fill:#1965b6;fill-opacity:1;fill-rule:nonzero;stroke:none" transform="matrix(4.9389 0 0 -4.9389 463.466 220.836)"/><path d="M0 0v-33.758h1.514v29.873c.849-.889 2.012-1.577 3.343-2.108v-27.765h2.278v27.034c.388-.098.774-.197 1.169-.272l2.282-.501v-26.261h3.233v25.584l.812-.168v14.61h-4.628C2.879 6.268 0 3.563 0 0" style="fill:#1965b6;fill-opacity:1;fill-rule:nonzero;stroke:none" transform="matrix(4.9389 0 0 -4.9389 153.04 251.792)"/><path d="M0 0v-29.881c-.85.892-2.002 1.577-3.337 2.117V0h-2.278v-27.035a28.14 28.14 0 0 1-1.162.28l-2.289.482V0h-3.229v-25.583l-.814.171v-14.614h4.621c7.134 0 10.012 2.71 10.012 6.266V0Z" style="fill:#1965b6;fill-opacity:1;fill-rule:nonzero;stroke:none" transform="matrix(4.9389 0 0 -4.9389 540.886 220.836)"/><path d="m0 0-1.043 1.162L-2.192.129l1.045-1.163-5.129-4.619 1.143-1.274L3.016.41 1.87 1.683Z" style="fill:#1965b6;fill-opacity:1;fill-rule:nonzero;stroke:none" transform="matrix(4.9389 0 0 -4.9389 150.507 548.964)"/><path d="m0 0 1.247 1.123L.096 2.397l-1.247-1.123-.2-.122-6.038-2.138 1.188-1.322 4.043 1.515-1.927-3.862 1.18-1.312 2.757 5.78z" style="fill:#1965b6;fill-opacity:1;fill-rule:nonzero;stroke:none" transform="matrix(4.9389 0 0 -4.9389 142.348 533.715)"/><path d="M0 0c.557-.347.752-1.043.433-1.556-.317-.508-1.029-.638-1.587-.291-.556.35-.757 1.048-.438 1.558C-1.271.221-.557.348 0 0m1.703-2.349c.569.91.384 2.1-.372 2.937l.339.545-1.297.809-.324-.523c-1.113.368-2.324.025-2.91-.914-.345-.554-.414-1.206-.246-1.823L-5.43.137l-.73-1.164 3.252-2.033-.443-.706-2.508 1.569-.63-1.009 5.159-3.225-.385-.62-5.162 3.225-1.658-2.658 6.449-4.03.634 1.009-5.174 3.231.402.638 5.169-3.231L.594-6.229l-2.511 1.566.443.708 3.251-2.03.727 1.164L.173-3.364c.63.117 1.188.464 1.53 1.015" style="fill:#1965b6;fill-opacity:1;fill-rule:nonzero;stroke:none" transform="matrix(4.9389 0 0 -4.9389 204.937 582.051)"/><path d="m0 0 1.633-.5L4.845 9.985l-1.64.5z" style="fill:#1965b6;fill-opacity:1;fill-rule:nonzero;stroke:none" transform="matrix(4.9389 0 0 -4.9389 269.608 663.626)"/><path d="m0 0 .488 1.601-1.64.503-.489-1.601-.11-.217-4.071-4.943 1.689-.517 2.691 3.382.332-4.305 1.686-.516-.605 6.374z" style="fill:#1965b6;fill-opacity:1;fill-rule:nonzero;stroke:none" transform="matrix(4.9389 0 0 -4.9389 266.818 614.8)"/><path d="M399.956 54.18h-14.843v2.47h14.843zm0 18.402h-18.943v3.278h14.131v13.705h-20.21v-5.297h14.132V81.19h-14.132V67.244h25.022v-5.46H385.11v3.2h-6.075V48.96h26.996v40.605h-6.075z" style="fill:#1965b6;fill-opacity:1;fill-rule:nonzero;stroke:none;stroke-width:3.70417" transform="matrix(1.33333 0 0 -1.33333 -170.57 738.728)"/><path d="m0 0-.778-.228-.687 2.339-1.514-.444 1.776-6.062-2.728-.795L-5.28-.568l1.95.57-.42 1.44-3.587-1.05 2.197-7.514 4.359 1.274.877-3.008 1.519.443-1.929 6.588.778.228 1.929-6.588 1.507.441L.819 2.778l-1.502-.439Z" style="fill:#1965b6;fill-opacity:1;fill-rule:nonzero;stroke:none" transform="matrix(4.9389 0 0 -4.9389 441.561 616.296)"/><path d="m0 0-1.39-.869 3.529-5.653-4.605-2.872.819-1.308 4.601 2.878 1.467-2.344 1.388.869-3.83 6.13 1.109.695-.812 1.31-1.114-.696z" style="fill:#1965b6;fill-opacity:1;fill-rule:nonzero;stroke:none" transform="matrix(4.9389 0 0 -4.9389 507.172 569.125)"/><path d="M0 0c-.327.523-.143 1.232.415 1.579.555.347 1.271.202 1.598-.321.334-.529.145-1.233-.41-1.582C1.05-.669.332-.529 0 0m3.325 2.079c-.403.647-1.076 1.032-1.81 1.118l.964.602-.72 1.146L.011 3.853l-.478.765-1.458-.912.476-.766-1.756-1.098.716-1.144.967.603c-.244-.699-.192-1.473.212-2.12.742-1.188 2.379-1.505 3.662-.704 1.281.8 1.718 2.413.973 3.602" style="fill:#1965b6;fill-opacity:1;fill-rule:nonzero;stroke:none" transform="matrix(4.9389 0 0 -4.9389 488.16 599.994)"/><path d="m0 0-6.65 6.09-5.049-5.512 1.159-1.06 3.906 4.26 5.483-5.03-.77-.843L-4.725.479-5.838-.734l2.806-2.573-.549-.603-2.806 2.574-1.11-1.21 2.806-2.573-.709-.775 1.133-1.036L1.662-.461.527.575z" style="fill:#1965b6;fill-opacity:1;fill-rule:nonzero;stroke:none" transform="matrix(4.9389 0 0 -4.9389 592.72 548.804)"/><path d="m0 0 4.496-.462c1.03-.105 2.043-.252 2.734-1.126.59-.737.717-1.812.621-2.745-.096-.933-.437-1.959-1.164-2.56-.856-.715-1.878-.653-2.907-.548l-4.496.463.212 2.078 4.212-.433c1.038-.106 2.181-.148 2.318 1.188.138 1.337-.99 1.526-2.029 1.634l-4.21.432z" style="fill:#1965b6;fill-opacity:1;fill-rule:nonzero;stroke:none" transform="matrix(4.9389 0 0 -4.9389 30.273 299.774)"/><path d="m0 0 .63 1.991 5.836 2.168.006.021-4.683 1.479.63 1.992 7.659-2.421-.628-1.992-5.847-2.164-.006-.021L8.291-.43l-.629-1.991Z" style="fill:#1965b6;fill-opacity:1;fill-rule:nonzero;stroke:none" transform="matrix(4.9389 0 0 -4.9389 35.876 271.39)"/><path d="m0 0-.947-1.863-7.167 3.644.946 1.865z" style="fill:#1965b6;fill-opacity:1;fill-rule:nonzero;stroke:none" transform="matrix(4.9389 0 0 -4.9389 99.482 217.137)"/><path d="m0 0-2.819 4.438 1.327 1.841 4.514-7.484-.949-1.314-8.496 1.958 1.329 1.841z" style="fill:#1965b6;fill-opacity:1;fill-rule:nonzero;stroke:none" transform="matrix(4.9389 0 0 -4.9389 107.042 175.614)"/><path d="m0 0 .941-.96L2.624.688 3.863-.575l-1.684-1.65.97-.99 1.775 1.739 1.24-1.265-3.268-3.201L-2.731-.2.536 3.003l1.239-1.264Z" style="fill:#1965b6;fill-opacity:1;fill-rule:nonzero;stroke:none" transform="matrix(4.9389 0 0 -4.9389 129.32 126.056)"/><path d="m0 0 .166.116c.56.391 1.116.935.615 1.652-.501.717-1.204.381-1.764-.009l-.166-.117Zm6.309-1.002L4.178-2.493.788-1.09.77-1.102l1.772-2.534L.83-4.835l-4.609 6.59 2.561 1.79c1.302.911 2.723.981 3.708-.426.637-.909.679-2.05-.141-2.868Z" style="fill:#1965b6;fill-opacity:1;fill-rule:nonzero;stroke:none" transform="matrix(4.9389 0 0 -4.9389 171.612 102.181)"/><path d="M0 0c-.482.128-1.016.114-1.479-.103-.348-.162-.718-.58-.528-.986.198-.425.786-.351 1.163-.303l.551.08c1.153.174 2.173.028 2.723-1.15.338-.725.51-1.548.16-2.31-.343-.75-1.011-1.308-1.744-1.651A4.979 4.979 0 0 0-2.1-6.785l.1 1.903c.666-.194 1.383-.271 2.03.031.445.207.813.649.576 1.16-.249.532-1.078.369-1.538.296-1.344-.216-2.27-.271-2.927 1.137C-4.548-.781-3.945.675-2.49 1.356c.735.341 1.741.528 2.558.463z" style="fill:#1965b6;fill-opacity:1;fill-rule:nonzero;stroke:none" transform="matrix(4.9389 0 0 -4.9389 225.358 62.945)"/><path d="m0 0-1.995-.613-2.356 7.675 1.995.613z" style="fill:#1965b6;fill-opacity:1;fill-rule:nonzero;stroke:none" transform="matrix(4.9389 0 0 -4.9389 271.512 77.671)"/><path d="m0 0-2.061-.342-1.023 6.179-1.704-.281-.289 1.745 5.466.904.289-1.744-1.703-.282Z" style="fill:#1965b6;fill-opacity:1;fill-rule:nonzero;stroke:none" transform="matrix(4.9389 0 0 -4.9389 307.879 69.841)"/><path d="m0 0 2.505-.002 1.501-2.187L5.51-.005l2.505-.004-2.968-4.173-.003-3.859-2.09.003.005 3.857Z" style="fill:#1965b6;fill-opacity:1;fill-rule:nonzero;stroke:none" transform="matrix(4.9389 0 0 -4.9389 330.294 27.064)"/><path d="M0 0c-.432-1.315.225-2.595 1.409-2.983 1.184-.389 2.47.255 2.902 1.57C4.656-.36 3.999.92 2.815 1.307 1.631 1.696.344 1.053 0 0m6.378-2.08C5.57-4.548 3.228-5.709.779-4.905c-2.449.802-3.65 3.123-2.84 5.592.756 2.307 3.31 3.263 5.507 2.543C5.64 2.511 7.134.228 6.378-2.08" style="fill:#1965b6;fill-opacity:1;fill-rule:nonzero;stroke:none" transform="matrix(4.9389 0 0 -4.9389 433.827 57.889)"/><path d="m0 0-.645-1.178 2.011-1.099-.85-1.551-2.009 1.099-1.514-2.767-1.833 1.002 3.858 7.049L3.065.34l-.849-1.553Z" style="fill:#1965b6;fill-opacity:1;fill-rule:nonzero;stroke:none" transform="matrix(4.9389 0 0 -4.9389 500.198 74.119)"/><path d="M0 0c-.05.496-.25.991-.615 1.349-.274.269-.795.469-1.109.149-.327-.334-.052-.858.124-1.195l.269-.489c.567-1.018.787-2.026-.124-2.953-.56-.569-1.271-1.019-2.108-.959-.82.06-1.577.49-2.155 1.058-.721.708-1.19 1.646-1.372 2.63l1.818.574c.052-.693.231-1.392.739-1.891.351-.343.894-.535 1.289-.131.411.416-.032 1.135-.262 1.541-.674 1.184-1.05 2.031.04 3.139C-2.325 3.985-.75 3.931.396 2.804c.577-.567 1.105-1.442 1.33-2.23z" style="fill:#1965b6;fill-opacity:1;fill-rule:nonzero;stroke:none" transform="matrix(4.9389 0 0 -4.9389 575.262 133.218)"/><path d="m0 0-1.082-.796L.315-2.694-1.11-3.743l-1.397 1.897-1.116-.821 1.472-2.001-1.426-1.048-2.71 3.684L.188 2.731l2.71-3.684-1.426-1.048z" style="fill:#1965b6;fill-opacity:1;fill-rule:nonzero;stroke:none" transform="matrix(4.9389 0 0 -4.9389 602.412 163.275)"/><path d="M0 0c-1.249-.601-1.716-1.963-1.175-3.087C-.633-4.21.723-4.692 1.973-4.092c.998.484 1.466 1.844.924 2.968C2.356 0 .999.482 0 0m2.926-6.046C.584-7.174-1.879-6.291-3-3.966c-1.12 2.324-.278 4.8 2.065 5.93 2.19 1.057 4.652-.123 5.657-2.208 1.005-2.084.394-4.746-1.796-5.802" style="fill:#1965b6;fill-opacity:1;fill-rule:nonzero;stroke:none" transform="matrix(4.9389 0 0 -4.9389 618.442 207.8)"/><path d="m0 0-4.38-1.095c-1.003-.249-2.005-.456-2.954.131-.802.492-1.286 1.458-1.511 2.367-.227.908-.256 1.988.222 2.8.561.962 1.543 1.251 2.545 1.502l4.382 1.093.505-2.025-4.103-1.023c-1.012-.253-2.099-.602-1.775-1.904C-6.743.544-5.62.748-4.608 1.001l4.103 1.024z" style="fill:#1965b6;fill-opacity:1;fill-rule:nonzero;stroke:none" transform="matrix(4.9389 0 0 -4.9389 667.224 288.495)"/><path d="m0 0 .184-2.497-1.764-.128-.336 4.578 8.01.589.153-2.081Z" style="fill:#1965b6;fill-opacity:1;fill-rule:nonzero;stroke:none" transform="matrix(4.9389 0 0 -4.9389 640.917 328.878)"/></svg>