<svg xmlns="http://www.w3.org/2000/svg" width="588.56561mm" height="588.53918mm" viewBox="0 0 588.56561 588.53918"><path fill="#fff" d="M0 294.243C0 456.513 132 588.54 294.243 588.54c162.322 0 294.323-132 294.323-294.296C588.566 131.948 456.565 0 294.243 0 132.001 0 0 131.974 0 294.243"/><path fill="#003378" d="M8.731 294.217C8.731 136.763 136.842 8.652 294.27 8.652c157.506 0 285.59 128.111 285.59 285.538 0 157.507-128.11 285.67-285.59 285.67C136.842 579.86 8.73 451.724 8.73 294.218"/><path fill="#fff" d="M294.243 502.39c-114.882 0-208.095-93.159-208.095-208.094 0-114.935 93.187-208.148 208.095-208.148 114.962 0 208.174 93.16 208.174 208.148s-93.212 208.095-208.174 208.095M53.578 361.818c-.026 4.418 3.572 8.017 7.99 8.043 4.42.026 8.017-3.572 8.044-7.99.026-4.419-3.572-8.017-7.99-8.044h-.027c-4.419.027-7.99 3.599-8.017 7.99M537.977 362.982c-.026 4.498-3.677 8.096-8.149 8.096-4.498-.026-8.096-3.678-8.096-8.149.026-4.472 3.651-8.096 8.123-8.096 4.497 0 8.122 3.651 8.122 8.122v.027M76.835 223.52c-2.884 9.049-12.515 12.885-23.442 9.393-13.547-4.287-13.123-12.568-11.721-17.092 1.164-3.599 3.519-6.483 6.905-8.202 4.34-2.223 9.949-2.461 15.796-.583 6.033 1.879 9.948 4.71 11.827 8.255a10.958 10.958 0 0 1 .635 8.229m-11.8-25.056c-5.61-1.773-10.928-1.535-15.452.847-4.921 2.593-8.626 7.408-10.742 13.996-1.985 6.43-1.694 12.462.9 17.463 2.54 4.92 7.17 8.73 12.726 10.504 9.816 3.122 22.49-.133 27.014-14.5 1.984-6.244 1.614-12.223-1.059-17.41-2.672-5.132-7.434-8.995-13.387-10.9"/><path fill="#fff" d="m121.55 146.262-7.435-7.091 1.455-1.508s2.514 1.746 3.387 2.196c4.074 2.09 7.143-.185 8.599-1.72 3.016-3.149 2.54-6.853.608-8.731-1.878-1.773-4.207-2.778-9.445-1.985l-3.096.45c-7.144 1.058-11.642.106-15.055-3.175-4.498-4.286-4.074-11.086 1.19-16.642 4.446-4.63 6.906-4.974 6.906-4.974l6.456 6.19-1.587 1.668c-1.085-1.244-2.567-2.064-4.234-2.25-1.349-.131-3.386 0-5.556 2.25-2.434 2.593-2.62 5.609-.397 7.752 1.508 1.429 3.308 1.984 9.075 1.058l1.853-.29c8.255-1.218 12.567-.398 16.35 3.2 1.694 1.641 4.42 5.16 3.387 10.531-.529 2.831-1.984 5.398-4.392 7.911-2.222 2.355-5.741 5.133-8.07 5.16M474.45 155.813l8.52-5.82 1.191 1.798s-2.275 2.09-2.91 2.858c-2.884 3.519-1.297 6.985-.106 8.731 2.434 3.625 6.165 3.916 8.414 2.381 2.116-1.455 3.598-3.492 3.915-8.81l.186-3.096c.476-7.223 2.328-11.43 6.244-14.076 5.186-3.519 11.72-1.667 16.033 4.63 3.625 5.292 3.414 7.78 3.414 7.78l-7.356 5.026-1.323-1.905a6.598 6.598 0 0 0 3.096-3.704c.423-1.27.74-3.228-1.058-5.874-2.038-2.963-4.975-3.757-7.462-2.063-1.746 1.217-2.698 2.884-2.963 8.678l-.08 1.879c-.529 8.36-2.195 12.382-6.561 15.345-1.932 1.323-5.98 3.228-11.007 1.112-2.62-1.085-4.842-3.043-6.826-5.953-1.8-2.646-3.784-6.668-3.334-8.943M152.876 92.419c2.17-1.614 2.778-.926 4.498 1.35l1.508-1.165-6.667-8.943-1.535 1.164c1.667 2.276 2.196 3.043 0 4.684l-6.35 4.736-8.334-11.086s4.974-3.705 6.297-4.657c2.91-2.17 4.233-.688 5.874 1.56l1.587-1.163-5.08-6.8-21.378 15.98 1.164 1.562c1.429-1.085 4.101-3.413 6.403-.344 2.302 3.069 17.806 23.865 17.806 23.865 2.673 3.572 1.35 4.154-1.164 6.033l1.27 1.64 21.828-16.272-5.556-7.355-1.561 1.164c2.434 3.28 1.984 5.345-.265 7.038-1.455 1.111-6.852 5.08-6.852 5.08l-9.87-13.23-.026-.026zM436.8 94.72c2.276 1.509 1.8 2.303.212 4.631l1.588 1.138 6.217-9.34-1.613-1.058c-1.588 2.38-2.144 3.095-4.393 1.587l-6.614-4.471 7.726-11.51s5.133 3.44 6.508 4.366c3.017 2.064 2.064 3.757.477 6.085l1.587 1.085 4.71-7.011-22.12-14.87-1.084 1.614c1.508 1.005 4.55 2.752 2.434 5.953-2.117 3.202-16.563 24.739-16.563 24.739-2.46 3.704-3.44 2.646-6.059.9l-1.164 1.72 22.648 15.133 5.08-7.646-1.64-1.111c-2.276 3.386-4.392 3.677-6.694 2.116-1.508-1.032-7.09-4.762-7.09-4.762l9.207-13.732s0-.053.026-.053zM175.842 60.22c-1.19-2.382-.08-3.044 2.858-4.525l-.9-1.746-15.081 7.725.9 1.72s3.81-2.699 5.423.344c.768 1.508 14.605 28.575 14.605 28.575 1.244 2.355.053 3.07-2.857 4.551l.9 1.72 16.218-8.361-.846-1.72c-2.435 1.27-5.08 3.043-6.483.212-1.481-2.778-14.737-28.522-14.737-28.496M263.075 50.165l-3.307-16.484c-.476-2.619.74-2.91 3.942-3.598l-.397-1.878-14.42 2.884.397 1.878s4.419-1.614 5.107 1.8c.132.687 3.492 17.462 3.492 17.462 1.138 5.582 1.8 10.08-.37 13.361-1.958 2.99-5.16 3.916-6.43 4.18-1.904.345-4.18.53-6.8-.846-2.354-1.244-4.815-3.572-6.482-11.88l-3.677-18.23c-.503-2.593.74-2.91 3.995-3.598l-.423-1.905-16.59 3.307.344 1.879s4.445-1.561 5.16 1.799c.132.74 3.73 18.547 3.73 18.547 1.323 6.774 3.757 10.98 7.647 13.309 4.894 2.91 10.371 1.825 12.726 1.35 3.122-.636 7.117-1.88 10.425-6.166 3.757-4.762 3.148-11.06 1.931-17.171M359.198 39.979c.609-2.62 1.879-2.408 5.08-1.667l.45-1.879-16.51-3.836-.397 1.878s4.657.37 3.89 3.757c-.37 1.667-7.224 31.274-7.224 31.274-.608 2.593-1.957 2.355-5.159 1.614l-.45 1.879 17.78 4.127.45-1.852c-2.699-.609-5.82-.979-5.106-4.022.714-3.042 7.17-31.273 7.196-31.273M531.76 183.118c2.38-1.19 3.016-.08 4.471 2.858l1.746-.847-7.435-15.214-1.746.847s2.699 3.837-.45 5.371c-1.508.741-28.786 14.182-28.786 14.182-2.408 1.137-3.07-.053-4.525-2.99l-1.746.873 8.043 16.351 1.694-.846c-1.217-2.434-2.91-5.107-.08-6.483 2.831-1.375 28.814-14.102 28.814-14.102M545.597 202.644l-8.466 1.217.608 2.117c2.805-.423 4.816-.582 5.874 2.937.212.661.582 1.931 2.328 7.832-4.736 1.375-31.803 9.392-31.803 9.392-2.54.768-2.99-.555-3.916-3.704l-1.878.53 5.212 17.541 1.826-.529c-.767-2.646-2.064-5.583.979-6.456a9712.47 9712.47 0 0 1 31.776-9.392c1.747 5.873 2.117 7.17 2.329 7.778 1.031 3.546-.768 4.525-3.36 5.689l.66 2.116 7.753-3.518zM477.97 118.295c-3.36 3.413-6.191 3.599-7.567 3.387-1.059-.132-1.64-.476-3.122-1.932l-2.726-2.672 12.595-12.753 1.852 1.852c2.063 2.011 4.26 6.827-1.032 12.118m9.63-4.948c-.74-3.65-3.2-6.508-5.556-8.837l-11.377-11.244-1.323 1.402s3.784 2.778 1.376 5.239c-1.217 1.217-22.595 22.78-22.595 22.78-1.852 1.879-2.91.98-5.239-1.323l-1.323 1.403 12.965 12.779 1.323-1.296c-1.932-1.958-4.445-3.916-2.223-6.139l8.546-8.678 3.493 3.44-1.535 9.286c-.794 5.292-1.058 8.467-.265 10.98.477 1.615 1.323 2.832 3.44 4.975l3.916 3.836 1.243-1.27-.9-1.111c-.475-.714-1.666-2.46-1.64-6.588.08-3.969.635-8.97 1.323-15.293 0 0 .212-2.01.318-2.593 6.218.556 10.292-.53 13.44-3.704 2.805-2.858 2.911-6.509 2.594-8.044M55.562 267.44c-1.746-.131-3.333-.317-5.08-1.19-2.116-1.138-13.917-9.71-15.901-11.694-1.323-1.27-1.852-1.852-2.275-2.91a4.816 4.816 0 0 1-.37-2.197c.052-.529.131-1.508.131-1.508l-1.905-.212-1.296 13.573 2.01.186s.107-1.006.133-1.403c.027-.396.45-.688.953-.635.688.053 1.508.397 2.513.953.767.423 13.124 8.81 13.124 8.81s-14.553 6.747-15.902 7.224c-.317.132-1.243.476-1.64.45-.212-.027-.45-.16-.45-.424 0-.026-.053-.317-.053-.317 0-.397.026-.794.053-1.217l-1.905-.212-1.376 15.346 1.905.185s.106-2.117.979-3.387c.688-.979 2.17-2.116 4.048-3.175 3.016-1.64 15.32-7.673 16.14-7.937 1.64-.53 2.751-.926 5.53-.715 0 0 5.53.53 8.995.847 3.44.291 3.334 2.196 3.122 4.815l1.8.186 1.64-18.071-1.746-.133c-.265 2.99-.265 5.874-4.26 5.504-3.995-.37-8.81-.847-8.81-.847M533.426 275.881c1.667-.159 3.281-.344 5.186.291 2.276.688 15.505 6.853 17.833 8.414 1.535 1.032 2.17 1.508 2.752 2.46.45.609.714 1.35.794 2.09.026.477.158 1.482.158 1.482l1.905-.211-1.323-13.547-2.01.185s.105 1.006.158 1.376a.78.78 0 0 1-.793.794c-.688.08-1.561-.08-2.646-.424-.82-.317-14.579-6.244-14.579-6.244s13.044-9.392 14.288-10.08c.29-.186 1.111-.715 1.534-.741.238-.053.45.106.53.317l.079.265c.106.423.159.847.212 1.27l1.878-.212-1.535-15.293-1.878.186s.265 2.116-.344 3.492c-.45 1.085-1.693 2.487-3.387 3.863-2.619 2.17-13.6 10.398-14.314 10.821-1.508.847-2.54 1.43-5.291 1.72 0 0-5.504.53-8.943.873-3.44.37-3.73-1.534-3.969-4.154l-1.8.186 1.8 18.044 1.746-.212c-.317-3.016-.846-5.82 3.149-6.164 3.942-.397 8.837-.9 8.837-.9M111.072 161.158l-1.429 2.381-39.793 8.943 19.447 12.012c4.1 2.54 5.503-.662 6.932-2.963l1.667 1.031-8.044 13.018-1.693-1.032c1.27-2.064 2.778-4.022-1.111-6.43-3.89-2.407-29.898-18.467-29.898-18.467l1.35-2.196c6.8-1.482 39.29-8.6 40.322-8.837 0 0-16.563-10.266-20.161-12.489-3.572-2.196-5.16.741-6.271 2.514l-1.64-1.006 7.434-12.038 1.64 1.058c-1.163 1.932-2.513 3.652 1.06 5.874 3.571 2.223 30.188 18.627 30.188 18.627M320.675 70.247l-2.752-.159-26.67-30.824-1.376 22.807c-.317 4.816 3.149 4.551 5.874 4.71l-.132 1.958-15.293-.9.08-2.01c2.434.158 4.894.555 5.185-3.996.291-4.63 2.143-35.084 2.143-35.084l2.54.186c4.551 5.238 26.194 30.506 26.908 31.326 0 0 1.191-19.42 1.403-23.654.264-4.206-3.07-4.233-5.133-4.339l.08-1.905 14.128.847-.159 1.984c-2.249-.158-4.418-.502-4.71 3.705-.211 4.127-2.116 35.348-2.116 35.348M419.444 59.902l.45-1.905-12.33-5.398-.794 1.826 1.43.608c.502.212.846.635.766 1.059-.185.688-.873 1.534-1.534 2.38l-11.51 11.59s-6.535 6.482-7.408 7.382c.027-1.059.741-15.875 1.085-22.331l.317-5.662c.053-.318 0-1.112.37-1.482.107-.159.61-.423 1.324-.159l1.429.635.767-1.825-14.367-6.271-.767 1.72s1.984.82 2.725 1.905c.555.873.847 2.54.74 4.445l-.608 38.55 1.64.74 21.855-20.187 7.858-7.118s2.62-2.275 5.213-1.084zM307.763 518.636v12.647h-3.36v-12.647h-8.572v1.006c.846 0 1.64 1.481 1.64 3.016v27.305h-17.754v-24.448h11.8v-5.741h-20.901v1.005c.873 0 1.72 1.43 1.72 3.017v31.935h25.135v9.154h6.932v-27.86h3.36v27.86h7.409V518.61zM507.815 448.813c-5.927-4.948-28.125-23.39-28.47-23.628h-.052l-23.23 27.993c.37.265 4.1 3.387 4.418 3.704.317-.423 18.547-22.33 18.547-22.33s18.68 15.504 23.998 19.95c-2.011 2.46-3.599 4.418-3.599 4.418s-12.17-10.08-12.514-10.398c-.318.37-4.26 5.106-4.551 5.45.344.318 12.515 10.372 12.515 10.372l-2.435 2.91s-12.144-10.054-12.54-10.372c-.265.344-4.948 6.007-5.266 6.35.265.212.556.477.82.635.556-.661 2.196-.343 3.387.635l9.42 7.806s-4.975 6.032-5.293 6.403c.344.264 4.128 3.44 4.445 3.704.318-.37 27.358-32.994 27.702-33.39-.344-.265-4.127-3.387-4.471-3.705-.053.185-1.217 1.64-2.831 3.493M206.666 501.2c-.185.476-19.103 41.593-19.315 42.095.424.16 6.298 2.884 6.747 3.07.186-.477 19.13-41.593 19.368-42.043h-.053c-.027-.026-6.297-2.937-6.747-3.122M196.4 496.49c-.106.265-.317.689-.423.953h.053c.767.344.9 2.037.238 3.44l-3.572 7.805s-6.615-3.016-7.064-3.228c-.212.397-2.196 4.842-2.408 5.265.423.185 7.064 3.228 7.064 3.228s-11.43 24.871-11.641 25.32c.423.186 5.556 2.567 5.953 2.752.211-.45 19.13-41.619 19.367-42.042l-.026-.026c-.027-.053-7.091-3.308-7.54-3.466"/><path fill="#fff" d="m177.06 509.429-.213-.45.133-.159a37.573 37.573 0 0 0 11.72-14.605c-.423-.211-9.313-4.286-9.789-4.498-.08.238-.317.688-.397.9.08.08 1.905 1.508.318 4.921v.027c-.106.211-5.345 11.615-21.035 16.748.186.45 1.64 4.1 1.747 4.445h.026c.053 0 5.265-.635 12.356-4.657l.212-.132.132.238c1.059 2.17 2.646 5.477 4.18 13.917.61-.344 5.769-3.28 6.06-3.44-.794-3.545-2.752-8.255-5.45-13.255M390.049 537.395c.423-.238 27.966-13.414 27.966-13.414s4.075 8.546 4.26 8.97c.476-.186 6.297-3.017 6.72-3.229-.211-.423-6.561-13.785-6.826-14.234-.476.238-34.21 16.457-34.687 16.668.238.45 2.355 4.842 2.567 5.24M408.966 488.05c-.423.212-7.805 3.731-8.202 3.943.106.238.318.661.424.9.82-.371 2.17.608 2.83 2.01 0 0 9.526 19.844 9.764 20.294.423-.212 6.27-2.99 6.667-3.228-.211-.45-3.65-7.594-3.65-7.594s6.164-2.937 6.56-3.148c-.184-.424-2.037-4.313-2.222-4.71-.423.212-6.561 3.175-6.561 3.175s-5.398-11.218-5.61-11.642M393.33 520.303c-3.228 1.535-7.144.08-8.758-3.254-1.614-3.334-.318-7.33 2.937-8.89 3.254-1.561 7.143-.053 8.784 3.28 1.587 3.334.264 7.33-2.963 8.864m-14.79-.344c2.804 5.768 10.371 7.911 16.933 4.816 6.561-3.175 9.604-10.425 6.852-16.22-1.375-2.91-4.048-4.92-7.196-5.767 2.857-1.376 4.842-2.329 4.974-2.434-.212-.37-2.276-4.763-2.46-5.213-.45.238-9.367 4.525-9.367 4.525s-1.508-3.122-1.667-3.52c0 0-7.779 3.705-8.202 3.943.106.265.318.661.45.952v-.026c.688-.318 1.825.423 2.566 1.667l.186.212s-9.552 4.577-10.002 4.815c.185.37 2.302 4.762 2.487 5.186.16-.053 1.932-.9 4.525-2.17-1.35 2.937-1.455 6.297-.08 9.234M94.139 452.014s-5.689-6.509-6.006-6.826c-.212.185-.556.476-.768.661.556.662 0 2.223-1.164 3.255 0 0-7.937 6.905-8.308 7.196.318.344 22.966 26.353 23.284 26.723.37-.317 4.021-3.492 4.365-3.783-.317-.424-18.415-21.114-18.415-21.114s6.641-5.794 7.012-6.112M101.6 435.054c3.096-2.645 7.62-2.566 10.134.318 2.513 2.884 2.01 7.382-1.085 10.107-3.096 2.672-7.673 2.566-10.134-.318-2.46-2.884-1.984-7.381 1.085-10.107m20.24 19.341-3.042 2.62s-2.593-2.964-4.71-5.398a7.392 7.392 0 0 0 1.138-.9 9.967 9.967 0 0 0 1.746-1.904 744.054 744.054 0 0 0 4.869 5.582m-13.626-.74c2.116 2.434 6.244 7.196 6.244 7.196s-8.679 7.594-9.023 7.938c.291.344 4.578 5.238 4.869 5.556.397-.318 24.818-21.643 25.162-21.987-.291-.37-5.662-6.509-5.98-6.853-.185.186-.53.477-.767.688.582.635 0 2.25-1.164 3.255l-1.297 1.164s-5.635-6.403-6.879-7.858a14.426 14.426 0 0 0-3.572-10.901c-5.053-5.768-13.467-6.694-18.785-2.064s-5.557 13.097-.503 18.865c3.096 3.598 7.54 5.345 11.695 5"/><path fill="#003378" d="M294.243 194.284c-16.88-.16-30.718 13.414-30.85 30.294-.133 16.88 13.414 30.718 30.294 30.85h.556c16.88 0 30.612-13.705 30.612-30.585 0-16.854-13.705-30.56-30.612-30.56M220.371 444.368c19.21 16.668 43.34 32.543 73.925 46.646 30.586-14.103 54.742-29.978 73.898-46.673l-73.898-74.03z"/><path fill="#003378" d="M294.296 284.586c-33.046 0-59.796-26.723-59.796-59.743s26.776-59.717 59.796-59.717c33.02 0 59.796 26.776 59.796 59.717 0 32.94-26.75 59.743-59.796 59.743m150.442-16.484V166s-87.048 2.778-150.442-45.932C230.928 168.778 143.88 166 143.88 166v102.102s-.582 21.908 3.228 45.879a816.584 816.584 0 0 1 294.376 0c3.836-23.971 3.254-45.879 3.254-45.879"/><path fill="#003378" d="M148.67 322.527c.66 3.149 1.375 6.35 2.222 9.499 7.038 26.96 19.632 58.076 45.429 88.132l97.975-98.16 97.949 98.16c25.77-30.083 38.39-61.171 45.455-88.132.847-3.122 1.561-6.35 2.196-9.499a807.6 807.6 0 0 0-291.227 0"/><path fill="#fff" d="M192.167 248.761h14.076c.476 0 .846-.37.846-.846v-28.893a.82.82 0 0 0-.82-.873h-11.456a3.563 3.563 0 0 0-3.572 3.519v26.22a.88.88 0 0 0 .873.873h.053M172.667 248.761h14.076c.476 0 .873-.37.873-.846v-26.247a3.5 3.5 0 0 0-3.519-3.519h-11.43c-.476 0-.847.397-.847.873v28.893c-.026.476.344.846.82.873 0-.027 0-.027.027-.027"/><path fill="#fff" d="M213.651 223.15h-2.963v28.68h-17.78l-.027.318c-.238 1.878-1.958 3.228-3.836 2.99a3.428 3.428 0 0 1-2.99-2.99l-.053-.318h-17.78v-28.68h-2.963a.91.91 0 0 0-.926.873v30.427c0 .502.423.9.926.873h17.833c1.931 3.519 6.323 4.815 9.842 2.884a7.204 7.204 0 0 0 2.884-2.884h17.86c.502 0 .9-.397.9-.873v-30.427c-.027-.503-.424-.9-.927-.873.026 0 .026 0 0 0M403.437 245.613H391.82c-.635 0-1.084.423-1.005 1.005l3.784 24.289a2.055 2.055 0 0 0 2.037 1.773h1.984a2.072 2.072 0 0 0 2.011-1.8l3.784-24.288c.079-.556-.344-.98-.98-.98M405.104 234.95c2.99-2.62 9.974-10.266 9.207-14.552-.767-4.683-13.758-11.324-14.5-16.404-.449-2.276.477-5.424 1.694-7.885.159-.45-.317-.529-.794-.185-.264.185-10.821 8.096-10.9 13.573-.027 2.17 1.481 4.55 4.074 6.694 2.117 1.773 4.921 3.36 7.038 5.477 1.006 1.005 1.879 1.878 2.408 3.44 1.058 2.91-1.932 7.62-3.784 9.842h-4.18c1.72-2.064 3.545-4.763 4.26-7.461 1.72-6.562-14.632-8.202-12.171-18.045.106-.397-.291-.503-.688-.212-.185.106-6.482 6.245-6.509 10.504-.053 3.678 7.435 7.091 10.954 12.092.582 1.058.476 2.117-.027 3.122h-6.64s-1.588-.212-.927 1.323l1.8 5.61s.29.74 1.402.74h21.484c1.111 0 1.429-.74 1.429-.74l1.905-5.69c.476-1.375-1.059-1.27-1.059-1.27h-5.476zM265.112 427.884c-1.084.767-6.588 4.419-6.773 4.525-.29.132-.503.45-.476.767a.668.668 0 0 0 .582.714h.026l.53-.159.926-.396c.635-.265 2.063-.926 2.302-.953.079.08.079.609.079.609v8.572l-.08 6.588c-.105.9-.211 1.059-.846 1.19l-2.25.186a.726.726 0 0 0-.66.74v.027c0 .318.132.635.899.635l3.572-.053h2.725l3.651.053c.741 0 .873-.317.873-.635a.69.69 0 0 0-.661-.74l-1.852-.186c-.582-.106-.794-.29-.794-1.19l-.132-6.588v-5.45l.132-7.277v-.423c0-.953-.529-1.006-.74-1.006zM278.95 432.567c0-1.428.794-3.069 3.175-3.069 1.376 0 2.831 1.006 2.831 3.175 0 2.25-1.296 3.466-2.434 3.969-2.646-1.482-3.572-2.54-3.572-4.075m-3.942.609c0 2.778 2.064 4.392 3.89 5.424-3.15 1.429-5.028 3.836-5.028 6.535 0 3.89 3.096 6.244 7.832 6.244 5.45 0 8.281-3.466 8.281-6.932 0-3.545-2.857-5.424-4.894-6.588 1.322-.609 3.889-2.302 3.889-5.45 0-3.043-2.593-4.948-6.456-4.948-5.53 0-7.514 3.44-7.514 5.715m3.043 11.827c0-2.858 1.852-4.445 3.069-5.213 2.434 1.456 4.55 2.752 4.55 5.371 0 2.408-1.534 4.022-3.756 4.022-2.17 0-3.863-1.799-3.863-4.18M299.323 432.567c0-1.428.873-3.069 3.202-3.069 1.402 0 2.804 1.006 2.804 3.175 0 2.25-1.27 3.466-2.434 3.969-2.593-1.482-3.572-2.54-3.572-4.075m-3.89.609c0 2.778 2.038 4.392 3.864 5.424-3.122 1.429-5.027 3.836-5.027 6.535 0 3.89 3.122 6.244 7.884 6.244 5.398 0 8.229-3.466 8.229-6.932 0-3.545-2.858-5.424-4.895-6.588 1.376-.609 3.863-2.302 3.863-5.45 0-3.043-2.567-4.948-6.456-4.948-5.503 0-7.461 3.44-7.461 5.715m3.042 11.827c0-2.858 1.853-4.445 3.017-5.213 2.487 1.456 4.55 2.752 4.55 5.371 0 2.408-1.534 4.022-3.73 4.022-2.09 0-3.837-1.799-3.837-4.18M326.84 427.778l-1.905.16h-7.25c-.794 0-.952.475-.952.74l-.741 7.805c0 .318.053.9.9 1.058 2.01.265 7.09 1.932 7.09 6.589 0 3.65-2.381 4.974-4.445 4.974-2.434 0-3.598-1.164-3.598-3.52 0-.846-.397-.899-.662-.899-.555 0-.74.635-.767.847 0 .053-.106 3.387-.106 3.387v.396c0 .635.027 1.165.741 1.561h.053c.953.37 1.958.53 2.963.53 6.933 0 10.108-4.525 10.108-8.732 0-5.027-4.975-7.673-9.737-8.546.053-.582.238-2.328.344-2.884h5c2.117 0 2.117.635 2.117 1.217 0 .741.609.794.714.794a.634.634 0 0 0 .688-.608v-.027l.424-3.863c0-.317 0-1.005-.688-1.005z"/><path fill="#fff" d="M196.32 420.158a230.599 230.599 0 0 0 24.051 24.183l73.925-74.083 73.898 74.057c8.6-7.461 16.669-15.531 24.077-24.157l-97.949-98.16z"/><path fill="#fff" d="M294.296 300.593c-49.371 0-98.61 4.472-147.161 13.362.45 2.83.952 5.688 1.534 8.572a807.892 807.892 0 0 1 291.28 0 226.58 226.58 0 0 0 1.535-8.572 817.212 817.212 0 0 0-147.188-13.362M294.243 255.455c-16.88.159-30.718-13.414-30.85-30.295-.133-16.88 13.414-30.691 30.294-30.85h.556c16.88 0 30.612 13.679 30.612 30.56 0 16.906-13.705 30.585-30.612 30.585m59.849-30.612c0-32.94-26.75-59.717-59.796-59.717s-59.796 26.75-59.796 59.717c0 32.993 26.776 59.743 59.796 59.743 33.02 0 59.796-26.723 59.796-59.743"/></svg>